<?xml version="1.0" encoding="iso-8859-1"?>
<!-- Generator: Adobe Illustrator 19.0.0, SVG Export Plug-In . SVG Version: 6.00 Build 0)  -->
<svg xmlns="http://www.w3.org/2000/svg" xmlns:xlink="http://www.w3.org/1999/xlink" version="1.1" id="Capa_1" x="0px" y="0px" viewBox="0 0 512 512" style="enable-background:new 0 0 512 512;" xml:space="preserve" width="512px" height="512px">
<g>
	<g>
		<path d="M301.676,195.469c-5.487,0-9.938,4.45-9.938,9.937v0.142c0,5.487,4.45,9.937,9.938,9.937c5.487,0,9.937-4.45,9.937-9.937    v-0.142C311.613,199.918,307.164,195.469,301.676,195.469z" fill="#62696e"/>
	</g>
</g>
<g>
	<g>
		<path d="M358.981,239.257v-81.566c0-3.151-1.495-6.116-4.029-7.99c-2.533-1.873-5.806-2.436-8.819-1.511l-222.865,68.251H66.392    C29.784,216.441,0,246.223,0,282.832c0,34.638,26.668,63.148,60.548,66.119l21.873,104.867    c3.595,17.238,18.986,29.75,36.595,29.75c11.304,0,21.877-5.031,29.007-13.802c7.13-8.772,9.896-20.148,7.587-31.215    l-4.793-22.976c20.962-6.47,36.843-23.876,41.464-45.217l153.85,47.115c0.954,0.292,1.934,0.435,2.909,0.435    c2.103,0,4.179-0.668,5.91-1.948c2.534-1.874,4.029-4.839,4.029-7.99v-81.566c19.881-4.532,34.766-22.341,34.766-43.574    C393.745,261.599,378.86,243.79,358.981,239.257z M66.392,329.346c-25.65,0-46.517-20.867-46.517-46.515    c0-25.65,20.868-46.516,46.517-46.516h48.425v93.032H68.683H66.392z M132.603,457.229c-3.339,4.108-8.292,6.464-13.586,6.464    c-8.247,0-15.455-5.859-17.139-13.933L80.907,349.221h35.77l12.697,60.873c0.002,0.007,0.003,0.015,0.005,0.022l6.777,32.493    C137.237,447.792,135.942,453.121,132.603,457.229z M146.735,395.992l-8.82-42.285l35.27,10.801    C170.668,379,160.483,391.043,146.735,395.992z M339.106,394.534L339.106,394.534l-27.492-8.419V245.255    c0-5.487-4.45-9.938-9.937-9.938s-9.937,4.45-9.937,9.938v134.774L188.166,348.31c-0.964-0.482-2.016-0.812-3.127-0.958    l-50.345-15.418v-98.206l204.413-62.6V394.534z M358.98,305.575v-45.488c8.756,3.84,14.889,12.587,14.889,22.744    C373.869,292.988,367.736,301.735,358.98,305.575z" fill="#62696e"/>
	</g>
</g>
<g>
	<g>
		<path d="M466.785,272.894h-44.322c-5.487,0-9.938,4.45-9.938,9.938c0,5.487,4.45,9.937,9.938,9.937h44.322    c5.487,0,9.937-4.45,9.937-9.937C476.722,277.344,472.272,272.894,466.785,272.894z" fill="#62696e"/>
	</g>
</g>
<g>
	<g>
		<path d="M438.442,196.233c-3.234-4.435-9.453-5.406-13.885-2.172l-22.303,16.267c-4.434,3.234-5.407,9.451-2.173,13.885    c1.945,2.668,4.97,4.082,8.036,4.082c2.031,0,4.081-0.621,5.848-1.91l22.303-16.267    C440.703,206.884,441.676,200.667,438.442,196.233z" fill="#62696e"/>
	</g>
</g>
<g>
	<g>
		<path d="M436.27,355.546l-22.167-16.168c-4.433-3.233-10.651-2.262-13.885,2.173c-3.235,4.434-2.261,10.651,2.173,13.885    l22.167,16.167c1.767,1.289,3.816,1.91,5.848,1.91c3.066,0,6.092-1.416,8.036-4.082    C441.678,364.996,440.704,358.779,436.27,355.546z" fill="#62696e"/>
	</g>
</g>
<g>
	<g>
		<path d="M452.763,64.207H246.495c-5.487,0-9.937,4.45-9.937,9.937s4.45,9.937,9.937,9.937h206.268c5.487,0,9.938-4.45,9.938-9.937    S458.251,64.207,452.763,64.207z" fill="#62696e"/>
	</g>
</g>
<g>
	<g>
		<path d="M145.734,67.119c-1.849-1.848-4.411-2.912-7.026-2.912c-2.614,0-5.177,1.062-7.025,2.912    c-1.858,1.848-2.913,4.412-2.913,7.026s1.054,5.177,2.913,7.025c1.847,1.848,4.411,2.913,7.025,2.913    c2.615,0,5.177-1.063,7.026-2.913c1.848-1.847,2.912-4.411,2.912-7.025S147.583,68.967,145.734,67.119z" fill="#62696e"/>
	</g>
</g>
<g>
	<g>
		<path d="M109.214,67.119c-1.849-1.848-4.411-2.912-7.026-2.912c-2.614,0-5.177,1.062-7.025,2.912    c-1.848,1.848-2.913,4.412-2.913,7.026s1.063,5.177,2.913,7.025c1.847,1.848,4.411,2.913,7.025,2.913    c2.615,0,5.177-1.063,7.026-2.913c1.848-1.847,2.912-4.411,2.912-7.025S111.063,68.967,109.214,67.119z" fill="#62696e"/>
	</g>
</g>
<g>
	<g>
		<path d="M182.254,67.119c-1.858-1.849-4.411-2.912-7.026-2.912c-2.623,0-5.177,1.062-7.035,2.912    c-1.848,1.848-2.903,4.412-2.903,7.026s1.054,5.177,2.903,7.025c1.857,1.848,4.411,2.913,7.035,2.913    c2.615,0,5.167-1.063,7.026-2.913c1.848-1.847,2.912-4.411,2.912-7.025S184.103,68.967,182.254,67.119z" fill="#62696e"/>
	</g>
</g>
<g>
	<g>
		<path d="M470.263,28.432H84.689c-23.014,0-41.737,18.723-41.737,41.737v136.143c0,5.487,4.45,9.937,9.937,9.937    s9.937-4.45,9.937-9.937v-38.684h61.928c5.487,0,9.938-4.45,9.938-9.937s-4.45-9.938-9.938-9.938H62.827v-27.903    c0.037,0,0.073,0.006,0.108,0.006h429.19v258.374c0,12.055-9.807,21.862-21.862,21.862h-79.169c-5.487,0-9.938,4.45-9.938,9.938    s4.45,9.937,9.938,9.937h79.169c23.014,0,41.737-18.723,41.737-41.737V70.169C512,47.155,493.277,28.432,470.263,28.432z     M492.125,99.982H62.935c-0.037,0-0.073,0.005-0.108,0.006V70.169c0-12.055,9.807-21.862,21.862-21.862h385.574    c12.055,0,21.862,9.807,21.862,21.862V99.982z" fill="#62696e"/>
	</g>
</g>
<g>
	<g>
		<path d="M164.009,150.663c-1.847-1.848-4.411-2.913-7.025-2.913c-2.614,0-5.177,1.063-7.026,2.913    c-1.848,1.847-2.912,4.411-2.912,7.025c0,2.615,1.062,5.178,2.912,7.026c1.848,1.858,4.412,2.912,7.026,2.912    c2.614,0,5.177-1.052,7.025-2.912c1.848-1.847,2.913-4.411,2.913-7.026C166.922,155.074,165.858,152.51,164.009,150.663z" fill="#62696e"/>
	</g>
</g>
<g>
</g>
<g>
</g>
<g>
</g>
<g>
</g>
<g>
</g>
<g>
</g>
<g>
</g>
<g>
</g>
<g>
</g>
<g>
</g>
<g>
</g>
<g>
</g>
<g>
</g>
<g>
</g>
<g>
</g>
</svg>
