<?xml version="1.0" encoding="iso-8859-1"?>
<!-- Generator: Adobe Illustrator 19.0.0, SVG Export Plug-In . SVG Version: 6.00 Build 0)  -->
<svg xmlns="http://www.w3.org/2000/svg" xmlns:xlink="http://www.w3.org/1999/xlink" version="1.1" id="Capa_1" x="0px" y="0px" viewBox="0 0 511.999 511.999" style="enable-background:new 0 0 511.999 511.999;" xml:space="preserve" width="512px" height="512px">
<g>
	<g>
		<path d="M359.138,342.93c-1.86-1.861-4.439-2.93-7.07-2.93c-2.63,0-5.21,1.07-7.069,2.93c-1.86,1.86-2.931,4.44-2.931,7.07    s1.07,5.21,2.931,7.07c1.859,1.86,4.439,2.93,7.069,2.93c2.631,0,5.21-1.07,7.07-2.93c1.86-1.86,2.93-4.44,2.93-7.07    S360.999,344.79,359.138,342.93z" fill="#62696e"/>
	</g>
</g>
<g>
	<g>
		<path d="M434.999,75.998H326.67c-16.907-28.133-38.852-53.344-64.439-73.808c-3.652-2.921-8.842-2.919-12.494,0.001    c-25.581,20.464-47.521,45.675-64.422,73.806H76.999c-27.57,0-50,22.43-50,50v252c0,27.57,22.43,50,50,50h129.036v24.023    c-27.12,0.526-49.024,22.735-49.024,49.979c0,5.523,4.478,10,10,10h178.048c5.522,0,10-4.477,10-10    c0-27.244-21.904-49.453-49.024-49.979v-24.023h128.964c27.57,0,50-22.43,50-50v-252    C484.999,98.427,462.569,75.998,434.999,75.998z M255.985,22.965c57.354,48.854,90.087,119.554,90.087,195.236v77.361H165.926    v-77.385C165.926,142.508,198.648,71.818,255.985,22.965z M256.125,403.478c-21.471-23.289-39.529-49.408-53.756-77.769    l-5.09-10.147h117.592v0.001l-5.208,10.382C295.482,354.215,277.493,380.258,256.125,403.478z M256.147,427.998h29.889v23.998    h-0.001h-60v-23.998h30.097H256.147z M76.999,407.998c-16.542,0-30-13.458-30-30v-18h121.646c5.522,0,10-4.477,10-10    s-4.478-10-10-10H46.999v-214c0-16.542,13.458-30,30-30h97.404c-0.388,0.789-0.795,1.569-1.176,2.361    c-10.707,22.277-18.362,46.094-22.797,70.477c-37.801,20.259-61.249,59.364-61.249,102.308v34.419c0,5.523,4.478,10,10,10h56.745    h18.977l9.588,19.115c13.254,26.423,29.66,50.998,48.893,73.32h-17.35H76.999z M145.926,195.548v100.015h-36.745v-24.419    C109.18,241.229,122.922,213.559,145.926,195.548z M333.346,492H178.723c4.128-11.642,15.252-20.004,28.291-20.004h9.021h80h9.021    C318.094,471.996,329.218,480.357,333.346,492z M464.999,339.998h-75.828c-5.522,0-10,4.477-10,10s4.478,10,10,10h75.828v18    c0,16.542-13.458,30-30,30H296.035H278.85c19.146-22.26,35.482-46.756,48.689-73.085l9.707-19.35h18.826h56.745    c5.522,0,10-4.477,10-10v-34.419c0-42.946-23.45-82.052-61.253-102.31c-4.437-24.381-12.093-48.195-22.801-70.469    c-0.382-0.794-0.79-1.576-1.18-2.367h97.416c16.542,0,30,13.458,30,30V339.998z M366.072,295.563v-77.361v-22.654    c23.004,18.011,36.745,45.681,36.745,75.596v24.419H366.072z" fill="#62696e"/>
	</g>
</g>
<g>
	<g>
		<path d="M255.999,142.153c-31.981,0-58,26.019-58,58s26.018,58,58,58c31.981,0,58-26.019,58-58S287.98,142.153,255.999,142.153z     M255.999,238.153c-20.953,0-38-17.047-38-38s17.047-38,38-38s38,17.047,38,38S276.952,238.153,255.999,238.153z" fill="#62696e"/>
	</g>
</g>
<g>
	<g>
		<path d="M102.999,129.998h-27c-5.522,0-10,4.477-10,10s4.477,10,10,10h27c5.522,0,10-4.477,10-10S108.521,129.998,102.999,129.998    z" fill="#62696e"/>
	</g>
</g>
<g>
	<g>
		<path d="M102.999,169.998h-27c-5.522,0-10,4.477-10,10s4.478,10,10,10h27c5.522,0,10-4.477,10-10S108.521,169.998,102.999,169.998    z" fill="#62696e"/>
	</g>
</g>
<g>
	<g>
		<path d="M144.028,132.93c-1.859-1.87-4.439-2.93-7.069-2.93s-5.21,1.06-7.07,2.93c-1.86,1.86-2.93,4.43-2.93,7.07    c0,2.63,1.069,5.21,2.93,7.07s4.44,2.93,7.07,2.93c2.64,0,5.21-1.07,7.069-2.93c1.86-1.86,2.931-4.44,2.931-7.07    S145.889,134.79,144.028,132.93z" fill="#62696e"/>
	</g>
</g>
<g>
</g>
<g>
</g>
<g>
</g>
<g>
</g>
<g>
</g>
<g>
</g>
<g>
</g>
<g>
</g>
<g>
</g>
<g>
</g>
<g>
</g>
<g>
</g>
<g>
</g>
<g>
</g>
<g>
</g>
</svg>
