<?xml version="1.0" encoding="iso-8859-1"?>
<!-- Generator: Adobe Illustrator 19.0.0, SVG Export Plug-In . SVG Version: 6.00 Build 0)  -->
<svg xmlns="http://www.w3.org/2000/svg" xmlns:xlink="http://www.w3.org/1999/xlink" version="1.1" id="Capa_1" x="0px" y="0px" viewBox="0 0 512 512" style="enable-background:new 0 0 512 512;" xml:space="preserve" width="512px" height="512px">
<g>
	<g>
		<path d="M376.818,355.993c-4.416,0-8.609,0.963-12.392,2.677c-4.514-10.954-15.302-18.687-27.866-18.687    c-7.731,0-14.789,2.929-20.129,7.733c-5.34-4.804-12.398-7.733-20.129-7.733c-3.552,0-6.961,0.622-10.129,1.757v-47.654    c0-16.613-13.516-30.129-30.129-30.129c-16.613,0-30.129,13.516-30.129,30.129v125.966l-5.748-9.431    c-8.871-14.557-27.385-19.282-42.146-10.758c-14.041,8.106-19.518,25.893-12.468,40.493l31.857,65.986    c1.725,3.572,5.295,5.655,9.013,5.655c1.458,0,2.939-0.32,4.34-0.997c4.974-2.401,7.059-8.379,4.658-13.353l-31.857-65.986    c-2.521-5.22-0.563-11.578,4.458-14.477c5.278-3.047,11.896-1.358,15.067,3.846l24.287,39.85    c2.333,3.827,6.928,5.635,11.242,4.424c4.315-1.211,7.297-5.146,7.297-9.628v-161.59c0-5.585,4.544-10.129,10.129-10.129    c5.585,0,10.129,4.544,10.129,10.129v124.806c0,5.523,4.477,10,10,10s10-4.477,10-10v-48.78c0-5.585,4.544-10.129,10.129-10.129    c5.585,0,10.129,4.544,10.129,10.129v7.195v41.584c0,5.523,4.477,10,10,10s10-4.477,10-10v-41.584v-7.195    c0-5.585,4.544-10.129,10.129-10.129c5.585,0,10.129,4.544,10.129,10.129v16.01v12.894v19.876c0,5.523,4.477,10,10,10    s10-4.477,10-10v-19.876v-12.894c0-5.585,4.544-10.129,10.129-10.129c5.585,0,10.129,4.544,10.129,10.129v115.871    c0,5.523,4.477,10,10,10s10-4.477,10-10V386.122C406.947,369.51,393.431,355.993,376.818,355.993z" fill="#62696e"/>
	</g>
</g>
<g>
	<g>
		<path d="M256.043,229.994c-35.341,0-64.092,28.752-64.092,64.093c0,5.523,4.477,10,10,10s10-4.477,10-10    c0-24.313,19.78-44.093,44.093-44.093s44.092,19.78,44.092,44.093c0,5.523,4.477,10,10,10s10-4.477,10-10    C320.136,258.745,291.384,229.994,256.043,229.994z" fill="#62696e"/>
	</g>
</g>
<g>
	<g>
		<path d="M348.38,255.39c-15.647-37.297-51.891-61.396-92.335-61.396c-55.191,0-100.092,44.901-100.092,100.093    c0,5.523,4.477,10,10,10s9.998-4.477,9.998-10c0-44.163,35.93-80.093,80.093-80.093c32.366,0,61.37,19.286,73.893,49.133    c2.137,5.093,7.998,7.49,13.09,5.353C348.12,266.343,350.516,260.482,348.38,255.39z" fill="#62696e"/>
	</g>
</g>
<g>
	<g>
		<path d="M346.137,283.743c-0.015,0-0.029,0-0.044,0c-5.522,0.024-9.98,4.52-9.957,10.043v0.3c0,5.523,4.477,10,10,10    s10-4.477,10-10v-0.386C356.112,288.193,351.64,283.743,346.137,283.743z" fill="#62696e"/>
	</g>
</g>
<g>
	<g>
		<path d="M255.987,0.002c-20.402,0-37,16.598-37,37c0,16.937,11.442,31.242,27,35.616v55.518c0,5.523,4.477,10,10,10    s10-4.477,10-10V72.619c15.557-4.374,27-18.679,27-35.616C292.987,16.601,276.389,0.002,255.987,0.002z M255.987,54.003    c-9.374,0-17-7.626-17-17c0-9.374,7.626-17,17-17c9.374,0,17,7.626,17,17C272.987,46.377,265.361,54.003,255.987,54.003z" fill="#62696e"/>
	</g>
</g>
<g>
	<g>
		<path d="M475,218.994c-16.937,0-31.241,11.443-35.616,27h-55.528c-5.523,0-10,4.477-10,10c0,5.523,4.477,10,10,10h55.528    c4.375,15.557,18.679,27,35.616,27c20.402,0,37-16.598,37-37C512,235.591,495.402,218.994,475,218.994z M475,272.993    c-9.374,0-17-7.626-17-17c0-9.374,7.626-17,17-17c9.374,0,17,7.626,17,17C492,265.367,484.374,272.993,475,272.993z" fill="#62696e"/>
	</g>
</g>
<g>
	<g>
		<path d="M186.554,172.404l-53.146-53.146c3.084-5.472,4.735-11.669,4.735-18.122c0-9.883-3.849-19.175-10.837-26.163    c-6.988-6.989-16.28-10.837-26.163-10.837S81.969,67.986,74.98,74.973c-14.426,14.426-14.426,37.9,0,52.326    c6.989,6.989,16.28,10.837,26.164,10.837c6.454,0,12.65-1.651,18.122-4.735l53.146,53.146c1.953,1.952,4.512,2.929,7.071,2.929    c2.559,0,5.119-0.977,7.071-2.929C190.459,182.643,190.459,176.31,186.554,172.404z M113.167,113.156    c-0.001,0.001-0.002,0.001-0.002,0.002c-0.001,0.001-0.001,0.002-0.002,0.003c-3.211,3.209-7.478,4.977-12.018,4.977    c-4.541,0-8.81-1.768-12.021-4.979c-6.629-6.629-6.629-17.414-0.001-24.042c3.211-3.211,7.479-4.979,12.021-4.979    s8.81,1.768,12.021,4.979s4.979,7.479,4.979,12.021C118.144,105.677,116.377,109.945,113.167,113.156z" fill="#62696e"/>
	</g>
</g>
<g>
	<g>
		<path d="M263.06,152.924c-1.86-1.86-4.44-2.93-7.07-2.93c-2.64,0-5.21,1.07-7.07,2.93c-1.87,1.86-2.93,4.44-2.93,7.07    s1.06,5.21,2.93,7.07c1.86,1.86,4.44,2.93,7.07,2.93s5.21-1.07,7.07-2.93c1.86-1.86,2.93-4.44,2.93-7.07    S264.92,154.783,263.06,152.924z" fill="#62696e"/>
	</g>
</g>
<g>
	<g>
		<path d="M437.019,74.973c-6.988-6.989-16.28-10.837-26.163-10.837s-19.175,3.849-26.163,10.837    c-6.989,6.988-10.837,16.28-10.837,26.163c0,6.454,1.651,12.65,4.735,18.122l-60.663,60.663c-3.905,3.905-3.905,10.237,0,14.143    c1.953,1.953,4.513,2.929,7.072,2.929c2.559,0,5.119-0.976,7.071-2.929l60.663-60.663c5.472,3.085,11.668,4.735,18.122,4.735    c9.883,0,19.175-3.849,26.163-10.837C451.445,112.874,451.445,89.4,437.019,74.973z M422.878,113.158    c-3.211,3.211-7.479,4.979-12.021,4.979c-4.54,0-8.807-1.767-12.018-4.977c-0.001-0.001-0.001-0.002-0.002-0.002    c-0.001-0.001-0.002-0.002-0.003-0.002c-3.209-3.211-4.977-7.478-4.977-12.018c-0.001-4.542,1.768-8.81,4.979-12.022    c3.211-3.211,7.479-4.979,12.021-4.979s8.81,1.768,12.021,4.979C429.506,95.744,429.506,106.528,422.878,113.158z" fill="#62696e"/>
	</g>
</g>
<g>
	<g>
		<path d="M128,245.994H72.616c-4.375-15.557-18.679-27-35.616-27c-20.402,0-37,16.598-37,37c0,20.402,16.598,37,37,37    c16.937,0,31.241-11.443,35.616-27H128c5.523,0,10-4.477,10-10C138,250.471,133.523,245.994,128,245.994z M37,272.993    c-9.374,0-17-7.626-17-17c0-9.374,7.626-17,17-17s17,7.626,17,17C54,265.367,46.374,272.993,37,272.993z" fill="#62696e"/>
	</g>
</g>
<g>
</g>
<g>
</g>
<g>
</g>
<g>
</g>
<g>
</g>
<g>
</g>
<g>
</g>
<g>
</g>
<g>
</g>
<g>
</g>
<g>
</g>
<g>
</g>
<g>
</g>
<g>
</g>
<g>
</g>
</svg>
