<?xml version="1.0" encoding="iso-8859-1"?>
<!-- Generator: Adobe Illustrator 19.0.0, SVG Export Plug-In . SVG Version: 6.00 Build 0)  -->
<svg xmlns="http://www.w3.org/2000/svg" xmlns:xlink="http://www.w3.org/1999/xlink" version="1.1" id="Capa_1" x="0px" y="0px" viewBox="0 0 477.656 477.656" style="enable-background:new 0 0 477.656 477.656;" xml:space="preserve" width="512px" height="512px">
<g>
	<g>
		<path d="M390.828,77.656h-59.565c-6.389-10.056-14.169-18.81-23.031-26.091l40.252-40.252L337.172,0l-42.215,42.215    c-16.594-9.874-35.809-15.293-56.128-15.293s-39.535,5.419-56.128,15.293L140.484,0l-11.313,11.313l40.252,40.252    c-8.862,7.282-16.642,16.035-23.031,26.091H86.828c-30.875,0-56,25.125-56,56v208c0,30.875,25.125,56,56,56h4.183l-27.612,69.031    c-0.984,2.461-0.68,5.258,0.805,7.453c1.492,2.195,3.969,3.516,6.625,3.516h24c2.813,0,5.414-1.477,6.859-3.883l45.67-76.117    h182.94l45.67,76.117c1.445,2.406,4.047,3.883,6.859,3.883h24c2.656,0,5.133-1.32,6.625-3.516    c1.484-2.195,1.789-4.992,0.805-7.453l-27.612-69.031h4.183c30.875,0,56-25.125,56-56v-208    C446.828,102.781,421.703,77.656,390.828,77.656z M238.828,42.922c28.863,0,55.093,12.809,72.718,34.734H166.11    C183.735,55.73,209.965,42.922,238.828,42.922z M90.297,461.656h-7.656l25.602-64h20.453L90.297,461.656z M395.016,461.656h-7.656    l-38.398-64h20.453L395.016,461.656z M430.828,341.656c0,22.055-17.945,40-40,40h-16h-40h-192h-40h-16c-22.055,0-40-17.945-40-40    v-208c0-22.055,17.945-40,40-40h304c22.055,0,40,17.945,40,40V341.656z" fill="#62696e"/>
	</g>
</g>
<g>
	<g>
		<path d="M326.828,109.656h-240c-13.234,0-24,10.766-24,24v208c0,13.234,10.766,24,24,24h240c13.234,0,24-10.766,24-24v-208    C350.828,120.422,340.063,109.656,326.828,109.656z M334.828,341.656c0,4.414-3.586,8-8,8h-240c-4.414,0-8-3.586-8-8v-208    c0-4.414,3.586-8,8-8h240c4.414,0,8,3.586,8,8V341.656z" fill="#62696e"/>
	</g>
</g>
<g>
	<g>
		<rect x="366.828" y="213.656" width="16" height="16" fill="#62696e"/>
	</g>
</g>
<g>
	<g>
		<rect x="398.828" y="213.656" width="16" height="16" fill="#62696e"/>
	</g>
</g>
<g>
	<g>
		<rect x="366.828" y="245.656" width="16" height="16" fill="#62696e"/>
	</g>
</g>
<g>
	<g>
		<rect x="398.828" y="245.656" width="16" height="16" fill="#62696e"/>
	</g>
</g>
<g>
	<g>
		<path d="M390.828,285.656c-13.234,0-24,10.766-24,24s10.766,24,24,24s24-10.766,24-24S404.063,285.656,390.828,285.656z     M390.828,317.656c-4.414,0-8-3.586-8-8s3.586-8,8-8s8,3.586,8,8S395.242,317.656,390.828,317.656z" fill="#62696e"/>
	</g>
</g>
<g>
	<g>
		<path d="M390.828,141.656c-13.234,0-24,10.766-24,24s10.766,24,24,24s24-10.766,24-24S404.063,141.656,390.828,141.656z     M390.828,173.656c-4.414,0-8-3.586-8-8s3.586-8,8-8s8,3.586,8,8S395.242,173.656,390.828,173.656z" fill="#62696e"/>
	</g>
</g>
<g>
	<g>
		<path d="M292.484,248l-46.289-46.289l-7.523-37.625c-0.578-2.891-2.703-5.234-5.523-6.086c-2.844-0.867-5.891-0.086-7.977,2    l-12.506,12.506l-19.307-6.436c-2.867-0.977-6.047-0.211-8.188,1.93l-16,16c-2.141,2.141-2.891,5.313-1.93,8.188l6.436,19.307    L161.172,224c-2.086,2.086-2.852,5.148-2,7.977c0.852,2.82,3.195,4.945,6.086,5.523l37.625,7.523l0.633,0.633L169.172,280    c-3.125,3.125-3.125,8.188,0,11.313l24,24c1.563,1.563,3.609,2.344,5.656,2.344s4.094-0.781,5.656-2.344l34.344-34.344    l10.344,10.344c1.5,1.5,3.531,2.344,5.656,2.344c25.797,0,40-14.203,40-40C294.828,251.531,293.984,249.5,292.484,248z     M192.992,182.813l7.023,2.344l-13.688,13.688l-2.344-7.023L192.992,182.813z M198.828,298.344l-12.688-12.688l28.688-28.688    l12.688,12.688L198.828,298.344z M258.047,277.563L244.484,264l-24-24l-8-8c-1.117-1.117-2.539-1.875-4.086-2.188l-25.344-5.07    l5.43-5.43l32-32l5.43-5.43l5.07,25.344c0.313,1.547,1.07,2.969,2.188,4.086l45.563,45.563    C277.898,270.367,271.539,276.727,258.047,277.563z" fill="#62696e"/>
	</g>
</g>
<g>
	<g>
		<rect x="158.829" y="154.344" transform="matrix(0.7071 -0.7071 0.7071 0.7071 -68.2737 166.4859)" width="16" height="22.624" fill="#62696e"/>
	</g>
</g>
<g>
	<g>
		<rect x="186.827" y="140.728" transform="matrix(0.8944 -0.4472 0.4472 0.8944 -46.3668 102.9296)" width="16" height="17.888" fill="#62696e"/>
	</g>
</g>
<g>
	<g>
		<rect x="142.859" y="184.713" transform="matrix(0.4472 -0.8944 0.8944 0.4472 -89.8188 241.9843)" width="16" height="17.888" fill="#62696e"/>
	</g>
</g>
<g>
</g>
<g>
</g>
<g>
</g>
<g>
</g>
<g>
</g>
<g>
</g>
<g>
</g>
<g>
</g>
<g>
</g>
<g>
</g>
<g>
</g>
<g>
</g>
<g>
</g>
<g>
</g>
<g>
</g>
</svg>
