<?xml version="1.0" encoding="utf-8"?>
<!-- Generator: Adobe Illustrator 22.0.1, SVG Export Plug-In . SVG Version: 6.00 Build 0)  -->
<svg version="1.1" id="Layer_1" xmlns="http://www.w3.org/2000/svg" xmlns:xlink="http://www.w3.org/1999/xlink" x="0px" y="0px"
	 viewBox="0 0 248.7 248.1" style="enable-background:new 0 0 248.7 248.1;" xml:space="preserve">
<style type="text/css">
	.st0{fill:#F5B201;}
</style>
<g>
	<g>
		<path class="st0" d="M125.9,249.2c-1.4,0-2.5-1.1-2.5-2.5s1.1-2.5,2.5-2.5c30.5,0,59.6-11.6,81.7-32.6c1-1,2.6-0.9,3.5,0.1
			c1,1,0.9,2.6-0.1,3.5C188,237.1,157.7,249.2,125.9,249.2z"/>
	</g>
</g>
<g>
	<g>
		<path class="st0" d="M49,220.2c-0.2,0-0.4-0.1-0.6-0.2c-2.1-1.7-4.1-3.5-6.1-5.3c-0.4-0.4-0.4-1,0-1.4s1-0.4,1.4,0
			c1.9,1.8,3.9,3.6,6,5.2c0.4,0.4,0.5,1,0.1,1.4C49.6,220.1,49.3,220.2,49,220.2z M37.4,209.3c-0.3,0-0.5-0.1-0.7-0.3
			c-1.8-2-3.6-4-5.3-6.1c-0.3-0.4-0.3-1.1,0.1-1.4c0.4-0.4,1.1-0.3,1.4,0.1c1.7,2,3.4,4,5.2,6c0.4,0.4,0.4,1,0,1.4
			C37.9,209.2,37.6,209.3,37.4,209.3z M27.3,196.9c-0.3,0-0.6-0.1-0.8-0.4c-1.6-2.2-3.1-4.4-4.5-6.7c-0.3-0.5-0.1-1.1,0.3-1.4
			c0.5-0.3,1.1-0.1,1.4,0.3c1.4,2.2,2.9,4.5,4.4,6.6c0.3,0.4,0.2,1.1-0.2,1.4C27.7,196.8,27.5,196.9,27.3,196.9z M18.8,183.3
			c-0.4,0-0.7-0.2-0.9-0.5c-1.3-2.4-2.4-4.8-3.5-7.2c-0.2-0.5,0-1.1,0.5-1.3s1.1,0,1.3,0.5c1.1,2.4,2.3,4.8,3.5,7.1
			c0.3,0.5,0.1,1.1-0.4,1.4C19.2,183.3,19,183.3,18.8,183.3z M12.3,168.7c-0.4,0-0.8-0.2-0.9-0.7c-0.9-2.5-1.8-5.1-2.6-7.6
			c-0.2-0.5,0.1-1.1,0.7-1.2c0.5-0.2,1.1,0.1,1.2,0.7c0.7,2.5,1.6,5,2.5,7.5c0.2,0.5-0.1,1.1-0.6,1.3
			C12.5,168.7,12.4,168.7,12.3,168.7z M7.7,153.4c-0.5,0-0.9-0.3-1-0.8c-0.6-2.6-1.1-5.3-1.5-7.9c-0.1-0.5,0.3-1.1,0.8-1.1
			c0.5-0.1,1.1,0.3,1.1,0.8c0.4,2.6,0.9,5.2,1.5,7.8c0.1,0.5-0.2,1.1-0.8,1.2C7.9,153.4,7.8,153.4,7.7,153.4z M5.2,137.6
			c-0.5,0-0.9-0.4-1-0.9c-0.2-2.7-0.4-5.4-0.5-8c0-0.6,0.4-1,1-1s1,0.4,1,1c0.1,2.6,0.2,5.3,0.5,7.9C6.3,137.1,5.9,137.6,5.2,137.6
			C5.3,137.6,5.3,137.6,5.2,137.6z M4.8,121.6L4.8,121.6c-0.6,0-1-0.5-1-1c0.1-2.7,0.3-5.4,0.6-8c0.1-0.5,0.5-1,1.1-0.9
			c0.5,0.1,0.9,0.6,0.9,1.1c-0.3,2.6-0.5,5.3-0.6,7.9C5.8,121.2,5.4,121.6,4.8,121.6z M6.5,105.7c-0.1,0-0.1,0-0.2,0
			c-0.5-0.1-0.9-0.6-0.8-1.2c0.5-2.6,1-5.3,1.6-7.9c0.1-0.5,0.7-0.9,1.2-0.7C8.8,96,9.2,96.6,9,97.1c-0.6,2.6-1.2,5.2-1.6,7.8
			C7.4,105.4,7,105.7,6.5,105.7z M10.3,90.2c-0.1,0-0.2,0-0.3,0c-0.5-0.2-0.8-0.7-0.7-1.3c0.8-2.6,1.7-5.1,2.7-7.6
			c0.2-0.5,0.8-0.8,1.3-0.6s0.8,0.8,0.6,1.3c-1,2.5-1.8,5-2.6,7.5C11.1,89.9,10.7,90.2,10.3,90.2z M16.1,75.3c-0.1,0-0.3,0-0.4-0.1
			c-0.5-0.2-0.7-0.8-0.5-1.3c1.1-2.4,2.4-4.8,3.7-7.2c0.3-0.5,0.9-0.7,1.4-0.4c0.5,0.3,0.7,0.9,0.4,1.4c-1.3,2.3-2.5,4.7-3.6,7.1
			C16.8,75.1,16.5,75.3,16.1,75.3z M23.8,61.3c-0.2,0-0.4-0.1-0.5-0.2c-0.5-0.3-0.6-0.9-0.3-1.4c1.4-2.3,3-4.5,4.6-6.6
			c0.3-0.4,1-0.5,1.4-0.2s0.5,1,0.2,1.4c-1.6,2.1-3.1,4.3-4.5,6.5C24.5,61.1,24.1,61.3,23.8,61.3z M33.3,48.4
			c-0.2,0-0.5-0.1-0.6-0.2c-0.4-0.4-0.5-1-0.1-1.4c1.7-2,3.5-4.1,5.4-6c0.4-0.4,1-0.4,1.4,0s0.4,1,0,1.4c-1.8,1.9-3.6,3.9-5.3,5.9
			C33.9,48.3,33.6,48.4,33.3,48.4z M44.4,36.9c-0.3,0-0.5-0.1-0.7-0.3c-0.4-0.4-0.3-1,0.1-1.4c2-1.8,4-3.6,6.1-5.2
			c0.4-0.3,1.1-0.3,1.4,0.2c0.3,0.4,0.3,1.1-0.2,1.4c-2.1,1.6-4.1,3.4-6,5.1C44.9,36.8,44.6,36.9,44.4,36.9z M56.9,26.9
			c-0.3,0-0.6-0.1-0.8-0.4c-0.3-0.5-0.2-1.1,0.3-1.4c2.2-1.5,4.5-3,6.8-4.4c0.5-0.3,1.1-0.1,1.4,0.3c0.3,0.5,0.1,1.1-0.3,1.4
			c-2.3,1.4-4.5,2.8-6.7,4.3C57.3,26.9,57.1,26.9,56.9,26.9z M70.6,18.7c-0.4,0-0.7-0.2-0.9-0.5c-0.3-0.5-0.1-1.1,0.4-1.3
			c2.4-1.2,4.8-2.4,7.3-3.4c0.5-0.2,1.1,0,1.3,0.5c0.2,0.5,0,1.1-0.5,1.3c-2.4,1-4.8,2.2-7.2,3.4C70.9,18.7,70.7,18.7,70.6,18.7z
			 M85.2,12.4c-0.4,0-0.8-0.3-0.9-0.7c-0.2-0.5,0.1-1.1,0.6-1.3c2.5-0.9,5.1-1.7,7.7-2.5c0.5-0.2,1.1,0.2,1.2,0.7
			c0.2,0.5-0.2,1.1-0.7,1.2c-2.5,0.7-5.1,1.5-7.6,2.4C85.5,12.4,85.3,12.4,85.2,12.4z M100.6,8c-0.5,0-0.9-0.3-1-0.8
			s0.2-1.1,0.8-1.2c2.6-0.6,5.3-1,7.9-1.4c0.6-0.1,1.1,0.3,1.1,0.8c0.1,0.5-0.3,1.1-0.8,1.1c-2.6,0.4-5.2,0.8-7.8,1.4
			C100.8,8,100.7,8,100.6,8z M116.4,5.8c-0.5,0-1-0.4-1-0.9c0-0.6,0.4-1,0.9-1.1c2.7-0.2,5.4-0.3,8.1-0.4l0,0c0.5,0,1,0.4,1,1
			s-0.4,1-1,1C121.8,5.4,119.1,5.5,116.4,5.8C116.5,5.7,116.5,5.8,116.4,5.8z"/>
	</g>
</g>
<g>
	<g>
		<path class="st0" d="M12.2,170c-1,0-2-0.6-2.3-1.6c-5.1-13.7-7.6-28.1-7.6-42.8c0-33,12.9-64.1,36.2-87.4c1-1,2.6-1,3.5,0
			c1,1,1,2.6,0,3.5C19.6,64.1,7.2,93.9,7.2,125.6c0,14.1,2.5,28,7.3,41.1c0.5,1.3-0.2,2.7-1.5,3.2C12.8,170,12.5,170,12.2,170z"/>
	</g>
</g>
<g>
	<g>
		<path class="st0" d="M229.3,64.8c-0.8,0-1.7-0.4-2.1-1.2c-14-22.8-35.4-40.4-60.4-49.5c-13.1-4.8-26.8-7.2-40.9-7.2
			c-1.4,0-2.5-1.1-2.5-2.5s1.1-2.5,2.5-2.5c14.6,0,29,2.5,42.6,7.5c26,9.5,48.4,27.9,62.9,51.6c0.7,1.2,0.4,2.7-0.8,3.4
			C230.2,64.7,229.7,64.8,229.3,64.8z"/>
	</g>
</g>
</svg>
