<?xml version="1.0" encoding="utf-8"?>
<!-- Generator: Adobe Illustrator 22.0.1, SVG Export Plug-In . SVG Version: 6.00 Build 0)  -->
<svg version="1.1" id="Layer_1" xmlns="http://www.w3.org/2000/svg" xmlns:xlink="http://www.w3.org/1999/xlink" x="0px" y="0px"
	 viewBox="0 0 252.7 253.8" style="enable-background:new 0 0 252.7 253.8;" xml:space="preserve">
<style type="text/css">
	.st0{fill:#F47A00;}
</style>
<g>
	<path class="st0" d="M4.7,128.1c-0.6,0-1-0.4-1-1c0-2.7,0.1-5.4,0.3-8.1c0-0.6,0.5-1,1.1-0.9c0.6,0,1,0.5,0.9,1.1
		c-0.2,2.6-0.3,5.3-0.3,7.9C5.7,127.6,5.3,128.1,4.7,128.1z M5.8,112.1H5.7c-0.5-0.1-0.9-0.6-0.9-1.1c0.4-2.6,0.8-5.3,1.3-8
		c0.1-0.5,0.6-0.9,1.2-0.8c0.5,0.1,0.9,0.6,0.8,1.2c-0.5,2.6-1,5.2-1.3,7.8C6.7,111.8,6.3,112.1,5.8,112.1z M9,96.5
		c-0.1,0-0.2,0-0.3,0c-0.5-0.1-0.8-0.7-0.7-1.2c0.7-2.6,1.5-5.2,2.4-7.7c0.2-0.5,0.7-0.8,1.3-0.6c0.5,0.2,0.8,0.7,0.6,1.3
		c-0.9,2.5-1.6,5.1-2.3,7.6C9.8,96.2,9.4,96.5,9,96.5z M241.6,92.1c-0.4,0-0.8-0.3-1-0.7c-0.8-2.5-1.7-5-2.6-7.5
		c-0.2-0.5,0.1-1.1,0.6-1.3c0.5-0.2,1.1,0.1,1.3,0.6c1,2.5,1.9,5.1,2.7,7.6c0.2,0.5-0.1,1.1-0.7,1.3C241.8,92,241.7,92.1,241.6,92.1
		z M14.2,81.3c-0.1,0-0.3,0-0.4-0.1c-0.5-0.2-0.8-0.8-0.5-1.3c1-2.5,2.2-4.9,3.4-7.3c0.2-0.5,0.8-0.7,1.3-0.5s0.7,0.8,0.5,1.3
		c-1.2,2.4-2.3,4.8-3.3,7.2C14.9,81.1,14.6,81.3,14.2,81.3z M235.8,77.1c-0.4,0-0.7-0.2-0.9-0.6c-1.1-2.4-2.3-4.8-3.6-7.1
		c-0.3-0.5-0.1-1.1,0.4-1.4s1.1-0.1,1.4,0.4c1.3,2.4,2.5,4.8,3.6,7.2c0.2,0.5,0,1.1-0.5,1.3C236.1,77.1,236,77.1,235.8,77.1z
		 M21.3,67c-0.2,0-0.3,0-0.5-0.1c-0.5-0.3-0.6-0.9-0.4-1.4c1.3-2.3,2.8-4.6,4.3-6.8c0.3-0.5,0.9-0.6,1.4-0.3
		c0.5,0.3,0.6,0.9,0.3,1.4c-1.5,2.2-2.9,4.5-4.2,6.7C22,66.9,21.6,67,21.3,67z M228.2,63.1c-0.3,0-0.7-0.2-0.8-0.5
		c-1.4-2.2-2.9-4.4-4.5-6.5c-0.3-0.4-0.2-1.1,0.2-1.4s1.1-0.2,1.4,0.2c1.6,2.2,3.1,4.4,4.6,6.7c0.3,0.5,0.2,1.1-0.3,1.4
		C228.5,63.1,228.3,63.1,228.2,63.1z M30.2,53.8c-0.2,0-0.4-0.1-0.6-0.2c-0.4-0.3-0.5-1-0.2-1.4c1.6-2.1,3.4-4.2,5.1-6.2
		c0.4-0.4,1-0.5,1.4-0.1s0.4,1,0.1,1.4c-1.7,2-3.5,4-5.1,6.1C30.8,53.6,30.5,53.8,30.2,53.8z M218.7,50.2c-0.3,0-0.6-0.1-0.8-0.4
		c-1.7-2-3.5-4-5.3-5.9c-0.4-0.4-0.4-1,0-1.4s1-0.4,1.4,0c1.8,1.9,3.7,3.9,5.4,6c0.4,0.4,0.3,1.1-0.1,1.4
		C219.2,50.1,218.9,50.2,218.7,50.2z M40.8,41.8c-0.3,0-0.5-0.1-0.7-0.3c-0.4-0.4-0.4-1,0-1.4c1.9-1.9,3.9-3.7,5.9-5.5
		c0.4-0.4,1-0.3,1.4,0.1s0.3,1-0.1,1.4c-2,1.7-4,3.5-5.8,5.4C41.4,41.7,41.1,41.8,40.8,41.8z M207.7,38.7c-0.2,0-0.5-0.1-0.7-0.3
		c-1.9-1.8-4-3.5-6-5.2c-0.4-0.3-0.5-1-0.2-1.4s1-0.5,1.4-0.2c2.1,1.7,4.2,3.4,6.1,5.2c0.4,0.4,0.4,1,0.1,1.4
		C208.2,38.6,207.9,38.7,207.7,38.7z M53,31.4c-0.3,0-0.6-0.1-0.8-0.4c-0.3-0.4-0.2-1.1,0.2-1.4c2.1-1.6,4.4-3.2,6.6-4.6
		c0.5-0.3,1.1-0.2,1.4,0.3s0.2,1.1-0.3,1.4c-2.2,1.4-4.4,3-6.5,4.6C53.4,31.3,53.2,31.4,53,31.4z M195.2,28.7
		c-0.2,0-0.4-0.1-0.6-0.2c-2.2-1.5-4.4-2.9-6.7-4.3c-0.5-0.3-0.6-0.9-0.3-1.4s0.9-0.6,1.4-0.3c2.3,1.4,4.6,2.9,6.8,4.4
		c0.5,0.3,0.6,0.9,0.3,1.4C195.8,28.6,195.5,28.7,195.2,28.7z M66.3,22.6c-0.3,0-0.7-0.2-0.9-0.5c-0.3-0.5-0.1-1.1,0.4-1.4
		c2.3-1.3,4.7-2.6,7.2-3.7c0.5-0.2,1.1,0,1.3,0.5c0.2,0.5,0,1.1-0.5,1.3c-2.4,1.1-4.7,2.4-7,3.7C66.7,22.6,66.5,22.6,66.3,22.6z
		 M181.5,20.5c-0.2,0-0.3,0-0.5-0.1c-2.3-1.2-4.8-2.3-7.2-3.4c-0.5-0.2-0.7-0.8-0.5-1.3c0.2-0.5,0.8-0.7,1.3-0.5
		c2.5,1.1,4.9,2.2,7.3,3.5c0.5,0.3,0.7,0.9,0.4,1.3C182.2,20.3,181.8,20.5,181.5,20.5z M80.8,15.7c-0.4,0-0.8-0.2-0.9-0.6
		c-0.2-0.5,0-1.1,0.6-1.3c2.5-1,5-1.9,7.6-2.8c0.5-0.2,1.1,0.1,1.3,0.6c0.2,0.5-0.1,1.1-0.6,1.3c-2.5,0.8-5,1.7-7.5,2.7
		C81,15.7,80.9,15.7,80.8,15.7z M166.8,14.1c-0.1,0-0.2,0-0.3-0.1c-2.5-0.9-5-1.7-7.6-2.4c-0.5-0.2-0.8-0.7-0.7-1.2
		c0.2-0.5,0.7-0.8,1.2-0.7c2.6,0.7,5.2,1.6,7.7,2.5c0.5,0.2,0.8,0.8,0.6,1.3C167.6,13.8,167.2,14.1,166.8,14.1z M95.9,10.7
		c-0.4,0-0.9-0.3-1-0.8s0.2-1.1,0.7-1.2c2.6-0.7,5.2-1.3,7.9-1.7c0.5-0.1,1.1,0.3,1.2,0.8s-0.3,1.1-0.8,1.2
		c-2.6,0.5-5.2,1.1-7.7,1.7C96.1,10.7,96,10.7,95.9,10.7z M151.4,9.7c-0.1,0-0.1,0-0.2,0c-2.6-0.6-5.2-1-7.8-1.4
		c-0.5-0.1-0.9-0.6-0.8-1.1s0.6-0.9,1.1-0.8c2.6,0.4,5.3,0.9,7.9,1.4c0.5,0.1,0.9,0.6,0.8,1.2C152.3,9.4,151.9,9.7,151.4,9.7z
		 M111.7,7.8c-0.5,0-0.9-0.4-1-0.9s0.3-1,0.9-1.1c2.7-0.3,5.4-0.5,8-0.7c0.5,0,1,0.4,1.1,0.9c0,0.6-0.4,1-0.9,1.1
		c-2.6,0.1-5.3,0.4-7.9,0.7C111.7,7.8,111.7,7.8,111.7,7.8z M135.6,7.3L135.6,7.3c-2.7-0.2-5.4-0.3-8-0.4c-0.6,0-1-0.5-1-1
		s0.5-1,1-1l0,0c2.7,0,5.4,0.2,8.1,0.4c0.6,0,1,0.5,0.9,1.1C136.6,6.9,136.1,7.3,135.6,7.3z"/>
</g>
<g>
	<path class="st0" d="M246,113.5c-1.2,0-2.3-0.9-2.5-2.2c-1.4-10.7-4.3-21.2-8.6-31.1c-0.5-1.3,0-2.7,1.3-3.3c1.3-0.5,2.7,0,3.3,1.3
		c4.5,10.3,7.5,21.3,8.9,32.4c0.2,1.4-0.8,2.6-2.2,2.8C246.2,113.5,246.1,113.5,246,113.5z"/>
</g>
<g>
	<path class="st0" d="M4.7,129.6c-1.4,0-2.5-1.1-2.5-2.5C2.2,58.9,57.7,3.4,125.9,3.4c1.4,0,2.5,1.1,2.5,2.5s-1.1,2.5-2.5,2.5
		C60.5,8.4,7.2,61.6,7.2,127.1C7.2,128.5,6.1,129.6,4.7,129.6z"/>
</g>
<g>
	<path class="st0" d="M125.9,251.8c-1.4,0-2.5-1.1-2.5-2.5s1.1-2.5,2.5-2.5c30.5,0,59.6-11.6,81.7-32.6c1-1,2.6-0.9,3.5,0.1
		c1,1,0.9,2.6-0.1,3.5C188,239.7,157.7,251.8,125.9,251.8z"/>
</g>
<g>
	<path class="st0" d="M49,222.8c-0.2,0-0.4-0.1-0.6-0.2c-2.1-1.7-4.1-3.5-6.1-5.3c-0.4-0.4-0.4-1,0-1.4s1-0.4,1.4,0
		c1.9,1.8,3.9,3.6,6,5.2c0.4,0.4,0.5,1,0.1,1.4C49.6,222.7,49.3,222.8,49,222.8z M37.4,211.8c-0.3,0-0.5-0.1-0.7-0.3
		c-1.8-2-3.6-4-5.3-6.1c-0.3-0.4-0.3-1.1,0.1-1.4c0.4-0.4,1.1-0.3,1.4,0.1c1.7,2,3.4,4,5.2,6c0.4,0.4,0.4,1,0,1.4
		C37.9,211.8,37.6,211.8,37.4,211.8z M27.3,199.5c-0.3,0-0.6-0.1-0.8-0.4c-1.6-2.2-3.1-4.4-4.5-6.7c-0.3-0.5-0.1-1.1,0.3-1.4
		c0.5-0.3,1.1-0.1,1.4,0.3c1.4,2.2,2.9,4.5,4.4,6.6c0.3,0.4,0.2,1.1-0.2,1.4C27.7,199.4,27.5,199.5,27.3,199.5z M18.8,185.9
		c-0.4,0-0.7-0.2-0.9-0.5c-1.3-2.4-2.5-4.8-3.5-7.2c-0.2-0.5,0-1.1,0.5-1.3c0.5-0.2,1.1,0,1.3,0.5c1.1,2.4,2.2,4.8,3.5,7.1
		c0.3,0.5,0.1,1.1-0.4,1.4C19.2,185.8,19,185.9,18.8,185.9z M12.3,171.3c-0.4,0-0.8-0.2-0.9-0.7c-0.9-2.5-1.8-5.1-2.6-7.6
		c-0.2-0.5,0.1-1.1,0.7-1.2c0.5-0.2,1.1,0.1,1.2,0.7c0.7,2.5,1.6,5,2.5,7.5c0.2,0.5-0.1,1.1-0.6,1.3
		C12.5,171.3,12.4,171.3,12.3,171.3z M7.7,156c-0.5,0-0.9-0.3-1-0.8c-0.6-2.6-1.1-5.3-1.5-7.9c-0.1-0.5,0.3-1.1,0.8-1.1
		c0.5-0.1,1.1,0.3,1.1,0.8c0.4,2.6,0.9,5.2,1.5,7.8c0.1,0.5-0.2,1.1-0.8,1.2C7.9,156,7.8,156,7.7,156z M5.2,140.2
		c-0.5,0-0.9-0.4-1-0.9c-0.2-2.7-0.4-5.4-0.5-8c0-0.6,0.4-1,1-1l0,0c0.5,0,1,0.4,1,1c0.1,2.6,0.2,5.3,0.5,7.9
		C6.3,139.7,5.9,140.1,5.2,140.2C5.3,140.2,5.3,140.2,5.2,140.2z M4.8,124.2L4.8,124.2c-0.6,0-1-0.5-1-1c0.1-2.7,0.3-5.4,0.6-8
		c0.1-0.5,0.5-1,1.1-0.9c0.5,0.1,0.9,0.6,0.9,1.1c-0.3,2.6-0.5,5.3-0.6,7.9C5.8,123.8,5.4,124.2,4.8,124.2z M6.5,108.3
		c-0.1,0-0.1,0-0.2,0c-0.5-0.1-0.9-0.6-0.8-1.2c0.5-2.6,1-5.3,1.6-7.9c0.1-0.5,0.7-0.9,1.2-0.7c0.5,0.1,0.9,0.7,0.7,1.2
		c-0.6,2.6-1.2,5.2-1.6,7.8C7.4,108,7,108.3,6.5,108.3z M10.3,92.8c-0.1,0-0.2,0-0.3,0c-0.5-0.2-0.8-0.7-0.7-1.3
		c0.8-2.6,1.7-5.1,2.7-7.6c0.2-0.5,0.8-0.8,1.3-0.6c0.5,0.2,0.8,0.8,0.6,1.3c-1,2.5-1.8,5-2.6,7.5C11.1,92.5,10.7,92.8,10.3,92.8z
		 M16.1,77.9c-0.1,0-0.3,0-0.4-0.1c-0.5-0.2-0.7-0.8-0.5-1.3c1.1-2.4,2.4-4.8,3.7-7.2c0.3-0.5,0.9-0.7,1.4-0.4
		c0.5,0.3,0.7,0.9,0.4,1.4c-1.3,2.3-2.5,4.7-3.6,7.1C16.8,77.7,16.5,77.9,16.1,77.9z M23.8,63.9c-0.2,0-0.4-0.1-0.5-0.2
		c-0.5-0.3-0.6-0.9-0.3-1.4c1.4-2.3,3-4.5,4.6-6.6c0.3-0.4,1-0.5,1.4-0.2s0.5,1,0.2,1.4c-1.6,2.1-3.1,4.3-4.5,6.5
		C24.5,63.7,24.1,63.9,23.8,63.9z M33.3,51c-0.2,0-0.5-0.1-0.6-0.2c-0.4-0.4-0.5-1-0.1-1.4c1.7-2,3.5-4.1,5.4-6c0.4-0.4,1-0.4,1.4,0
		s0.4,1,0,1.4c-1.8,1.9-3.6,3.9-5.3,5.9C33.9,50.9,33.6,51,33.3,51z M44.4,39.5c-0.3,0-0.5-0.1-0.7-0.3c-0.4-0.4-0.3-1,0.1-1.4
		c2-1.8,4-3.6,6.1-5.2c0.4-0.3,1.1-0.3,1.4,0.2c0.3,0.4,0.3,1.1-0.2,1.4c-2.1,1.6-4.1,3.4-6,5.1C44.9,39.4,44.6,39.5,44.4,39.5z
		 M56.9,29.5c-0.3,0-0.6-0.1-0.8-0.4c-0.3-0.5-0.2-1.1,0.3-1.4c2.2-1.5,4.5-3,6.8-4.4c0.5-0.3,1.1-0.1,1.4,0.3
		c0.3,0.5,0.1,1.1-0.3,1.4c-2.3,1.4-4.5,2.8-6.7,4.3C57.3,29.5,57.1,29.5,56.9,29.5z M70.6,21.3c-0.4,0-0.7-0.2-0.9-0.5
		c-0.3-0.5-0.1-1.1,0.4-1.3c2.4-1.2,4.8-2.4,7.3-3.4c0.5-0.2,1.1,0,1.3,0.5c0.2,0.5,0,1.1-0.5,1.3c-2.4,1-4.8,2.2-7.2,3.4
		C70.9,21.3,70.7,21.3,70.6,21.3z M85.2,15c-0.4,0-0.8-0.3-0.9-0.7c-0.2-0.5,0.1-1.1,0.6-1.3c2.5-0.9,5.1-1.7,7.7-2.5
		c0.5-0.2,1.1,0.2,1.2,0.7c0.2,0.5-0.2,1.1-0.7,1.2c-2.5,0.7-5.1,1.5-7.6,2.4C85.5,14.9,85.3,15,85.2,15z M100.6,10.6
		c-0.5,0-0.9-0.3-1-0.8s0.2-1.1,0.8-1.2c2.6-0.6,5.3-1,7.9-1.4c0.6-0.1,1.1,0.3,1.1,0.8c0.1,0.5-0.3,1.1-0.8,1.1
		c-2.6,0.4-5.2,0.8-7.8,1.4C100.8,10.6,100.7,10.6,100.6,10.6z M116.4,8.3c-0.5,0-1-0.4-1-0.9c0-0.6,0.4-1,0.9-1.1
		c2.7-0.2,5.4-0.3,8.1-0.4l0,0c0.5,0,1,0.4,1,1s-0.4,1-1,1C121.8,8,119.1,8.1,116.4,8.3C116.5,8.3,116.5,8.3,116.4,8.3z"/>
</g>
</svg>
