<?xml version="1.0" encoding="utf-8"?>
<!-- Generator: Adobe Illustrator 22.0.1, SVG Export Plug-In . SVG Version: 6.00 Build 0)  -->
<svg version="1.1" id="Layer_1" xmlns="http://www.w3.org/2000/svg" xmlns:xlink="http://www.w3.org/1999/xlink" x="0px" y="0px"
	 viewBox="0 0 249.4 245" style="enable-background:new 0 0 249.4 245;" xml:space="preserve">
<style type="text/css">
	
		.st0{fill:none;stroke:#F4A01E;stroke-width:2;stroke-linecap:round;stroke-linejoin:round;stroke-miterlimit:10;stroke-dasharray:8;}
	.st1{fill:#009EE2;}
</style>
<g>
	<path class="st0" d="M3,122.9"/>
</g>
<g>
	<path class="st1" d="M124.1,245.1c-1.8,0-3.7,0-5.5-0.1c-0.6,0-1-0.5-1-1c0-0.6,0.5-1,1-1c2.6,0.1,5.3,0.1,7.9,0.1c0.6,0,1,0.4,1,1
		s-0.4,1-1,1C125.9,245.1,125,245.1,124.1,245.1z M134.7,244.6c-0.5,0-0.9-0.4-1-0.9c0-0.6,0.4-1,0.9-1.1c2.6-0.2,5.3-0.5,7.9-0.9
		c0.6-0.1,1.1,0.3,1.1,0.8c0.1,0.5-0.3,1.1-0.8,1.1C140.1,244.1,137.4,244.4,134.7,244.6L134.7,244.6z M110.7,244.4h-0.1
		c-2.7-0.3-5.3-0.7-8-1.1c-0.5-0.1-0.9-0.6-0.8-1.2c0.1-0.5,0.6-0.9,1.2-0.8c2.6,0.5,5.2,0.8,7.9,1.1c0.5,0.1,0.9,0.6,0.9,1.1
		C111.7,244,111.2,244.4,110.7,244.4z M95,241.6c-0.1,0-0.2,0-0.2,0c-2.6-0.6-5.2-1.4-7.8-2.2c-0.5-0.2-0.8-0.7-0.6-1.3
		c0.2-0.5,0.7-0.8,1.3-0.6c2.5,0.8,5.1,1.5,7.6,2.2c0.5,0.1,0.9,0.7,0.7,1.2C95.8,241.3,95.4,241.6,95,241.6z M79.7,236.7
		c-0.1,0-0.2,0-0.4-0.1c-2.5-1-5-2.1-7.4-3.2c-0.5-0.2-0.7-0.8-0.5-1.3s0.8-0.7,1.3-0.5c2.4,1.1,4.8,2.2,7.3,3.2
		c0.5,0.2,0.8,0.8,0.6,1.3C80.5,236.5,80.1,236.7,79.7,236.7z M65.3,229.9c-0.2,0-0.3,0-0.5-0.1c-0.6-0.3-1.2-0.7-1.7-1
		s-0.6-0.9-0.4-1.4c0.3-0.5,0.9-0.6,1.4-0.4c0.6,0.3,1.1,0.7,1.7,1c0.5,0.3,0.7,0.9,0.4,1.4C66,229.7,65.6,229.9,65.3,229.9z"/>
</g>
<g>
	<path class="st1" d="M245.3,123.9c-0.6,0-1-0.4-1-1s0.4-1,1-1s1,0.4,1,1v0.1C246.3,123.5,245.9,123.9,245.3,123.9z M245,115.8
		c-0.5,0-1-0.4-1-0.9c-0.2-2.6-0.4-5.3-0.8-7.9c-0.1-0.5,0.3-1,0.9-1.1c0.5-0.1,1,0.3,1.1,0.9c0.4,2.7,0.6,5.3,0.8,8
		C246.1,115.3,245.7,115.8,245,115.8C245.1,115.8,245.1,115.8,245,115.8z M242.9,100c-0.5,0-0.9-0.3-1-0.8c-0.5-2.6-1.1-5.2-1.8-7.7
		c-0.1-0.5,0.2-1.1,0.7-1.2s1.1,0.2,1.2,0.7c0.7,2.6,1.3,5.2,1.8,7.8c0.1,0.5-0.2,1.1-0.8,1.2C243,100,243,100,242.9,100z M6.3,95.7
		c-0.1,0-0.2,0-0.2,0c-0.5-0.1-0.9-0.7-0.7-1.2c0.6-2.6,1.3-5.2,2.1-7.8c0.2-0.5,0.7-0.8,1.3-0.7c0.5,0.2,0.8,0.7,0.7,1.3
		c-0.8,2.5-1.5,5.1-2.1,7.6C7.2,95.4,6.8,95.7,6.3,95.7z M238.7,84.6c-0.4,0-0.8-0.3-0.9-0.7c-0.9-2.5-1.8-5-2.8-7.4
		c-0.2-0.5,0-1.1,0.5-1.3c0.5-0.2,1.1,0,1.3,0.5c1,2.5,2,5,2.9,7.5c0.2,0.5-0.1,1.1-0.6,1.3C239,84.5,238.9,84.6,238.7,84.6z
		 M11.1,80.4c-0.1,0-0.2,0-0.4-0.1c-0.5-0.2-0.8-0.8-0.6-1.3c1-2.5,2-5,3.2-7.4c0.2-0.5,0.8-0.7,1.3-0.5s0.7,0.8,0.5,1.3
		c-1.1,2.4-2.2,4.8-3.1,7.3C11.8,80.2,11.5,80.4,11.1,80.4z M232.6,69.8c-0.4,0-0.7-0.2-0.9-0.6c-0.5-1.1-1.1-2.1-1.6-3.1
		c-0.7-1.3-1.4-2.6-2.2-3.8c-0.3-0.5-0.1-1.1,0.4-1.4s1.1-0.1,1.4,0.4c0.7,1.3,1.5,2.6,2.2,3.9c0.6,1.1,1.1,2.1,1.7,3.2
		c0.2,0.5,0,1.1-0.4,1.3C232.9,69.8,232.7,69.8,232.6,69.8z M17.8,65.9c-0.2,0-0.3,0-0.5-0.1c-0.5-0.3-0.7-0.9-0.4-1.4
		c1.3-2.3,2.7-4.7,4.1-6.9c0.3-0.5,0.9-0.6,1.4-0.3c0.5,0.3,0.6,0.9,0.3,1.4c-1.4,2.2-2.8,4.5-4,6.8C18.5,65.7,18.2,65.9,17.8,65.9z
		 M224.5,56c-0.3,0-0.6-0.2-0.8-0.4c-1.5-2.2-3.1-4.3-4.7-6.4c-0.3-0.4-0.3-1.1,0.2-1.4c0.4-0.3,1.1-0.3,1.4,0.2
		c1.7,2.1,3.3,4.3,4.8,6.5c0.3,0.5,0.2,1.1-0.3,1.4C224.9,56,224.7,56,224.5,56z M26.4,52.4c-0.2,0-0.4-0.1-0.6-0.2
		c-0.4-0.3-0.5-1-0.2-1.4c1.6-2.2,3.3-4.3,5-6.3c0.4-0.4,1-0.5,1.4-0.1s0.5,1,0.1,1.4c-1.7,2-3.3,4.1-4.9,6.2
		C27,52.3,26.7,52.4,26.4,52.4z M214.6,43.4c-0.3,0-0.5-0.1-0.7-0.3c-1.8-2-3.6-3.9-5.5-5.7c-0.4-0.4-0.4-1,0-1.4s1-0.4,1.4,0
		c1.9,1.9,3.8,3.8,5.6,5.8c0.4,0.4,0.3,1-0.1,1.4C215.1,43.3,214.9,43.4,214.6,43.4z M36.7,40.2c-0.2,0-0.5-0.1-0.7-0.3
		c-0.4-0.4-0.4-1,0-1.4c1.8-1.9,3.8-3.8,5.8-5.6c0.4-0.4,1-0.3,1.4,0.1s0.3,1-0.1,1.4c-1.9,1.8-3.8,3.7-5.7,5.6
		C37.2,40.1,36.9,40.2,36.7,40.2z M203.2,32.2c-0.2,0-0.5-0.1-0.7-0.2c-2-1.7-4.1-3.4-6.2-5c-0.4-0.3-0.5-1-0.2-1.4s1-0.5,1.4-0.2
		c2.1,1.6,4.3,3.3,6.3,5.1c0.4,0.4,0.5,1,0.1,1.4C203.8,32.1,203.5,32.2,203.2,32.2z M48.4,29.4c-0.3,0-0.6-0.1-0.8-0.4
		c-0.3-0.4-0.3-1.1,0.2-1.4c2.1-1.7,4.3-3.3,6.4-4.8c0.5-0.3,1.1-0.2,1.4,0.2c0.3,0.5,0.2,1.1-0.2,1.4c-2.2,1.5-4.3,3.1-6.3,4.8
		C48.9,29.3,48.7,29.4,48.4,29.4z M190.5,22.6c-0.2,0-0.4-0.1-0.5-0.2c-2.2-1.4-4.5-2.8-6.8-4.1c-0.5-0.3-0.6-0.9-0.4-1.4
		c0.3-0.5,0.9-0.6,1.4-0.4c2.3,1.3,4.6,2.7,6.9,4.2c0.5,0.3,0.6,0.9,0.3,1.4C191.1,22.4,190.8,22.6,190.5,22.6z M61.5,20.2
		c-0.3,0-0.7-0.2-0.9-0.5c-0.3-0.5-0.1-1.1,0.3-1.4c0.5-0.3,1-0.6,1.4-0.9c1.8-1.1,3.7-2.1,5.6-3.1c0.5-0.3,1.1-0.1,1.3,0.4
		c0.3,0.5,0.1,1.1-0.4,1.3c-1.9,1-3.7,2-5.5,3c-0.5,0.3-1,0.6-1.4,0.8C61.9,20.1,61.7,20.2,61.5,20.2z M176.6,14.7
		c-0.1,0-0.3,0-0.4-0.1c-2.4-1.1-4.8-2.2-7.3-3.2c-0.5-0.2-0.8-0.8-0.6-1.3s0.8-0.8,1.3-0.6c2.5,1,5,2.1,7.4,3.3
		c0.5,0.2,0.7,0.8,0.5,1.3C177.3,14.5,176.9,14.7,176.6,14.7z M75.7,12.9c-0.4,0-0.8-0.2-0.9-0.6c-0.2-0.5,0-1.1,0.5-1.3
		c2.5-1.1,5-2.1,7.5-3c0.5-0.2,1.1,0.1,1.3,0.6S84,9.7,83.5,9.9c-2.5,0.9-5,1.9-7.4,2.9C76,12.8,75.9,12.9,75.7,12.9z M161.7,8.7
		c-0.1,0-0.2,0-0.3,0c-0.8-0.3-1.6-0.5-2.4-0.8c-1.7-0.5-3.5-1-5.2-1.4c-0.5-0.1-0.9-0.7-0.7-1.2c0.1-0.5,0.7-0.9,1.2-0.7
		c1.8,0.4,3.5,0.9,5.3,1.5c0.8,0.2,1.6,0.5,2.5,0.8c0.5,0.2,0.8,0.7,0.6,1.3C162.6,8.5,162.2,8.7,161.7,8.7z M90.8,7.5
		c-0.4,0-0.8-0.3-1-0.7c-0.2-0.5,0.2-1.1,0.7-1.2c2.6-0.7,5.2-1.4,7.8-1.9c0.5-0.1,1.1,0.2,1.2,0.8c0.1,0.5-0.2,1.1-0.8,1.2
		c-2.6,0.6-5.2,1.2-7.7,1.9C91,7.5,90.9,7.5,90.8,7.5z M146.2,4.8c-0.1,0-0.1,0-0.2,0c-2.6-0.5-5.2-0.9-7.8-1.2
		c-0.5-0.1-0.9-0.6-0.9-1.1c0.1-0.5,0.6-0.9,1.1-0.9c2.7,0.3,5.3,0.7,8,1.2c0.5,0.1,0.9,0.6,0.8,1.2C147.1,4.5,146.7,4.8,146.2,4.8z
		 M106.4,4.1c-0.5,0-0.9-0.4-1-0.9s0.3-1.1,0.8-1.1c2.7-0.4,5.3-0.7,8-0.9c0.6,0,1,0.4,1.1,0.9c0,0.6-0.4,1-0.9,1.1
		c-2.6,0.2-5.3,0.5-7.9,0.9C106.5,4.1,106.5,4.1,106.4,4.1z M130.4,3C130.3,3,130.3,3,130.4,3c-2.1-0.1-4.2-0.2-6.2-0.1
		c-0.6,0-1.2,0-1.8,0l0,0c-0.5,0-1-0.4-1-1s0.4-1,1-1c0.7,0,1.3,0,2,0c2,0,4.1,0,6.1,0.1c0.6,0,1,0.5,0.9,1S130.9,3,130.4,3z"/>
</g>
<g>
	<path class="st1" d="M245.3,125.4c-1.4,0-2.5-1.1-2.5-2.5c0-19.6-4.9-39-14.1-56.1c-14.8-27.5-40.4-48.5-70.2-57.5
		c-1.3-0.4-2.1-1.8-1.7-3.1c0.4-1.3,1.8-2.1,3.1-1.7c31,9.4,57.7,31.2,73.1,59.9c9.6,17.9,14.7,38.1,14.7,58.5
		C247.8,124.3,246.7,125.4,245.3,125.4z"/>
</g>
<g>
	<path class="st1" d="M6.3,97.2c-0.2,0-0.4,0-0.6-0.1c-1.3-0.3-2.2-1.7-1.9-3c7.8-32.5,28.8-60.9,57.8-77.9c1.2-0.7,2.7-0.3,3.4,0.9
		c0.7,1.2,0.3,2.7-0.9,3.4c-27.8,16.3-48,43.6-55.5,74.8C8.5,96.4,7.4,97.2,6.3,97.2z"/>
</g>
<g>
	<path class="st1" d="M199.7,220.1c-0.7,0-1.5-0.3-2-0.9c-0.9-1.1-0.7-2.7,0.4-3.5c28.4-22.7,44.6-56.5,44.6-92.7
		c0-1.4,1.1-2.5,2.5-2.5s2.5,1.1,2.5,2.5c0,37.8-17,73-46.5,96.6C200.8,219.9,200.3,220.1,199.7,220.1z"/>
</g>
<g>
	<path class="st0" d="M7.4,90.3"/>
</g>
</svg>
