<?xml version="1.0" encoding="utf-8"?>
<!-- Generator: Adobe Illustrator 22.0.1, SVG Export Plug-In . SVG Version: 6.00 Build 0)  -->
<svg version="1.1" id="_x39_" xmlns="http://www.w3.org/2000/svg" xmlns:xlink="http://www.w3.org/1999/xlink" x="0px" y="0px"
	 viewBox="0 0 346.4 270.6" style="enable-background:new 0 0 346.4 270.6;" xml:space="preserve">
<style type="text/css">
	.st0{fill:#F47A00;}
	.st1{opacity:0.8;}
	.st2{fill:#009EE2;}
	.st3{fill:#FFC10D;}
</style>
<g>
	<g>
		<path class="st0" d="M69.5,116.9c5.7,57,93.2,157.6,151.9,151.7s66.4-116.1,60.7-173.1c-5.7-57-58-98.4-116.7-92.5
			C106.7,9,63.7,59.9,69.5,116.9z"/>
	</g>
</g>
<g class="st1">
	<g>
		<path class="st2" d="M31.4,219.4c17.2,37.1,95.3,49.3,159.8,38.8s166.6-58.4,152.5-144.9c-5.5-33.7-41.2-94.1-174.4-54.3
			C95.4,81,7.6,168.2,31.4,219.4z"/>
	</g>
</g>
<g class="st1">
	<path class="st3" d="M1.7,110c0,64.5,116.1,134.9,180.1,134.9S314.6,174.5,314.6,110S287.7,1.8,193.1,50.7
		C136.2,80.1,1.7,45.5,1.7,110z"/>
</g>
</svg>
