<?xml version="1.0" encoding="utf-8"?>
<!-- Generator: Adobe Illustrator 22.0.1, SVG Export Plug-In . SVG Version: 6.00 Build 0)  -->
<svg version="1.1" id="Layer_1" xmlns="http://www.w3.org/2000/svg" xmlns:xlink="http://www.w3.org/1999/xlink" x="0px" y="0px"
	 viewBox="0 0 46.2 158.4" style="enable-background:new 0 0 46.2 158.4;" xml:space="preserve" height="160px" width="45px">
<style type="text/css">
	.st0{fill:url(#SVGID_1_);}
</style>
<g>
	<g>
		<linearGradient id="SVGID_1_" gradientUnits="userSpaceOnUse" x1="6.780526e-02" y1="2.694" x2="84.8696" y2="195.7535">
			<stop  offset="0.3436" style="stop-color:#00AAE7"/>
			<stop  offset="0.9949" style="stop-color:#0080C5"/>
		</linearGradient>
		<path class="st0" d="M44.3,0.6c0.9,0,1.3,0.3,1.3,0.9v153.7c0,0.4-0.4,0.8-1.1,1.1c-4.1,0.9-7.7,1.3-10.9,1.3
			c-4.2,0-8.1-0.4-11.6-1.3c-0.7-0.3-1-0.7-0.9-1.1V45.7c0-6.1-1.1-10.9-3.2-14.2c-2.1-3.4-4.5-5.3-7.1-5.8c-2.6-0.5-5-1.1-7.1-1.6
			c-2.1-0.6-3.2-1.5-3.2-2.6c0-1.3,1-2.3,3-3c2-0.7,5.8-2.3,11.6-5C20.8,10.7,27,6.8,33.5,1.6c0.7-0.7,1.5-1.1,2.2-1.1H44.3z"/>
	</g>
</g>
</svg>
