<?xml version="1.0" encoding="utf-8"?>
<!-- Generator: Adobe Illustrator 22.0.1, SVG Export Plug-In . SVG Version: 6.00 Build 0)  -->
<svg version="1.1" id="Layer_1" xmlns="http://www.w3.org/2000/svg" xmlns:xlink="http://www.w3.org/1999/xlink" x="0px" y="0px"
	 viewBox="0 0 271.4 273.5" style="enable-background:new 0 0 271.4 273.5;" xml:space="preserve">
<style type="text/css">
	.st0{fill:#009EE2;stroke:#009EE2;stroke-width:2;stroke-miterlimit:10;}
	.st1{fill:#009EE2;stroke:#009EE2;stroke-width:24;stroke-miterlimit:10;}
</style>
<g>
	<path class="st0" d="M15.2,137.4c-0.6,0-1-0.4-1-1c0-2.7,0.1-5.4,0.3-8.1c0-0.6,0.5-1,1.1-0.9c0.6,0,1,0.5,0.9,1.1
		c-0.2,2.6-0.3,5.3-0.3,7.9C16.2,136.9,15.8,137.4,15.2,137.4z M16.3,121.4h-0.1c-0.5-0.1-0.9-0.6-0.9-1.1c0.4-2.6,0.8-5.3,1.3-8
		c0.1-0.5,0.6-0.9,1.2-0.8c0.5,0.1,0.9,0.6,0.8,1.2c-0.5,2.6-1,5.2-1.3,7.8C17.2,121.1,16.8,121.4,16.3,121.4z M19.5,105.8
		c-0.1,0-0.2,0-0.3,0c-0.5-0.1-0.8-0.7-0.7-1.2c0.7-2.6,1.5-5.2,2.4-7.7c0.2-0.5,0.7-0.8,1.3-0.6c0.5,0.2,0.8,0.7,0.6,1.3
		c-0.9,2.5-1.6,5.1-2.3,7.6C20.3,105.5,19.9,105.8,19.5,105.8z M252.1,101.4c-0.4,0-0.8-0.3-1-0.7c-0.8-2.5-1.7-5-2.6-7.5
		c-0.2-0.5,0.1-1.1,0.6-1.3c0.5-0.2,1.1,0.1,1.3,0.6c1,2.5,1.9,5.1,2.7,7.6c0.2,0.5-0.1,1.1-0.7,1.3
		C252.3,101.3,252.2,101.4,252.1,101.4z M24.7,90.6c-0.1,0-0.3,0-0.4-0.1c-0.5-0.2-0.8-0.8-0.5-1.3c1-2.5,2.2-4.9,3.4-7.3
		c0.2-0.5,0.8-0.7,1.3-0.5s0.7,0.8,0.5,1.3c-1.2,2.4-2.3,4.8-3.3,7.2C25.4,90.4,25.1,90.6,24.7,90.6z M246.3,86.4
		c-0.4,0-0.7-0.2-0.9-0.6c-1.1-2.4-2.3-4.8-3.6-7.1c-0.3-0.5-0.1-1.1,0.4-1.4s1.1-0.1,1.4,0.4c1.3,2.4,2.5,4.8,3.6,7.2
		c0.2,0.5,0,1.1-0.5,1.3C246.6,86.4,246.5,86.4,246.3,86.4z M31.8,76.3c-0.2,0-0.3,0-0.5-0.1c-0.5-0.3-0.6-0.9-0.4-1.4
		c1.3-2.3,2.8-4.6,4.3-6.8c0.3-0.5,0.9-0.6,1.4-0.3c0.5,0.3,0.6,0.9,0.3,1.4c-1.5,2.2-2.9,4.5-4.2,6.7
		C32.5,76.2,32.1,76.3,31.8,76.3z M238.7,72.4c-0.3,0-0.7-0.2-0.8-0.5c-1.4-2.2-2.9-4.4-4.5-6.5c-0.3-0.4-0.2-1.1,0.2-1.4
		s1.1-0.2,1.4,0.2c1.6,2.2,3.1,4.4,4.6,6.7c0.3,0.5,0.2,1.1-0.3,1.4C239,72.4,238.8,72.4,238.7,72.4z M40.7,63.1
		c-0.2,0-0.4-0.1-0.6-0.2c-0.4-0.3-0.5-1-0.2-1.4c1.6-2.1,3.4-4.2,5.1-6.2c0.4-0.4,1-0.5,1.4-0.1s0.4,1,0.1,1.4
		c-1.7,2-3.5,4-5.1,6.1C41.3,62.9,41,63.1,40.7,63.1z M229.2,59.5c-0.3,0-0.6-0.1-0.8-0.4c-1.7-2-3.5-4-5.3-5.9
		c-0.4-0.4-0.4-1,0-1.4s1-0.4,1.4,0c1.8,1.9,3.7,3.9,5.4,6c0.4,0.4,0.3,1.1-0.1,1.4C229.7,59.4,229.4,59.5,229.2,59.5z M51.3,51.1
		c-0.3,0-0.5-0.1-0.7-0.3c-0.4-0.4-0.4-1,0-1.4c1.9-1.9,3.9-3.7,5.9-5.5c0.4-0.4,1-0.3,1.4,0.1s0.3,1-0.1,1.4c-2,1.7-4,3.5-5.8,5.4
		C51.9,51,51.6,51.1,51.3,51.1z M218.2,48c-0.2,0-0.5-0.1-0.7-0.3c-1.9-1.8-4-3.5-6-5.2c-0.4-0.3-0.5-1-0.2-1.4s1-0.5,1.4-0.2
		c2.1,1.7,4.2,3.4,6.1,5.2c0.4,0.4,0.4,1,0.1,1.4C218.7,47.9,218.4,48,218.2,48z M63.5,40.7c-0.3,0-0.6-0.1-0.8-0.4
		c-0.3-0.4-0.2-1.1,0.2-1.4c2.1-1.6,4.4-3.2,6.6-4.6c0.5-0.3,1.1-0.2,1.4,0.3s0.2,1.1-0.3,1.4c-2.2,1.4-4.4,3-6.5,4.6
		C63.9,40.6,63.7,40.7,63.5,40.7z M205.7,38c-0.2,0-0.4-0.1-0.6-0.2c-2.2-1.5-4.4-2.9-6.7-4.3c-0.5-0.3-0.6-0.9-0.3-1.4
		c0.3-0.5,0.9-0.6,1.4-0.3c2.3,1.4,4.6,2.9,6.8,4.4c0.5,0.3,0.6,0.9,0.3,1.4C206.3,37.9,206,38,205.7,38z M76.8,31.9
		c-0.3,0-0.7-0.2-0.9-0.5c-0.3-0.5-0.1-1.1,0.4-1.4c2.3-1.3,4.7-2.6,7.2-3.7c0.5-0.2,1.1,0,1.3,0.5c0.2,0.5,0,1.1-0.5,1.3
		c-2.4,1.1-4.7,2.4-7,3.7C77.2,31.9,77,31.9,76.8,31.9z M192,29.8c-0.2,0-0.3,0-0.5-0.1c-2.3-1.2-4.8-2.3-7.2-3.4
		c-0.5-0.2-0.7-0.8-0.5-1.3s0.8-0.7,1.3-0.5c2.5,1.1,4.9,2.2,7.3,3.5c0.5,0.3,0.7,0.9,0.4,1.3C192.7,29.6,192.3,29.8,192,29.8z
		 M91.3,25c-0.4,0-0.8-0.2-0.9-0.6c-0.2-0.5,0-1.1,0.6-1.3c2.5-1,5-1.9,7.6-2.8c0.5-0.2,1.1,0.1,1.3,0.6c0.2,0.5-0.1,1.1-0.6,1.3
		c-2.5,0.8-5,1.7-7.5,2.7C91.5,25,91.4,25,91.3,25z M177.3,23.4c-0.1,0-0.2,0-0.3-0.1c-2.5-0.9-5-1.7-7.6-2.4
		c-0.5-0.2-0.8-0.7-0.7-1.2c0.2-0.5,0.7-0.8,1.2-0.7c2.6,0.7,5.2,1.6,7.7,2.5c0.5,0.2,0.8,0.8,0.6,1.3
		C178.1,23.1,177.7,23.4,177.3,23.4z M106.4,20c-0.4,0-0.9-0.3-1-0.8s0.2-1.1,0.7-1.2c2.6-0.7,5.2-1.3,7.9-1.7
		c0.5-0.1,1.1,0.3,1.2,0.8s-0.3,1.1-0.8,1.2c-2.6,0.5-5.2,1.1-7.7,1.7C106.6,20,106.5,20,106.4,20z M161.9,19c-0.1,0-0.1,0-0.2,0
		c-2.6-0.6-5.2-1-7.8-1.4c-0.5-0.1-0.9-0.6-0.8-1.1s0.6-0.9,1.1-0.8c2.6,0.4,5.3,0.9,7.9,1.4c0.5,0.1,0.9,0.6,0.8,1.2
		C162.8,18.7,162.4,19,161.9,19z M122.2,17.1c-0.5,0-0.9-0.4-1-0.9c-0.1-0.5,0.3-1,0.9-1.1c2.7-0.3,5.4-0.5,8-0.7
		c0.5,0,1,0.4,1.1,0.9c0,0.6-0.4,1-0.9,1.1c-2.6,0.1-5.3,0.4-7.9,0.7C122.2,17.1,122.2,17.1,122.2,17.1z M146.1,16.6L146.1,16.6
		c-2.7-0.2-5.4-0.3-8-0.4c-0.6,0-1-0.5-1-1s0.5-1,1-1l0,0c2.7,0,5.4,0.2,8.1,0.4c0.6,0,1,0.5,0.9,1.1
		C147.1,16.2,146.6,16.6,146.1,16.6z"/>
</g>
<g>
	<path class="st1" d="M256.5,122.8c-1.2,0-2.3-0.9-2.5-2.2c-1.4-10.7-4.3-21.2-8.6-31.1c-0.5-1.3,0-2.7,1.3-3.3
		c1.3-0.5,2.7,0,3.3,1.3c4.5,10.3,7.5,21.3,8.9,32.4c0.2,1.4-0.8,2.6-2.2,2.8C256.7,122.8,256.6,122.8,256.5,122.8z"/>
</g>
<g>
	<path class="st1" d="M15.2,138.9c-1.4,0-2.5-1.1-2.5-2.5c0-68.2,55.5-123.7,123.7-123.7c1.4,0,2.5,1.1,2.5,2.5s-1.1,2.5-2.5,2.5
		C71,17.7,17.7,70.9,17.7,136.4C17.7,137.8,16.6,138.9,15.2,138.9z"/>
</g>
<g>
	<path class="st1" d="M136.4,261.1c-1.4,0-2.5-1.1-2.5-2.5s1.1-2.5,2.5-2.5c30.5,0,59.6-11.6,81.7-32.6c1-1,2.6-0.9,3.5,0.1
		c1,1,0.9,2.6-0.1,3.5C198.5,249,168.2,261.1,136.4,261.1z"/>
</g>
<g>
	<path class="st0" d="M72,244.9c-0.2,0-0.5,0-0.7-0.2c-2.2-1.5-4.5-3-6.6-4.6c-0.4-0.3-0.5-1-0.2-1.4s1-0.5,1.4-0.2
		c2.1,1.6,4.3,3.1,6.5,4.5c0.5,0.3,0.6,0.9,0.3,1.4C72.5,244.7,72.3,244.9,72,244.9z M59.2,235.3c-0.3,0-0.5,0-0.8-0.2
		c-2-1.7-4-3.6-6-5.4c-0.4-0.4-0.4-1,0-1.4s1-0.4,1.4,0c1.9,1.8,3.8,3.6,5.9,5.4c0.4,0.4,0.5,1,0.1,1.4
		C59.6,235.2,59.4,235.3,59.2,235.3z M47.7,224.2c-0.3,0-0.6-0.1-0.9-0.3c-1.8-2-3.5-4.1-5.2-6.2c-0.3-0.4-0.3-1.1,0.2-1.4
		c0.4-0.3,1.1-0.3,1.4,0.2c1.6,2.1,3.3,4.1,5.1,6.1c0.4,0.4,0.3,1-0.1,1.4C48.1,224,47.9,224.1,47.7,224.2z M37.9,211.6
		c-0.4,0-0.7-0.1-0.9-0.4c-1.5-2.2-3-4.5-4.3-6.8c-0.3-0.5-0.1-1.1,0.4-1.4c0.5-0.3,1.1-0.1,1.4,0.4c1.3,2.3,2.8,4.5,4.3,6.7
		c0.3,0.5,0.2,1.1-0.3,1.4C38.2,211.5,38,211.6,37.9,211.6z M29.7,197.8c-0.4,0-0.8-0.2-1-0.5c-1.2-2.4-2.3-4.9-3.4-7.3
		c-0.2-0.5,0-1.1,0.5-1.3c0.5-0.2,1.1,0,1.3,0.5c1,2.4,2.1,4.8,3.3,7.2c0.2,0.5,0.1,1.1-0.4,1.3C30,197.8,29.9,197.8,29.7,197.8z
		 M23.5,183.1c-0.5,0.1-0.9-0.2-1.1-0.7c-0.9-2.5-1.7-5.1-2.4-7.7c-0.1-0.5,0.2-1.1,0.7-1.2s1.1,0.2,1.2,0.7
		c0.7,2.5,1.5,5.1,2.3,7.6c0.2,0.5-0.1,1.1-0.6,1.3C23.7,183.1,23.6,183.1,23.5,183.1z M19.3,167.7c-0.5,0.1-1-0.3-1.1-0.8
		c-0.5-2.6-1-5.3-1.4-7.9c-0.1-0.5,0.3-1.1,0.9-1.1l0,0c0.5-0.1,1,0.3,1.1,0.9c0.4,2.6,0.8,5.2,1.3,7.8
		C20.3,167,19.9,167.6,19.3,167.7C19.4,167.7,19.3,167.7,19.3,167.7z M17.1,151.9L17.1,151.9c-0.6,0-1.1-0.4-1.1-0.9
		c-0.2-2.7-0.3-5.4-0.3-8.1c0-0.6,0.4-1,1-1s1,0.4,1,1c0,2.6,0.1,5.3,0.3,7.9C18,151.3,17.7,151.8,17.1,151.9z M17,135.9
		c-0.1,0-0.1,0-0.2,0c-0.6,0-1-0.5-0.9-1.1c0.2-2.7,0.4-5.4,0.8-8c0.1-0.5,0.6-0.9,1.1-0.9c0.5,0.1,0.9,0.6,0.9,1.1
		c-0.3,2.6-0.6,5.3-0.7,7.9C17.9,135.4,17.5,135.8,17,135.9z M19.1,120c-0.1,0-0.2,0-0.3,0c-0.5-0.1-0.9-0.6-0.8-1.2
		c0.5-2.6,1.1-5.3,1.8-7.9c0.1-0.5,0.7-0.9,1.2-0.7c0.5,0.1,0.9,0.7,0.7,1.2c-0.7,2.5-1.3,5.2-1.8,7.7C19.8,119.7,19.5,120,19.1,120
		z M23.2,104.5c-0.1,0-0.3,0-0.4,0c-0.5-0.2-0.8-0.7-0.6-1.3c0.9-2.5,1.8-5.1,2.8-7.6c0.2-0.5,0.8-0.8,1.3-0.5
		c0.5,0.2,0.8,0.8,0.5,1.3c-1,2.4-2,4.9-2.8,7.4C23.9,104.3,23.5,104.5,23.2,104.5z M29.3,89.8c-0.2,0-0.4,0-0.6-0.1
		c-0.5-0.2-0.7-0.8-0.5-1.3c1.2-2.4,2.5-4.8,3.8-7.1c0.3-0.5,0.9-0.6,1.4-0.4c0.5,0.3,0.6,0.9,0.4,1.4c-1.3,2.3-2.6,4.6-3.7,7
		C29.9,89.5,29.6,89.7,29.3,89.8z M37.3,75.9c-0.2,0-0.5,0-0.7-0.2c-0.5-0.3-0.6-0.9-0.3-1.4c1.5-2.2,3.1-4.4,4.7-6.5
		c0.3-0.4,1-0.5,1.4-0.2s0.5,1,0.2,1.4c-1.6,2.1-3.2,4.3-4.6,6.4C37.8,75.7,37.6,75.9,37.3,75.9z M47,63.3c-0.3,0-0.5,0-0.8-0.2
		c-0.4-0.4-0.5-1-0.1-1.4c1.8-2,3.6-4,5.5-5.9c0.4-0.4,1-0.4,1.4,0s0.4,1,0,1.4c-1.9,1.9-3.7,3.8-5.4,5.8
		C47.5,63.1,47.3,63.2,47,63.3z M58.4,52c-0.3,0-0.6-0.1-0.9-0.3c-0.4-0.4-0.3-1,0.1-1.4c2-1.8,4.1-3.5,6.2-5.1
		c0.4-0.3,1.1-0.3,1.4,0.2c0.3,0.4,0.3,1.1-0.2,1.4c-2.1,1.6-4.2,3.3-6.1,5C58.7,51.9,58.6,51.9,58.4,52z M71.1,42.3
		c-0.4,0-0.7-0.1-0.9-0.4c-0.3-0.5-0.2-1.1,0.3-1.4c2.2-1.5,4.5-2.9,6.9-4.2c0.5-0.3,1.1-0.1,1.4,0.4s0.1,1.1-0.4,1.4
		c-2.3,1.3-4.5,2.7-6.7,4.2C71.4,42.2,71.2,42.3,71.1,42.3z M84.9,34.4c-0.4,0-0.8-0.2-1-0.6c-0.2-0.5,0-1.1,0.5-1.3
		c2.4-1.2,4.9-2.3,7.4-3.3c0.5-0.2,1.1,0,1.3,0.5c0.2,0.5,0,1.1-0.5,1.3c-2.4,1-4.9,2.1-7.2,3.2C85.1,34.3,85,34.3,84.9,34.4z
		 M99.7,28.3c-0.5,0.1-0.9-0.2-1.1-0.7s0.1-1.1,0.6-1.3c2.5-0.8,5.1-1.6,7.7-2.3c0.5-0.1,1.1,0.2,1.2,0.7s-0.2,1.1-0.7,1.2
		c-2.6,0.7-5.1,1.4-7.6,2.2C99.8,28.3,99.8,28.3,99.7,28.3z M115.2,24.3c-0.5,0.1-1-0.3-1.1-0.8s0.3-1.1,0.8-1.2
		c2.6-0.5,5.3-0.9,8-1.2l0,0c0.5-0.1,1,0.3,1.1,0.9c0.1,0.5-0.3,1-0.9,1.1C120.5,23.4,117.8,23.8,115.2,24.3L115.2,24.3z"/>
</g>
</svg>
