<?xml version="1.0" encoding="utf-8"?>
<!-- Generator: Adobe Illustrator 22.0.1, SVG Export Plug-In . SVG Version: 6.00 Build 0)  -->
<svg version="1.1" id="Layer_1" xmlns="http://www.w3.org/2000/svg" xmlns:xlink="http://www.w3.org/1999/xlink" x="0px" y="0px"
	 viewBox="0 0 271.9 273.6" style="enable-background:new 0 0 271.9 273.6;" xml:space="preserve">
<style type="text/css">
	.st0{display:none;}
	.st1{display:inline;fill:#009EE2;stroke:#009EE2;stroke-width:2;stroke-miterlimit:10;}
	.st2{fill:#009EE2;stroke:#009EE2;stroke-width:24;stroke-miterlimit:10;}
</style>
<g class="st0">
	<path class="st1" d="M15.7,137.9c-0.6,0-1-0.4-1-1c0-2.7,0.1-5.4,0.3-8.1c0-0.6,0.5-1,1.1-0.9c0.6,0,1,0.5,0.9,1.1
		c-0.2,2.6-0.3,5.3-0.3,7.9C16.7,137.4,16.3,137.9,15.7,137.9z M16.8,121.9h-0.1c-0.5-0.1-0.9-0.6-0.9-1.1c0.4-2.6,0.8-5.3,1.3-8
		c0.1-0.5,0.6-0.9,1.2-0.8c0.5,0.1,0.9,0.6,0.8,1.2c-0.5,2.6-1,5.2-1.3,7.8C17.7,121.5,17.3,121.9,16.8,121.9z M20,106.2
		c-0.1,0-0.2,0-0.3,0c-0.5-0.1-0.8-0.7-0.7-1.2c0.7-2.6,1.5-5.2,2.4-7.7c0.2-0.5,0.7-0.8,1.3-0.6c0.5,0.2,0.8,0.7,0.6,1.3
		c-0.9,2.5-1.6,5.1-2.3,7.6C20.8,105.9,20.4,106.2,20,106.2z M252.6,101.8c-0.4,0-0.8-0.3-1-0.7c-0.8-2.5-1.7-5-2.6-7.5
		c-0.2-0.5,0.1-1.1,0.6-1.3c0.5-0.2,1.1,0.1,1.3,0.6c1,2.5,1.9,5.1,2.7,7.6c0.2,0.5-0.1,1.1-0.7,1.3
		C252.8,101.8,252.7,101.8,252.6,101.8z M25.2,91.1c-0.1,0-0.3,0-0.4-0.1c-0.5-0.2-0.8-0.8-0.5-1.3c1-2.5,2.2-4.9,3.4-7.3
		c0.2-0.5,0.8-0.7,1.3-0.5s0.7,0.8,0.5,1.3c-1.2,2.4-2.3,4.8-3.3,7.2C25.9,90.9,25.6,91.1,25.2,91.1z M246.8,86.9
		c-0.4,0-0.7-0.2-0.9-0.6c-1.1-2.4-2.3-4.8-3.6-7.1c-0.3-0.5-0.1-1.1,0.4-1.4s1.1-0.1,1.4,0.4c1.3,2.4,2.5,4.8,3.6,7.2
		c0.2,0.5,0,1.1-0.5,1.3C247.1,86.9,247,86.9,246.8,86.9z M32.3,76.8c-0.2,0-0.3,0-0.5-0.1c-0.5-0.3-0.6-0.9-0.4-1.4
		c1.3-2.3,2.8-4.6,4.3-6.8c0.3-0.5,0.9-0.6,1.4-0.3c0.5,0.3,0.6,0.9,0.3,1.4c-1.5,2.2-2.9,4.5-4.2,6.7C33,76.6,32.6,76.8,32.3,76.8z
		 M239.2,72.9c-0.3,0-0.7-0.2-0.8-0.5c-1.4-2.2-2.9-4.4-4.5-6.5c-0.3-0.4-0.2-1.1,0.2-1.4s1.1-0.2,1.4,0.2c1.6,2.2,3.1,4.4,4.6,6.7
		c0.3,0.5,0.2,1.1-0.3,1.4C239.5,72.8,239.3,72.9,239.2,72.9z M41.2,63.5c-0.2,0-0.4-0.1-0.6-0.2c-0.4-0.3-0.5-1-0.2-1.4
		c1.6-2.1,3.4-4.2,5.1-6.2c0.4-0.4,1-0.5,1.4-0.1s0.4,1,0.1,1.4c-1.7,2-3.5,4-5.1,6.1C41.8,63.4,41.5,63.5,41.2,63.5z M229.7,60
		c-0.3,0-0.6-0.1-0.8-0.4c-1.7-2-3.5-4-5.3-5.9c-0.4-0.4-0.4-1,0-1.4s1-0.4,1.4,0c1.8,1.9,3.7,3.9,5.4,6c0.4,0.4,0.3,1.1-0.1,1.4
		C230.2,59.9,229.9,60,229.7,60z M51.8,51.6c-0.3,0-0.5-0.1-0.7-0.3c-0.4-0.4-0.4-1,0-1.4C53,48,55,46.2,57,44.4
		c0.4-0.4,1-0.3,1.4,0.1c0.4,0.4,0.3,1-0.1,1.4c-2,1.7-4,3.5-5.8,5.4C52.4,51.5,52.1,51.6,51.8,51.6z M218.7,48.4
		c-0.2,0-0.5-0.1-0.7-0.3c-1.9-1.8-4-3.5-6-5.2c-0.4-0.3-0.5-1-0.2-1.4s1-0.5,1.4-0.2c2.1,1.7,4.2,3.4,6.1,5.2
		c0.4,0.4,0.4,1,0.1,1.4C219.2,48.3,218.9,48.4,218.7,48.4z M64,41.1c-0.3,0-0.6-0.1-0.8-0.4c-0.3-0.4-0.2-1.1,0.2-1.4
		c2.1-1.6,4.4-3.2,6.6-4.6c0.5-0.3,1.1-0.2,1.4,0.3s0.2,1.1-0.3,1.4c-2.2,1.4-4.4,3-6.5,4.6C64.4,41.1,64.2,41.1,64,41.1z
		 M206.2,38.5c-0.2,0-0.4-0.1-0.6-0.2c-2.2-1.5-4.4-2.9-6.7-4.3c-0.5-0.3-0.6-0.9-0.3-1.4s0.9-0.6,1.4-0.3c2.3,1.4,4.6,2.9,6.8,4.4
		c0.5,0.3,0.6,0.9,0.3,1.4C206.8,38.3,206.5,38.5,206.2,38.5z M77.3,32.4c-0.3,0-0.7-0.2-0.9-0.5c-0.3-0.5-0.1-1.1,0.4-1.4
		c2.3-1.3,4.7-2.6,7.2-3.7c0.5-0.2,1.1,0,1.3,0.5c0.2,0.5,0,1.1-0.5,1.3c-2.4,1.1-4.7,2.4-7,3.7C77.7,32.4,77.5,32.4,77.3,32.4z
		 M192.5,30.2c-0.2,0-0.3,0-0.5-0.1c-2.3-1.2-4.8-2.3-7.2-3.4c-0.5-0.2-0.7-0.8-0.5-1.3s0.8-0.7,1.3-0.5c2.5,1.1,4.9,2.2,7.3,3.5
		c0.5,0.3,0.7,0.9,0.4,1.3C193.2,30,192.8,30.2,192.5,30.2z M91.8,25.5c-0.4,0-0.8-0.2-0.9-0.6c-0.2-0.5,0-1.1,0.6-1.3
		c2.5-1,5-1.9,7.6-2.8c0.5-0.2,1.1,0.1,1.3,0.6c0.2,0.5-0.1,1.1-0.6,1.3c-2.5,0.8-5,1.7-7.5,2.7C92,25.5,91.9,25.5,91.8,25.5z
		 M177.8,23.9c-0.1,0-0.2,0-0.3-0.1c-2.5-0.9-5-1.7-7.6-2.4c-0.5-0.2-0.8-0.7-0.7-1.2c0.2-0.5,0.7-0.8,1.2-0.7
		c2.6,0.7,5.2,1.6,7.7,2.5c0.5,0.2,0.8,0.8,0.6,1.3C178.6,23.6,178.2,23.9,177.8,23.9z M106.9,20.5c-0.4,0-0.9-0.3-1-0.8
		s0.2-1.1,0.7-1.2c2.6-0.7,5.2-1.3,7.9-1.7c0.5-0.1,1.1,0.3,1.2,0.8s-0.3,1.1-0.8,1.2c-2.6,0.5-5.2,1.1-7.7,1.7
		C107.1,20.5,107,20.5,106.9,20.5z M162.4,19.5c-0.1,0-0.1,0-0.2,0c-2.6-0.6-5.2-1-7.8-1.4c-0.5-0.1-0.9-0.6-0.8-1.1
		c0.1-0.5,0.6-0.9,1.1-0.8c2.6,0.4,5.3,0.9,7.9,1.4c0.5,0.1,0.9,0.6,0.8,1.2C163.3,19.1,162.9,19.5,162.4,19.5z M122.7,17.6
		c-0.5,0-0.9-0.4-1-0.9s0.3-1,0.9-1.1c2.7-0.3,5.4-0.5,8-0.7c0.5,0,1,0.4,1.1,0.9c0,0.6-0.4,1-0.9,1.1c-2.6,0.1-5.3,0.4-7.9,0.7
		C122.7,17.5,122.7,17.6,122.7,17.6z M146.6,17.1L146.6,17.1c-2.7-0.2-5.4-0.3-8-0.4c-0.6,0-1-0.5-1-1c0-0.5,0.5-1,1-1l0,0
		c2.7,0,5.4,0.2,8.1,0.4c0.6,0,1,0.5,0.9,1.1C147.6,16.7,147.1,17.1,146.6,17.1z"/>
</g>
<g>
	<path class="st2" d="M257,123.3c-1.2,0-2.3-0.9-2.5-2.2c-1.4-10.7-4.3-21.2-8.6-31.1c-0.5-1.3,0-2.7,1.3-3.3c1.3-0.5,2.7,0,3.3,1.3
		c4.5,10.3,7.5,21.3,8.9,32.4c0.2,1.4-0.8,2.6-2.2,2.8C257.2,123.3,257.1,123.3,257,123.3z"/>
</g>
<g>
	<path class="st2" d="M15.7,139.4c-1.4,0-2.5-1.1-2.5-2.5c0-68.2,55.5-123.7,123.7-123.7c1.4,0,2.5,1.1,2.5,2.5s-1.1,2.5-2.5,2.5
		c-65.4,0-118.7,53.2-118.7,118.7C18.2,138.2,17.1,139.4,15.7,139.4z"/>
</g>
<g>
	<path class="st2" d="M136.9,261.5c-1.4,0-2.5-1.1-2.5-2.5s1.1-2.5,2.5-2.5c30.5,0,59.6-11.6,81.7-32.6c1-1,2.6-0.9,3.5,0.1
		c1,1,0.9,2.6-0.1,3.5C199,249.5,168.7,261.5,136.9,261.5z"/>
</g>
<g class="st0">
	<path class="st1" d="M72.5,245.4c-0.2,0-0.5,0-0.7-0.2c-2.2-1.5-4.5-3-6.6-4.6c-0.4-0.3-0.5-1-0.2-1.4s1-0.5,1.4-0.2
		c2.1,1.6,4.3,3.1,6.5,4.5c0.5,0.3,0.6,0.9,0.3,1.4C73,245.2,72.8,245.3,72.5,245.4z M59.7,235.8c-0.3,0-0.5,0-0.8-0.2
		c-2-1.7-4-3.6-6-5.4c-0.4-0.4-0.4-1,0-1.4s1-0.4,1.4,0c1.9,1.8,3.8,3.6,5.9,5.4c0.4,0.4,0.5,1,0.1,1.4
		C60.1,235.7,59.9,235.8,59.7,235.8z M48.2,224.6c-0.3,0-0.6-0.1-0.9-0.3c-1.8-2-3.5-4.1-5.2-6.2c-0.3-0.4-0.3-1.1,0.2-1.4
		c0.4-0.3,1.1-0.3,1.4,0.2c1.6,2.1,3.3,4.1,5.1,6.1c0.4,0.4,0.3,1-0.1,1.4C48.6,224.5,48.4,224.6,48.2,224.6z M38.4,212
		c-0.4,0-0.7-0.1-0.9-0.4c-1.5-2.2-3-4.5-4.3-6.8c-0.3-0.5-0.1-1.1,0.4-1.4c0.5-0.3,1.1-0.1,1.4,0.4c1.3,2.3,2.8,4.5,4.3,6.7
		c0.3,0.5,0.2,1.1-0.3,1.4C38.7,212,38.5,212,38.4,212z M30.2,198.3c-0.4,0-0.8-0.2-1-0.5c-1.2-2.4-2.3-4.9-3.4-7.3
		c-0.2-0.5,0-1.1,0.5-1.3s1.1,0,1.3,0.5c1,2.4,2.1,4.8,3.3,7.2c0.2,0.5,0.1,1.1-0.4,1.3C30.5,198.2,30.4,198.3,30.2,198.3z
		 M24,183.6c-0.5,0.1-0.9-0.2-1.1-0.7c-0.9-2.5-1.7-5.1-2.4-7.7c-0.1-0.5,0.2-1.1,0.7-1.2c0.5-0.1,1.1,0.2,1.2,0.7
		c0.7,2.5,1.5,5.1,2.3,7.6c0.2,0.5-0.1,1.1-0.6,1.3C24.2,183.5,24.1,183.6,24,183.6z M19.8,168.2c-0.5,0.1-1-0.3-1.1-0.8
		c-0.5-2.6-1-5.3-1.4-7.9c-0.1-0.5,0.3-1.1,0.9-1.1l0,0c0.5-0.1,1,0.3,1.1,0.9c0.4,2.6,0.8,5.2,1.3,7.8
		C20.8,167.5,20.4,168,19.8,168.2C19.9,168.1,19.8,168.2,19.8,168.2z M17.6,152.3L17.6,152.3c-0.6,0-1.1-0.4-1.1-0.9
		c-0.2-2.7-0.3-5.4-0.3-8.1c0-0.6,0.4-1,1-1s1,0.4,1,1c0,2.6,0.1,5.3,0.3,7.9C18.5,151.8,18.2,152.3,17.6,152.3z M17.5,136.3
		c-0.1,0-0.1,0-0.2,0c-0.6,0-1-0.5-0.9-1.1c0.2-2.7,0.4-5.4,0.8-8c0.1-0.5,0.6-0.9,1.1-0.9c0.5,0.1,0.9,0.6,0.9,1.1
		c-0.3,2.6-0.6,5.3-0.7,7.9C18.4,135.9,18,136.3,17.5,136.3z M19.6,120.5c-0.1,0-0.2,0-0.3,0c-0.5-0.1-0.9-0.6-0.8-1.2
		c0.5-2.6,1.1-5.3,1.8-7.9c0.1-0.5,0.7-0.9,1.2-0.7c0.5,0.1,0.9,0.7,0.7,1.2c-0.7,2.5-1.3,5.2-1.8,7.7
		C20.3,120.1,20,120.4,19.6,120.5z M23.7,105c-0.1,0-0.3,0-0.4,0c-0.5-0.2-0.8-0.7-0.6-1.3c0.9-2.5,1.8-5.1,2.8-7.6
		c0.2-0.5,0.8-0.8,1.3-0.5c0.5,0.2,0.8,0.8,0.5,1.3c-1,2.4-2,4.9-2.8,7.4C24.4,104.7,24,105,23.7,105z M29.8,90.2
		c-0.2,0-0.4,0-0.6-0.1c-0.5-0.2-0.7-0.8-0.5-1.3c1.2-2.4,2.5-4.8,3.8-7.1c0.3-0.5,0.9-0.6,1.4-0.4c0.5,0.3,0.6,0.9,0.4,1.4
		c-1.3,2.3-2.6,4.6-3.7,7C30.4,90,30.1,90.2,29.8,90.2z M37.8,76.4c-0.2,0-0.5,0-0.7-0.2c-0.5-0.3-0.6-0.9-0.3-1.4
		c1.5-2.2,3.1-4.4,4.7-6.5c0.3-0.4,1-0.5,1.4-0.2s0.5,1,0.2,1.4c-1.6,2.1-3.2,4.3-4.6,6.4C38.3,76.2,38.1,76.4,37.8,76.4z
		 M47.5,63.7c-0.3,0-0.5,0-0.8-0.2c-0.4-0.4-0.5-1-0.1-1.4c1.8-2,3.6-4,5.5-5.9c0.4-0.4,1-0.4,1.4,0s0.4,1,0,1.4
		c-1.9,1.9-3.7,3.8-5.4,5.8C48,63.6,47.8,63.7,47.5,63.7z M58.9,52.4c-0.3,0-0.6-0.1-0.9-0.3c-0.4-0.4-0.3-1,0.1-1.4
		c2-1.8,4.1-3.5,6.2-5.1c0.4-0.3,1.1-0.3,1.4,0.2c0.3,0.4,0.3,1.1-0.2,1.4c-2.1,1.6-4.2,3.3-6.1,5C59.2,52.3,59.1,52.4,58.9,52.4z
		 M71.6,42.7c-0.4,0-0.7-0.1-0.9-0.4c-0.3-0.5-0.2-1.1,0.3-1.4c2.2-1.5,4.5-2.9,6.9-4.2c0.5-0.3,1.1-0.1,1.4,0.4s0.1,1.1-0.4,1.4
		c-2.3,1.3-4.5,2.7-6.7,4.2C71.9,42.7,71.7,42.7,71.6,42.7z M85.4,34.8c-0.4,0-0.8-0.2-1-0.6c-0.2-0.5,0-1.1,0.5-1.3
		c2.4-1.2,4.9-2.3,7.4-3.3c0.5-0.2,1.1,0,1.3,0.5c0.2,0.5,0,1.1-0.5,1.3c-2.4,1-4.9,2.1-7.2,3.2C85.6,34.8,85.5,34.8,85.4,34.8z
		 M100.2,28.8c-0.5,0.1-0.9-0.2-1.1-0.7s0.1-1.1,0.6-1.3c2.5-0.8,5.1-1.6,7.7-2.3c0.5-0.1,1.1,0.2,1.2,0.7s-0.2,1.1-0.7,1.2
		c-2.6,0.7-5.1,1.4-7.6,2.2C100.3,28.8,100.3,28.8,100.2,28.8z M115.7,24.8c-0.5,0.1-1-0.3-1.1-0.8s0.3-1.1,0.8-1.2
		c2.6-0.5,5.3-0.9,8-1.2l0,0c0.5-0.1,1,0.3,1.1,0.9c0.1,0.5-0.3,1-0.9,1.1C121,23.9,118.3,24.3,115.7,24.8L115.7,24.8z"/>
</g>
</svg>
