<?xml version="1.0" encoding="utf-8"?>
<!-- Generator: Adobe Illustrator 22.0.1, SVG Export Plug-In . SVG Version: 6.00 Build 0)  -->
<svg version="1.1" id="Layer_1" xmlns="http://www.w3.org/2000/svg" xmlns:xlink="http://www.w3.org/1999/xlink" x="0px" y="0px"
	 viewBox="0 0 274.2 275.6" style="enable-background:new 0 0 274.2 275.6;" xml:space="preserve">
<style type="text/css">
	.st0{fill:#009EE2;stroke:#009EE2;stroke-width:2;stroke-miterlimit:10;}
	.st1{display:none;}
	.st2{display:inline;fill:#009EE2;stroke:#009EE2;stroke-width:24;stroke-miterlimit:10;}
</style>
<g>
	<path class="st0" d="M17.2,139.6c-0.6,0-1-0.4-1-1c0-2.7,0.1-5.4,0.3-8.1c0-0.6,0.5-1,1.1-0.9c0.6,0,1,0.5,0.9,1.1
		c-0.2,2.6-0.3,5.3-0.3,7.9C18.2,139.1,17.8,139.6,17.2,139.6z M18.3,123.6h-0.1c-0.5-0.1-0.9-0.6-0.9-1.1c0.4-2.6,0.8-5.3,1.3-8
		c0.1-0.5,0.6-0.9,1.2-0.8c0.5,0.1,0.9,0.6,0.8,1.2c-0.5,2.6-1,5.2-1.3,7.8C19.2,123.3,18.8,123.6,18.3,123.6z M21.5,108
		c-0.1,0-0.2,0-0.3,0c-0.5-0.1-0.8-0.7-0.7-1.2c0.7-2.6,1.5-5.2,2.4-7.7c0.2-0.5,0.7-0.8,1.3-0.6c0.5,0.2,0.8,0.7,0.6,1.3
		c-0.9,2.5-1.6,5.1-2.3,7.6C22.3,107.7,21.9,108,21.5,108z M254.1,103.6c-0.4,0-0.8-0.3-1-0.7c-0.8-2.5-1.7-5-2.6-7.5
		c-0.2-0.5,0.1-1.1,0.6-1.3c0.5-0.2,1.1,0.1,1.3,0.6c1,2.5,1.9,5.1,2.7,7.6c0.2,0.5-0.1,1.1-0.7,1.3
		C254.3,103.5,254.2,103.6,254.1,103.6z M26.7,92.8c-0.1,0-0.3,0-0.4-0.1c-0.5-0.2-0.8-0.8-0.5-1.3c1-2.5,2.2-4.9,3.4-7.3
		c0.2-0.5,0.8-0.7,1.3-0.5s0.7,0.8,0.5,1.3c-1.2,2.4-2.3,4.8-3.3,7.2C27.4,92.6,27.1,92.8,26.7,92.8z M248.3,88.6
		c-0.4,0-0.7-0.2-0.9-0.6c-1.1-2.4-2.3-4.8-3.6-7.1c-0.3-0.5-0.1-1.1,0.4-1.4s1.1-0.1,1.4,0.4c1.3,2.4,2.5,4.8,3.6,7.2
		c0.2,0.5,0,1.1-0.5,1.3C248.6,88.6,248.5,88.6,248.3,88.6z M33.8,78.5c-0.2,0-0.3,0-0.5-0.1c-0.5-0.3-0.6-0.9-0.4-1.4
		c1.3-2.3,2.8-4.6,4.3-6.8c0.3-0.5,0.9-0.6,1.4-0.3c0.5,0.3,0.6,0.9,0.3,1.4c-1.5,2.2-2.9,4.5-4.2,6.7
		C34.5,78.4,34.1,78.5,33.8,78.5z M240.7,74.6c-0.3,0-0.7-0.2-0.8-0.5c-1.4-2.2-2.9-4.4-4.5-6.5c-0.3-0.4-0.2-1.1,0.2-1.4
		s1.1-0.2,1.4,0.2c1.6,2.2,3.1,4.4,4.6,6.7c0.3,0.5,0.2,1.1-0.3,1.4C241,74.6,240.8,74.6,240.7,74.6z M42.7,65.3
		c-0.2,0-0.4-0.1-0.6-0.2c-0.4-0.3-0.5-1-0.2-1.4c1.6-2.1,3.4-4.2,5.1-6.2c0.4-0.4,1-0.5,1.4-0.1s0.4,1,0.1,1.4
		c-1.7,2-3.5,4-5.1,6.1C43.3,65.1,43,65.3,42.7,65.3z M231.2,61.7c-0.3,0-0.6-0.1-0.8-0.4c-1.7-2-3.5-4-5.3-5.9
		c-0.4-0.4-0.4-1,0-1.4s1-0.4,1.4,0c1.8,1.9,3.7,3.9,5.4,6c0.4,0.4,0.3,1.1-0.1,1.4C231.7,61.6,231.4,61.7,231.2,61.7z M53.3,53.3
		c-0.3,0-0.5-0.1-0.7-0.3c-0.4-0.4-0.4-1,0-1.4c1.9-1.9,3.9-3.7,5.9-5.5c0.4-0.4,1-0.3,1.4,0.1s0.3,1-0.1,1.4c-2,1.7-4,3.5-5.8,5.4
		C53.9,53.2,53.6,53.3,53.3,53.3z M220.2,50.2c-0.2,0-0.5-0.1-0.7-0.3c-1.9-1.8-4-3.5-6-5.2c-0.4-0.3-0.5-1-0.2-1.4s1-0.5,1.4-0.2
		c2.1,1.7,4.2,3.4,6.1,5.2c0.4,0.4,0.4,1,0.1,1.4C220.7,50.1,220.4,50.2,220.2,50.2z M65.5,42.9c-0.3,0-0.6-0.1-0.8-0.4
		c-0.3-0.4-0.2-1.1,0.2-1.4c2.1-1.6,4.4-3.2,6.6-4.6c0.5-0.3,1.1-0.2,1.4,0.3s0.2,1.1-0.3,1.4c-2.2,1.4-4.4,3-6.5,4.6
		C65.9,42.8,65.7,42.9,65.5,42.9z M207.7,40.2c-0.2,0-0.4-0.1-0.6-0.2c-2.2-1.5-4.4-2.9-6.7-4.3c-0.5-0.3-0.6-0.9-0.3-1.4
		s0.9-0.6,1.4-0.3c2.3,1.4,4.6,2.9,6.8,4.4c0.5,0.3,0.6,0.9,0.3,1.4C208.3,40.1,208,40.2,207.7,40.2z M78.8,34.1
		c-0.3,0-0.7-0.2-0.9-0.5c-0.3-0.5-0.1-1.1,0.4-1.4c2.3-1.3,4.7-2.6,7.2-3.7c0.5-0.2,1.1,0,1.3,0.5c0.2,0.5,0,1.1-0.5,1.3
		c-2.4,1.1-4.7,2.4-7,3.7C79.2,34.1,79,34.1,78.8,34.1z M194,32c-0.2,0-0.3,0-0.5-0.1c-2.3-1.2-4.8-2.3-7.2-3.4
		c-0.5-0.2-0.7-0.8-0.5-1.3s0.8-0.7,1.3-0.5c2.5,1.1,4.9,2.2,7.3,3.5c0.5,0.3,0.7,0.9,0.4,1.3C194.7,31.8,194.3,32,194,32z
		 M93.3,27.2c-0.4,0-0.8-0.2-0.9-0.6c-0.2-0.5,0-1.1,0.6-1.3c2.5-1,5-1.9,7.6-2.8c0.5-0.2,1.1,0.1,1.3,0.6c0.2,0.5-0.1,1.1-0.6,1.3
		c-2.5,0.8-5,1.7-7.5,2.7C93.5,27.2,93.4,27.2,93.3,27.2z M179.3,25.6c-0.1,0-0.2,0-0.3-0.1c-2.5-0.9-5-1.7-7.6-2.4
		c-0.5-0.2-0.8-0.7-0.7-1.2c0.2-0.5,0.7-0.8,1.2-0.7c2.6,0.7,5.2,1.6,7.7,2.5c0.5,0.2,0.8,0.8,0.6,1.3
		C180.1,25.3,179.7,25.6,179.3,25.6z M108.4,22.2c-0.4,0-0.9-0.3-1-0.8s0.2-1.1,0.7-1.2c2.6-0.7,5.2-1.3,7.9-1.7
		c0.5-0.1,1.1,0.3,1.2,0.8s-0.3,1.1-0.8,1.2c-2.6,0.5-5.2,1.1-7.7,1.7C108.6,22.2,108.5,22.2,108.4,22.2z M163.9,21.2
		c-0.1,0-0.1,0-0.2,0c-2.6-0.6-5.2-1-7.8-1.4c-0.5-0.1-0.9-0.6-0.8-1.1s0.6-0.9,1.1-0.8c2.6,0.4,5.3,0.9,7.9,1.4
		c0.5,0.1,0.9,0.6,0.8,1.2C164.8,20.9,164.4,21.2,163.9,21.2z M124.2,19.3c-0.5,0-0.9-0.4-1-0.9s0.3-1,0.9-1.1
		c2.7-0.3,5.4-0.5,8-0.7c0.5,0,1,0.4,1.1,0.9c0,0.6-0.4,1-0.9,1.1c-2.6,0.1-5.3,0.4-7.9,0.7C124.2,19.3,124.2,19.3,124.2,19.3z
		 M148.1,18.8L148.1,18.8c-2.7-0.2-5.4-0.3-8-0.4c-0.6,0-1-0.5-1-1s0.5-1,1-1l0,0c2.7,0,5.4,0.2,8.1,0.4c0.6,0,1,0.5,0.9,1.1
		C149.1,18.4,148.6,18.8,148.1,18.8z"/>
</g>
<g class="st1">
	<path class="st2" d="M258.5,125c-1.2,0-2.3-0.9-2.5-2.2c-1.4-10.7-4.3-21.2-8.6-31.1c-0.5-1.3,0-2.7,1.3-3.3c1.3-0.5,2.7,0,3.3,1.3
		c4.5,10.3,7.5,21.3,8.9,32.4c0.2,1.4-0.8,2.6-2.2,2.8C258.7,125,258.6,125,258.5,125z"/>
</g>
<g class="st1">
	<path class="st2" d="M17.2,141.1c-1.4,0-2.5-1.1-2.5-2.5c0-68.2,55.5-123.7,123.7-123.7c1.4,0,2.5,1.1,2.5,2.5s-1.1,2.5-2.5,2.5
		C73,19.9,19.7,73.1,19.7,138.6C19.7,140,18.6,141.1,17.2,141.1z"/>
</g>
<g class="st1">
	<path class="st2" d="M138.4,263.3c-1.4,0-2.5-1.1-2.5-2.5s1.1-2.5,2.5-2.5c30.5,0,59.6-11.6,81.7-32.6c1-1,2.6-0.9,3.5,0.1
		c1,1,0.9,2.6-0.1,3.5C200.5,251.2,170.2,263.3,138.4,263.3z"/>
</g>
<g>
	<path class="st0" d="M28,194.3c-0.2-0.5-0.8-0.7-1.3-0.5s-0.7,0.8-0.5,1.3c1.1,2.4,2.2,4.9,3.4,7.3c0.2,0.3,0.6,0.5,1,0.5
		c0.2,0,0.3,0,0.3-0.1c0.5-0.2,0.6-0.8,0.4-1.3C30.1,199.1,29,196.7,28,194.3z"/>
	<path class="st0" d="M21,171.7c-0.5-2.6-0.9-5.2-1.3-7.8c-0.1-0.6-0.6-1-1.1-0.9c-0.6,0-1,0.6-0.9,1.1c0.4,2.6,0.9,5.3,1.4,7.9
		c0.1,0.5,0.6,0.9,1.1,0.8C20.8,172.7,21.2,172.1,21,171.7z"/>
	<path class="st0" d="M18.9,155.9c-0.2-2.6-0.3-5.3-0.3-7.9c0-0.6-0.4-1-1-1c-0.6,0-1,0.4-1,1c0,2.7,0.1,5.4,0.3,8.1
		c0,0.5,0.5,0.9,1.1,0.9C18.6,156.9,18.9,156.4,18.9,155.9z"/>
	<path class="st0" d="M22.8,179.3c-0.1-0.5-0.7-0.8-1.2-0.7c-0.5,0.1-0.8,0.7-0.7,1.2c0.7,2.6,1.5,5.2,2.4,7.7
		c0.2,0.5,0.6,0.8,1.1,0.7h0.1c0.5-0.2,0.8-0.8,0.6-1.3C24.3,184.4,23.5,181.8,22.8,179.3z"/>
	<path class="st0" d="M54.7,233.4c-0.4-0.4-1-0.4-1.4,0c-0.4,0.4-0.4,1,0,1.4c2,1.8,4,3.7,6,5.4c0.3,0.2,0.5,0.2,0.8,0.2
		c0.2,0,0.4-0.1,0.6-0.2c0.4-0.4,0.3-1-0.1-1.4C58.5,237,56.6,235.2,54.7,233.4z"/>
	<path class="st0" d="M73.3,248.1c-2.2-1.4-4.4-2.9-6.5-4.5c-0.4-0.3-1.1-0.2-1.4,0.2s-0.2,1.1,0.2,1.4c2.1,1.6,4.4,3.1,6.6,4.6
		c0.2,0.2,0.5,0.2,0.7,0.2c0.3,0,0.5-0.2,0.7-0.5C73.9,249,73.8,248.4,73.3,248.1z"/>
	<path class="st0" d="M35.4,208.5c-0.3-0.5-0.9-0.7-1.4-0.4c-0.5,0.3-0.7,0.9-0.4,1.4c1.3,2.3,2.8,4.6,4.3,6.8
		c0.2,0.3,0.5,0.4,0.9,0.4c0.1,0,0.3-0.1,0.6-0.1c0.5-0.3,0.6-0.9,0.3-1.4C38.2,213,36.7,210.8,35.4,208.5z"/>
	<path class="st0" d="M44.1,221.6c-0.3-0.5-1-0.5-1.4-0.2c-0.5,0.3-0.5,1-0.2,1.4c1.7,2.1,3.4,4.2,5.2,6.2c0.3,0.2,0.6,0.3,0.9,0.3
		c0.2-0.1,0.4-0.2,0.5-0.2c0.4-0.4,0.5-1,0.1-1.4C47.4,225.7,45.7,223.7,44.1,221.6z"/>
</g>
</svg>
