<?xml version="1.0" encoding="utf-8"?>
<!-- Generator: Adobe Illustrator 22.0.1, SVG Export Plug-In . SVG Version: 6.00 Build 0)  -->
<svg version="1.1" id="OBJECTS" xmlns="http://www.w3.org/2000/svg" xmlns:xlink="http://www.w3.org/1999/xlink" x="0px" y="0px"
	 viewBox="0 0 210.2 89.4" style="enable-background:new 0 0 210.2 89.4;" xml:space="preserve" width="214" height="90">
<style type="text/css">
	.st0{fill:#009EE2;}
	.st1{fill:none;stroke:#009EE2;stroke-width:4;stroke-linecap:round;stroke-linejoin:round;stroke-miterlimit:10;}
</style>
<path class="st0" d="M181.2,86.9c1.8-2,3.7-3.9,5.6-5.8c1.9-1.9,3.8-3.7,5.9-5.5c2-1.8,4.1-3.5,6.2-5.2c2.1-1.7,4.3-3.4,6.5-4.9
	l0.3,4.3c-2.3-0.7-4.5-1.5-6.8-2.4c-2.2-0.9-4.4-1.8-6.6-2.8c-2.2-1-4.3-2.2-6.3-3.5c-2-1.3-4-2.7-5.7-4.5c-0.5-0.5-0.5-1.4,0-1.9
	c0.3-0.3,0.8-0.4,1.2-0.4c2.4,0.5,4.7,1.2,6.9,2c2.2,0.8,4.4,1.7,6.5,2.7c2.1,1,4.2,2,6.3,3l6.3,3.1l0.3,0.2c1.1,0.6,1.6,2,1,3.1
	c-0.2,0.5-0.6,0.8-1.1,1.1c-2.3,1.1-4.6,2.3-6.9,3.6c-2.2,1.3-4.4,2.8-6.5,4.4c-2.1,1.6-4.1,3.3-5.9,5.1c-1.9,1.8-3.7,3.7-5.3,5.8
	c-0.4,0.6-1.2,0.7-1.8,0.2S180.6,87.6,181.2,86.9C181.1,87,181.1,87,181.2,86.9z"/>
<path class="st1" d="M4.5,2.9c0,0,63.1,96,179,69.3"/>
</svg>
