<?xml version="1.0" encoding="utf-8"?>
<!-- Generator: Adobe Illustrator 22.0.1, SVG Export Plug-In . SVG Version: 6.00 Build 0)  -->
<svg version="1.1" id="Capa_1" xmlns="http://www.w3.org/2000/svg" xmlns:xlink="http://www.w3.org/1999/xlink" x="0px" y="0px"
	 viewBox="0 0 512 512" style="enable-background:new 0 0 512 512;" xml:space="preserve" width="36px" height="auto">
<style type="text/css">
	.st0{fill:#009EE2;}
	.st1{font-family:'MyriadPro-Regular';}
	.st2{font-size:168.7783px;}
</style>
<g>
	<g>
		<path class="st0" d="M236.4,470.3c0-0.1,0-0.2,0-0.3c0-0.1,0-0.2,0-0.3c0-0.2,0-0.4-0.1-0.6c0-0.1,0-0.1,0-0.2
			c-0.1-0.6-0.3-1.1-0.5-1.6c0-0.1-0.1-0.1-0.1-0.2c-0.1-0.2-0.2-0.4-0.3-0.6c0-0.1-0.1-0.1-0.1-0.2c-0.1-0.2-0.2-0.3-0.3-0.5
			c-0.1-0.1-0.1-0.1-0.2-0.2c-0.1-0.2-0.3-0.3-0.4-0.5c0,0-0.1-0.1-0.1-0.1c-0.2-0.2-0.4-0.4-0.6-0.5c0,0,0,0,0,0l-35.1-28.2
			c-3.2-2.6-7.9-2.1-10.4,1.1c-2.6,3.2-2.1,7.9,1.1,10.4l17.3,13.9c-45.7-4.5-86.9-22.9-117.7-52.8c-35-34-54.3-80.1-54.3-129.9
			c0-4.1-3.3-7.4-7.4-7.4s-7.4,3.3-7.4,7.4c0,53.8,20.9,103.7,58.8,140.5c33.4,32.4,78,52.2,127.2,57l-17.3,11.2
			c-3.4,2.2-4.4,6.8-2.2,10.3c1.4,2.2,3.8,3.4,6.2,3.4c1.4,0,2.8-0.4,4-1.2l36.5-23.7c0,0,0,0,0,0c0.2-0.2,0.5-0.3,0.7-0.5
			c0,0,0.1-0.1,0.1-0.1c0.2-0.1,0.3-0.3,0.5-0.5c0.1-0.1,0.1-0.1,0.2-0.2c0.1-0.1,0.2-0.3,0.4-0.4c0.1-0.1,0.1-0.1,0.2-0.2
			c0.1-0.2,0.2-0.3,0.3-0.5c0-0.1,0.1-0.1,0.1-0.2c0.3-0.5,0.5-1,0.6-1.5c0,0,0-0.1,0-0.1c0.1-0.2,0.1-0.4,0.2-0.7
			c0-0.1,0-0.2,0-0.3c0-0.2,0-0.4,0.1-0.6c0-0.1,0-0.1,0-0.2c0,0,0-0.1,0-0.1C236.4,470.4,236.4,470.3,236.4,470.3z"/>
	</g>
</g>
<g>
	<g>
		<path class="st0" d="M433.9,97.2c-33.4-32.4-78-52.2-127.2-57L324,29c3.4-2.2,4.4-6.8,2.2-10.3c-2.2-3.4-6.8-4.4-10.3-2.2
			l-36.5,23.7c0,0,0,0,0,0c-0.2,0.2-0.5,0.3-0.7,0.5c0,0-0.1,0.1-0.1,0.1c-0.2,0.1-0.3,0.3-0.5,0.5c-0.1,0.1-0.1,0.1-0.2,0.2
			c-0.1,0.1-0.2,0.3-0.4,0.4c-0.1,0.1-0.1,0.1-0.2,0.2c-0.1,0.2-0.2,0.3-0.3,0.5c0,0.1-0.1,0.1-0.1,0.2c-0.3,0.5-0.5,1-0.6,1.5
			c0,0,0,0.1,0,0.1c-0.1,0.2-0.1,0.4-0.2,0.7c0,0.1,0,0.2,0,0.3c0,0.2,0,0.4-0.1,0.6c0,0.1,0,0.1,0,0.2c0,0,0,0.1,0,0.2
			c0,0.1,0,0.1,0,0.2c0,0.1,0,0.2,0,0.3c0,0.1,0,0.2,0,0.3c0,0.2,0,0.4,0.1,0.6c0,0.1,0,0.1,0,0.2c0.1,0.5,0.3,1.1,0.5,1.6
			c0,0.1,0,0.1,0.1,0.2c0.1,0.2,0.2,0.4,0.3,0.6c0,0.1,0.1,0.1,0.1,0.2c0.1,0.2,0.2,0.3,0.3,0.5c0,0.1,0.1,0.1,0.2,0.2
			c0.1,0.2,0.3,0.3,0.4,0.5c0,0,0.1,0.1,0.1,0.1c0.2,0.2,0.4,0.4,0.6,0.5c0,0,0,0,0,0l35.1,28.2c1.4,1.1,3,1.6,4.6,1.6
			c2.2,0,4.3-0.9,5.8-2.8c2.6-3.2,2.1-7.9-1.1-10.4L305.9,55c45.7,4.5,86.9,22.9,117.7,52.8c35,33.9,54.3,80.1,54.3,129.9
			c0,4.1,3.3,7.4,7.4,7.4c4.1,0,7.4-3.3,7.4-7.4C492.7,183.9,471.8,134,433.9,97.2z"/>
	</g>
</g>
<g>
	<g>
		<path class="st0" d="M138.8,0C62.3,0,0,62.3,0,138.8s62.3,138.8,138.8,138.8s138.8-62.3,138.8-138.8S215.3,0,138.8,0z
			 M138.8,262.8c-68.4,0-124-55.6-124-124c0-68.4,55.6-124,124-124s124,55.6,124,124C262.8,207.1,207.1,262.8,138.8,262.8z"/>
	</g>
</g>
<g>
	<g>
		<path class="st0" d="M244.4,152.1c-4-0.8-7.9,1.8-8.7,5.8c-3.8,19.3-13.1,36.8-27.1,50.7c-18.7,18.7-43.5,28.9-69.8,28.9
			S87.6,227.3,69,208.6c-13.9-13.9-23.3-31.4-27-50.6c-0.8-4-4.7-6.6-8.7-5.8c-4,0.8-6.6,4.7-5.8,8.7c4.4,22.1,15.1,42.2,31.1,58.2
			c21.5,21.5,50,33.3,80.3,33.3s58.9-11.8,80.3-33.3c16-16,26.8-36.2,31.1-58.3C251,156.7,248.4,152.8,244.4,152.1z"/>
	</g>
</g>
<g>
	<g>
		<path class="st0" d="M248.8,110.5c-5-19.6-15.3-37.6-29.7-52c-21.5-21.5-50-33.3-80.3-33.3S79.9,37,58.5,58.5
			c-14.4,14.4-24.6,32.3-29.7,51.9c-1,4,1.4,8,5.3,9c4,1,8-1.4,9-5.3C47.5,97,56.5,81.4,69,69C87.6,50.3,112.4,40,138.8,40
			S190,50.3,208.6,69c12.5,12.5,21.4,28.2,25.8,45.2c0.9,3.3,3.9,5.6,7.2,5.6c0.6,0,1.2-0.1,1.8-0.2
			C247.4,118.5,249.8,114.4,248.8,110.5z"/>
	</g>
</g>
<g>
	<g>
		<path class="st0" d="M373.2,234.4c-76.5,0-138.8,62.3-138.8,138.8S296.7,512,373.2,512S512,449.7,512,373.2
			S449.7,234.4,373.2,234.4z M373.2,497.2c-68.4,0-124-55.6-124-124c0-68.4,55.6-124,124-124s124,55.6,124,124
			S441.6,497.2,373.2,497.2z"/>
	</g>
</g>
<g>
	<g>
		<path class="st0" d="M483.6,346.6c-4.9-20.3-15.3-38.9-30.1-53.7c-21.5-21.5-50-33.3-80.3-33.3c-30.3,0-58.9,11.8-80.3,33.3
			c-14.7,14.7-25.1,33.1-30,53.2c-1,4,1.5,8,5.4,9c4,1,8-1.5,9-5.4c4.3-17.5,13.3-33.4,26.1-46.2c18.7-18.7,43.5-28.9,69.8-28.9
			s51.2,10.3,69.8,28.9c12.9,12.9,22,29,26.2,46.7c0.8,3.4,3.9,5.7,7.2,5.7c0.6,0,1.2-0.1,1.7-0.2
			C482.2,354.6,484.6,350.6,483.6,346.6z"/>
	</g>
</g>
<g>
	<g>
		<path class="st0" d="M478.7,387.4c-4-0.8-7.9,1.8-8.8,5.8c-3.9,18.9-13.2,36.2-26.9,49.9c-18.7,18.7-43.5,28.9-69.8,28.9
			S322,461.7,303.4,443c-13.6-13.6-22.9-30.7-26.8-49.4c-0.8-4-4.8-6.6-8.8-5.7c-4,0.8-6.6,4.8-5.7,8.8
			c4.5,21.6,15.2,41.2,30.8,56.9c21.5,21.5,50,33.3,80.3,33.3s58.9-11.8,80.3-33.3c15.8-15.8,26.5-35.6,30.9-57.4
			C485.3,392.1,482.7,388.2,478.7,387.4z"/>
	</g>
</g>
<text transform="matrix(1 0 0 1 336.8672 426.8488)" class="st0 st1 st2">P</text>
<rect x="326.2" y="396.6" class="st0" width="63" height="6.3"/>
<text transform="matrix(1 0 0 1 107.2083 192.8488)" class="st0 st1 st2">P</text>
<rect x="96.6" y="162.6" class="st0" width="63" height="6.3"/>
</svg>
