<?xml version="1.0" encoding="utf-8"?>
<!-- Generator: Adobe Illustrator 22.0.1, SVG Export Plug-In . SVG Version: 6.00 Build 0)  -->
<svg version="1.1" id="Capa_1" xmlns="http://www.w3.org/2000/svg" xmlns:xlink="http://www.w3.org/1999/xlink" x="0px" y="0px"
	 viewBox="0 0 39.6 31.3" style="enable-background:new 0 0 39.6 31.3;" xml:space="preserve">
<g>
	<g>
		<path d="M19.8,31.1c-13.1,0-19.7-13-19.8-13.2C0,17.9,0,17.8,0,17.7v-0.1c0-0.1,0-0.2,0.1-0.2C0.1,17.2,6.7,4.2,19.8,4.2
			c13.1,0,19.7,13,19.8,13.2c0,0.1,0.1,0.1,0.1,0.2v0.1c0,0.1,0,0.2-0.1,0.2C39.5,18.1,32.9,31.1,19.8,31.1z M1,17.6
			c0.8,1.4,7.1,12.5,18.8,12.5c11.7,0,18-11,18.8-12.5c-0.8-1.4-7.1-12.5-18.8-12.5C8.1,5.2,1.8,16.2,1,17.6z" fill="#80c2cc"/>
		<path d="M19.8,24.1c-3.5,0-6.4-2.9-6.4-6.4c0-3.5,2.9-6.4,6.4-6.4c3.5,0,6.4,2.9,6.4,6.4C26.2,21.3,23.4,24.1,19.8,24.1z
			 M19.8,12.3c-3,0-5.4,2.4-5.4,5.4c0,3,2.4,5.4,5.4,5.4c3,0,5.4-2.4,5.4-5.4C25.2,14.7,22.8,12.3,19.8,12.3z" fill="#80c2cc"/>
		<circle cx="19.8" cy="17.7" r="2.1" fill="#80c2cc"/>
	</g>
	<g>
		<g>
			<g>
				<path d="M19.8,5.2c-0.3,0-0.5-0.2-0.5-0.5v-4c0-0.3,0.2-0.5,0.5-0.5s0.5,0.2,0.5,0.5v4C20.3,5,20.1,5.2,19.8,5.2z" fill="#80c2cc"/>
				<path d="M4.6,12.1c-0.1,0-0.3,0-0.4-0.1L1.5,9.2C1.3,9,1.3,8.7,1.5,8.5s0.5-0.2,0.7,0L5,11.3c0.2,0.2,0.2,0.5,0,0.7
					C4.9,12.1,4.8,12.1,4.6,12.1z" fill="#80c2cc"/>
				<path d="M11.3,7.1c-0.2,0-0.3-0.1-0.4-0.3l-2-3.4C8.7,3.2,8.8,2.9,9.1,2.7c0.2-0.1,0.5-0.1,0.7,0.2l2,3.4
					c0.1,0.2,0.1,0.5-0.2,0.7C11.4,7.1,11.4,7.1,11.3,7.1z" fill="#80c2cc"/>
			</g>
			<g>
				<path d="M35,12.1c-0.1,0-0.3,0-0.4-0.1c-0.2-0.2-0.2-0.5,0-0.7l2.8-2.8c0.2-0.2,0.5-0.2,0.7,0s0.2,0.5,0,0.7L35.3,12
					C35.2,12.1,35.1,12.1,35,12.1z" fill="#80c2cc"/>
				<path d="M28.3,7.1c-0.1,0-0.2,0-0.2-0.1c-0.2-0.1-0.3-0.4-0.2-0.7l2-3.4c0.1-0.2,0.4-0.3,0.7-0.2s0.3,0.4,0.2,0.7l-2,3.4
					C28.7,7,28.5,7.1,28.3,7.1z" fill="#80c2cc"/>
			</g>
		</g>
	</g>
</g>
</svg>
