<?xml version="1.0" encoding="utf-8"?>
<!-- Generator: Adobe Illustrator 22.0.1, SVG Export Plug-In . SVG Version: 6.00 Build 0)  -->
<svg version="1.1" id="Ñëîé_1" xmlns="http://www.w3.org/2000/svg" xmlns:xlink="http://www.w3.org/1999/xlink" x="0px" y="0px"
	 viewBox="0 0 197.8 198.7" style="enable-background:new 0 0 197.8 198.7;" xml:space="preserve">
<style type="text/css">
	.st0{fill:#ECF6F7;}
</style>
<g>
	<path class="st0" d="M198.1,98.9c0-5.2-1.3-9.8-3.6-13.5c-1.1-1.9-2.6-3.5-4.1-4.9c-1.6-1.4-3.4-2.6-5.3-3.5
		c-7.3-3.4-16.3-0.4-22.3,4c-1.4-5-3.4-9.9-6-14.4c4-0.6,7.7-1.8,10.9-3.9c3.2-2.1,5.7-5,7.3-8.7c1.5-3.6,2-7.9,1.1-12.4
		c-0.9-4.4-3.2-8.9-7-12.7l0,0c-3.7-3.7-7.9-6-12.1-7c-2.1-0.5-4.3-0.7-6.4-0.5c-2.1,0.2-4.2,0.6-6.2,1.3c-3.8,1.4-6.7,4.2-8.9,7.6
		c-2.1,3.4-3.4,7.3-4,11c-4.5-2.6-9.4-4.6-14.4-6c2.4-3.2,4.2-6.8,5-10.5c0.8-3.7,0.5-7.6-1-11.3c-0.7-1.8-1.8-3.6-3.1-5.2
		c-1.3-1.6-3-3.1-4.9-4.3c-3.8-2.5-8.6-4-13.9-4h0c-5.2,0-9.8,1.3-13.5,3.6c-1.9,1.1-3.5,2.6-4.9,4.1c-1.4,1.6-2.6,3.4-3.5,5.3
		c-3.4,7.3-0.4,16.3,4,22.3c-5,1.4-9.9,3.4-14.4,6c-0.6-4-1.8-7.7-3.9-10.9c-2.1-3.2-5-5.7-8.7-7.3c-3.6-1.5-7.9-2-12.4-1.1
		c-4.4,0.9-8.9,3.2-12.7,7h0c-3.7,3.7-6,7.9-7,12.1c-0.5,2.1-0.7,4.3-0.5,6.4c0.2,2.1,0.6,4.2,1.3,6.2c1.4,3.8,4.2,6.7,7.6,8.9
		c3.4,2.1,7.3,3.4,11,4c-2.6,4.5-4.6,9.4-6,14.4c-3.2-2.4-6.8-4.2-10.5-5c-3.7-0.8-7.6-0.5-11.3,1c-1.8,0.7-3.6,1.8-5.2,3.1
		c-1.6,1.3-3.1,3-4.3,4.9c-2.5,3.8-4,8.6-4,13.9v0c0,5.2,1.3,9.8,3.6,13.5c1.1,1.9,2.6,3.5,4.1,4.9c1.6,1.4,3.4,2.6,5.3,3.5
		c7.3,3.4,16.3,0.4,22.3-4c1.4,5,3.4,9.9,6,14.4c-4,0.6-7.7,1.8-10.9,3.9c-3.2,2.1-5.7,5-7.3,8.7c-1.5,3.6-2,7.9-1.1,12.4
		c0.9,4.4,3.2,8.9,7,12.7l0,0c3.7,3.7,7.9,6,12.1,7c2.1,0.5,4.3,0.7,6.4,0.5c2.1-0.2,4.2-0.6,6.2-1.3c3.8-1.4,6.7-4.2,8.9-7.6
		c2.1-3.4,3.4-7.3,4-11c4.5,2.6,9.4,4.6,14.4,6c-2.4,3.2-4.2,6.8-5,10.5c-0.8,3.7-0.5,7.6,1,11.3c0.7,1.8,1.8,3.6,3.1,5.2
		c1.3,1.6,3,3.1,4.9,4.3c3.8,2.5,8.6,4,13.9,4h0c5.2,0,9.8-1.3,13.5-3.6c1.9-1.1,3.5-2.6,4.9-4.1c1.4-1.6,2.6-3.4,3.5-5.3
		c3.4-7.3,0.4-16.3-4-22.3c5-1.4,9.9-3.4,14.4-6c0.6,4,1.8,7.7,3.9,10.9c2.1,3.2,5,5.7,8.7,7.3c3.6,1.5,7.9,2,12.4,1.1
		c4.4-0.9,8.9-3.2,12.7-7h0c3.7-3.7,6-7.9,7-12.1c0.5-2.1,0.7-4.3,0.5-6.4c-0.2-2.1-0.6-4.2-1.3-6.2c-1.4-3.8-4.2-6.7-7.6-8.9
		c-3.4-2.1-7.3-3.4-11-4c2.6-4.5,4.6-9.4,6-14.4c3.2,2.4,6.8,4.2,10.5,5c3.7,0.8,7.6,0.5,11.3-1c1.8-0.7,3.6-1.8,5.2-3.1
		c1.6-1.3,3.1-3,4.3-4.9C196.6,109,198.1,104.2,198.1,98.9L198.1,98.9z M137.7,33.3c1.8-2.8,4.4-5.1,7.5-6.4
		c1.6-0.7,3.3-1.2,5.1-1.3c1.8-0.2,3.7-0.1,5.6,0.3c3.8,0.7,7.6,2.7,10.7,5.7l0,0c3.1,3.2,5.1,6.9,5.8,10.7
		c0.7,3.8,0.3,7.5-1.1,10.6c-1.4,3.1-3.7,5.7-6.5,7.5c-2.8,1.8-6.1,2.9-9.7,3.3l-1-1.6l-1.1-1.6c-0.7-1.1-1.5-2-2.3-3
		c2.4,0.2,5-0.2,7.4-1.2c2.4-1,4.6-2.6,6-4.9c1.5-2.4,1.9-5,1.4-7.6c-0.3-1.3-0.7-2.6-1.4-3.8c-0.7-1.2-1.5-2.3-2.5-3.4
		c-1.3-1.2-2.7-2.4-4.2-3.2l0,0c0,0-0.1,0-0.2-0.1c-0.1-0.1-0.2-0.1-0.4-0.1c-1.8-0.4-3.5-0.6-5.2-0.4c-1.7,0.2-3.2,0.7-4.6,1.5
		c-2.8,1.6-4.8,4.2-5.7,7.6c-0.5,1.9-0.7,3.9-0.4,5.7c-1-0.8-2-1.6-3.1-2.3l-1.6-1.1l-1.6-1C134.9,39.5,135.9,36.1,137.7,33.3z
		 M144.6,42.7c0.8-2.5,2.3-4.3,4.3-5.3c2-1,4.5-1.1,7.1-0.6c1.1,0.6,2.1,1.4,3,2.3c1.1,1.2,2.1,2.6,2.5,4.2c0.4,1.6,0.4,3.2-0.2,4.9
		c-0.9,2.6-3,4.3-5.4,5.1c-2.3,0.8-5,1-7.1,0.1c-1-0.4-1.8-1-2.5-1.7C144.3,49.7,143.5,46.2,144.6,42.7z M80.1,25.3
		c-0.7-3.3-0.5-6.7,0.8-9.9c0.6-1.6,1.5-3.1,2.7-4.5c0.6-0.7,1.2-1.4,1.9-2c0.7-0.6,1.4-1.2,2.2-1.7c3.2-2.2,7.2-3.4,11.6-3.5h0
		c4.4,0,8.5,1.3,11.7,3.5c0.8,0.5,1.5,1.1,2.2,1.7c0.7,0.6,1.3,1.3,1.9,2c1.1,1.4,2,2.9,2.6,4.5c1.2,3.2,1.4,6.6,0.7,9.9
		c-0.7,3.3-2.3,6.4-4.6,9.2c-2.5-0.6-5-0.9-7.5-1.3c1.8-1.5,3.4-3.7,4.4-6.1c1-2.4,1.4-5.1,0.8-7.7c-0.6-2.7-2.2-4.9-4.4-6.4
		c-1.1-0.7-2.3-1.3-3.6-1.7c-1.3-0.4-2.7-0.6-4.1-0.6c-1.8,0-3.5,0.2-5.2,0.8l0,0c0,0-0.1,0-0.2,0.1c-0.1,0.1-0.2,0.1-0.3,0.2
		c-3.1,1.8-5.3,4.7-6.2,7.7c-0.9,3.1-0.4,6.4,1.3,9.4c1,1.8,2.3,3.2,3.7,4.3c-2.6,0.3-5.1,0.7-7.6,1.3
		C82.4,31.7,80.8,28.6,80.1,25.3z M102.2,31.6c-1,0.4-2,0.6-3,0.6c-1.5,0.1-3-0.5-4.3-1.3c-1.3-0.8-2.5-2.2-3.4-3.8
		c-1.2-2.3-1.4-4.7-0.7-6.8c0.7-2.1,2.4-4,4.6-5.4c1.2-0.3,2.5-0.5,3.7-0.5c1.7,0.1,3.3,0.4,4.7,1.2c1.4,0.8,2.6,2,3.3,3.6
		c1.2,2.4,0.9,5.2-0.2,7.4C106.1,28.8,104.3,30.8,102.2,31.6z M33.6,60.4c-2.8-1.8-5.1-4.4-6.4-7.5c-0.7-1.6-1.2-3.3-1.3-5.1
		c-0.2-1.8-0.1-3.7,0.3-5.6c0.7-3.8,2.7-7.6,5.7-10.7h0c3.2-3.1,6.9-5.1,10.7-5.8c3.8-0.7,7.5-0.3,10.6,1.1c3.1,1.4,5.7,3.7,7.5,6.5
		c1.8,2.8,2.9,6.1,3.3,9.7l-1.6,1l-1.6,1.1c-1.1,0.7-2,1.5-3,2.3c0.2-2.4-0.2-5-1.2-7.4c-1-2.4-2.6-4.6-4.9-6
		c-2.4-1.5-5-1.9-7.6-1.4c-1.3,0.3-2.6,0.7-3.8,1.4c-1.2,0.7-2.3,1.5-3.4,2.5c-1.2,1.3-2.4,2.7-3.2,4.2l0,0c0,0,0,0.1-0.1,0.2
		c-0.1,0.1-0.1,0.2-0.1,0.4c-0.4,1.8-0.6,3.5-0.4,5.2c0.2,1.7,0.7,3.2,1.5,4.6c1.6,2.8,4.2,4.8,7.6,5.7c1.9,0.5,3.9,0.7,5.7,0.4
		c-0.8,1-1.6,2-2.3,3.1l-1.1,1.6l-1,1.6C39.8,63.3,36.5,62.3,33.6,60.4z M53.7,49.2c-0.4,1-1,1.8-1.7,2.5c-2.1,2.1-5.5,2.9-9.1,1.8
		c-2.5-0.8-4.3-2.3-5.3-4.3c-1-2-1.1-4.5-0.6-7.1c0.6-1.1,1.4-2.1,2.3-3c1.2-1.1,2.6-2.1,4.2-2.5c1.6-0.4,3.2-0.4,4.9,0.2
		c2.6,0.9,4.3,3,5.1,5.4C54.5,44.5,54.6,47.2,53.7,49.2z M25.6,118.1c-3.3,0.7-6.7,0.5-9.9-0.8c-1.6-0.6-3.1-1.5-4.5-2.7
		c-0.7-0.6-1.4-1.2-2-1.9c-0.6-0.7-1.2-1.4-1.7-2.2C5.3,107.4,4,103.3,4,98.9c0-4.4,1.3-8.5,3.5-11.7C8,86.4,8.6,85.7,9.2,85
		c0.6-0.7,1.3-1.3,2-1.9c1.4-1.1,2.9-2,4.5-2.6c3.2-1.2,6.6-1.4,9.9-0.7c3.3,0.7,6.4,2.3,9.2,4.6c-0.6,2.5-0.9,5-1.3,7.5
		c-1.5-1.8-3.7-3.4-6.1-4.4c-2.4-1-5.1-1.4-7.7-0.8c-2.7,0.6-4.9,2.2-6.4,4.4c-0.7,1.1-1.3,2.3-1.7,3.6c-0.4,1.3-0.6,2.7-0.6,4.1
		c0,1.8,0.2,3.5,0.8,5.2l0,0c0,0,0,0.1,0.1,0.2c0.1,0.1,0.1,0.2,0.2,0.3c1.8,3.1,4.7,5.3,7.7,6.2c3.1,0.9,6.4,0.4,9.4-1.3
		c1.8-1,3.2-2.3,4.3-3.7c0.3,2.6,0.7,5.1,1.3,7.6C32,115.8,28.9,117.4,25.6,118.1z M32.5,98.9c0.1,1.5-0.5,3-1.3,4.3
		c-0.8,1.3-2.2,2.5-3.8,3.4c-2.3,1.2-4.7,1.4-6.8,0.7c-2.1-0.7-4-2.4-5.4-4.6c-0.3-1.2-0.5-2.5-0.5-3.7c0.1-1.7,0.4-3.3,1.2-4.7
		c0.8-1.4,2-2.6,3.6-3.3c2.4-1.2,5.2-0.9,7.4,0.2c2.3,1.1,4.2,2.8,5.1,4.9C32.4,97,32.6,97.9,32.5,98.9z M60.7,164.5
		c-1.8,2.8-4.4,5.1-7.5,6.4c-1.6,0.7-3.3,1.2-5.1,1.3c-1.8,0.2-3.7,0.1-5.6-0.3c-3.8-0.7-7.6-2.7-10.7-5.7h0
		c-3.1-3.2-5.1-6.9-5.8-10.7c-0.7-3.8-0.3-7.5,1.1-10.6c1.4-3.1,3.7-5.7,6.5-7.5c2.8-1.8,6.1-2.9,9.7-3.3l1,1.6l1.1,1.6
		c0.7,1.1,1.5,2,2.3,3c-2.4-0.2-5,0.2-7.4,1.2c-2.4,1-4.6,2.6-6,4.9c-1.5,2.4-1.9,5-1.4,7.6c0.3,1.3,0.7,2.6,1.4,3.8
		c0.7,1.2,1.5,2.3,2.5,3.4c1.3,1.2,2.7,2.4,4.2,3.2l0,0c0,0,0.1,0,0.2,0.1c0.1,0.1,0.2,0.1,0.4,0.1c1.8,0.4,3.5,0.6,5.2,0.4
		c1.7-0.2,3.2-0.7,4.6-1.5c2.8-1.6,4.8-4.2,5.7-7.6c0.5-1.9,0.7-3.9,0.4-5.7c1,0.8,2,1.6,3.1,2.3l1.6,1.1l1.6,1
		C63.6,158.4,62.6,161.7,60.7,164.5z M53.9,155.1c-0.8,2.5-2.3,4.3-4.3,5.3c-2,1-4.5,1.1-7.1,0.6c-1.1-0.6-2.1-1.4-3-2.3
		c-1.1-1.2-2.1-2.6-2.5-4.2c-0.4-1.6-0.4-3.2,0.2-4.9c0.9-2.6,3-4.3,5.4-5.1c2.3-0.8,5-1,7.1-0.1c1,0.4,1.8,1,2.5,1.7
		C54.2,148.2,55,151.6,53.9,155.1z M118.4,172.6c0.7,3.3,0.5,6.7-0.8,9.9c-0.6,1.6-1.5,3.1-2.7,4.5c-0.6,0.7-1.2,1.4-1.9,2
		c-0.7,0.6-1.4,1.2-2.2,1.7c-3.2,2.2-7.2,3.4-11.6,3.5h0c-4.4,0-8.5-1.3-11.7-3.5c-0.8-0.5-1.5-1.1-2.2-1.7c-0.7-0.6-1.3-1.3-1.9-2
		c-1.1-1.4-2-2.9-2.6-4.5c-1.2-3.2-1.4-6.6-0.7-9.9c0.7-3.3,2.3-6.4,4.6-9.2c2.5,0.6,5,0.9,7.5,1.3c-1.8,1.5-3.4,3.7-4.4,6.1
		c-1,2.4-1.4,5.1-0.8,7.7c0.6,2.7,2.2,4.9,4.4,6.4c1.1,0.7,2.3,1.3,3.6,1.7c1.3,0.4,2.7,0.6,4.1,0.6c1.8,0,3.5-0.2,5.2-0.8l0,0
		c0,0,0.1,0,0.2-0.1c0.1-0.1,0.2-0.1,0.3-0.2c3.1-1.8,5.3-4.7,6.2-7.7c0.9-3.1,0.4-6.4-1.3-9.4c-1-1.8-2.3-3.2-3.7-4.3
		c2.6-0.3,5.1-0.7,7.6-1.3C116.1,166.1,117.7,169.3,118.4,172.6z M96.3,166.2c1-0.4,2-0.6,3-0.6c1.5-0.1,3,0.5,4.3,1.3
		c1.3,0.8,2.5,2.2,3.4,3.8c1.2,2.3,1.4,4.7,0.7,6.8c-0.7,2.1-2.4,4-4.6,5.4c-1.2,0.3-2.5,0.5-3.7,0.5c-1.7-0.1-3.3-0.4-4.7-1.2
		c-1.4-0.8-2.6-2-3.3-3.6c-1.2-2.4-0.9-5.2,0.2-7.4C92.4,169,94.2,167.1,96.3,166.2z M164.8,137.4c2.8,1.8,5.1,4.4,6.4,7.5
		c0.7,1.6,1.2,3.3,1.3,5.1c0.2,1.8,0.1,3.7-0.3,5.6c-0.7,3.8-2.7,7.6-5.7,10.7l0,0c-3.2,3.1-6.9,5.1-10.7,5.8
		c-3.8,0.7-7.5,0.3-10.6-1.1c-3.1-1.4-5.7-3.7-7.5-6.5c-1.8-2.8-2.9-6.1-3.3-9.7l1.6-1l1.6-1.1c1.1-0.7,2-1.5,3-2.3
		c-0.2,2.4,0.2,5,1.2,7.4c1,2.4,2.6,4.6,4.9,6c2.4,1.5,5,1.9,7.6,1.4c1.3-0.3,2.6-0.7,3.8-1.4c1.2-0.7,2.3-1.5,3.4-2.5
		c1.2-1.3,2.4-2.7,3.2-4.2l0,0c0,0,0-0.1,0.1-0.2c0.1-0.1,0.1-0.2,0.1-0.4c0.4-1.8,0.6-3.5,0.4-5.2c-0.2-1.7-0.7-3.2-1.5-4.6
		c-1.6-2.8-4.2-4.8-7.6-5.7c-1.9-0.5-3.9-0.7-5.7-0.4c0.8-1,1.6-2,2.3-3.1l1.1-1.6l1-1.6C158.7,134.6,162,135.6,164.8,137.4z
		 M144.7,148.6c0.4-1,1-1.8,1.7-2.5c2.1-2.1,5.5-2.9,9.1-1.8c2.5,0.8,4.3,2.3,5.3,4.3c1,2,1.1,4.5,0.6,7.1c-0.6,1.1-1.4,2.1-2.3,3
		c-1.2,1.1-2.6,2.1-4.2,2.5c-1.6,0.4-3.2,0.4-4.9-0.2c-2.6-0.9-4.3-3-5.1-5.4C144,153.3,143.9,150.7,144.7,148.6z M156.9,122.8
		c-3.1,7.5-7.8,14.5-13.5,20.2c-5.8,5.8-12.7,10.4-20.2,13.5c-7.5,3.1-15.7,4.7-23.9,4.7c-8.2,0-16.3-1.6-23.9-4.7
		c-7.5-3.1-14.5-7.8-20.2-13.5c-5.8-5.8-10.4-12.7-13.5-20.2c-3.1-7.5-4.7-15.7-4.7-23.9c0-8.2,1.6-16.3,4.7-23.9
		c3.1-7.5,7.8-14.5,13.5-20.2c5.8-5.8,12.7-10.4,20.2-13.5c7.5-3.1,15.7-4.7,23.9-4.7c8.2,0,16.3,1.6,23.9,4.7
		c7.5,3.1,14.5,7.8,20.2,13.5c5.8,5.8,10.4,12.7,13.5,20.2c3.1,7.5,4.7,15.7,4.7,23.9C161.6,107.1,160,115.3,156.9,122.8z
		 M191,110.6c-0.5,0.8-1.1,1.5-1.7,2.2c-0.6,0.7-1.3,1.3-2,1.9c-1.4,1.1-2.9,2-4.5,2.6c-3.2,1.2-6.6,1.4-9.9,0.7
		c-3.3-0.7-6.4-2.3-9.2-4.6c0.6-2.5,0.9-5,1.3-7.5c1.5,1.8,3.7,3.4,6.1,4.4c2.4,1,5.1,1.4,7.7,0.8c2.7-0.6,4.9-2.2,6.4-4.4
		c0.7-1.1,1.3-2.3,1.7-3.6c0.4-1.3,0.6-2.7,0.6-4.1c0-1.8-0.2-3.5-0.8-5.2l0,0c0,0,0-0.1-0.1-0.2c-0.1-0.1-0.1-0.2-0.2-0.3
		c-1.8-3.1-4.7-5.3-7.7-6.2c-3.1-0.9-6.4-0.4-9.4,1.3c-1.8,1-3.2,2.3-4.3,3.7c-0.3-2.6-0.7-5.1-1.3-7.6c2.8-2.3,6-3.9,9.2-4.6
		c3.3-0.7,6.7-0.5,9.9,0.8c1.6,0.6,3.1,1.5,4.5,2.7c0.7,0.6,1.4,1.2,2,1.9c0.6,0.7,1.2,1.4,1.7,2.2c2.2,3.2,3.4,7.2,3.5,11.6l0,0
		C194.5,103.4,193.2,107.4,191,110.6z M165.9,98.9c-0.1-1.5,0.5-3,1.3-4.3c0.8-1.3,2.2-2.5,3.8-3.4c2.3-1.2,4.7-1.4,6.8-0.7
		c2.1,0.7,4,2.4,5.4,4.6c0.3,1.2,0.5,2.5,0.5,3.7c-0.1,1.7-0.4,3.3-1.2,4.7c-0.8,1.4-2,2.6-3.6,3.3c-2.4,1.2-5.2,0.9-7.4-0.2
		c-2.3-1.1-4.2-2.8-5.1-4.9C166.1,100.9,165.9,99.9,165.9,98.9z"/>
	<path class="st0" d="M137.5,60.6c-5-5-11-9-17.6-11.7c-6.5-2.7-13.6-4.1-20.7-4.1c-7.1,0-14.2,1.4-20.7,4.1
		C72,51.6,66,55.6,61,60.6c-5,5-9,11-11.7,17.6c-2.7,6.5-4.1,13.6-4.1,20.7c0,7.1,1.4,14.2,4.1,20.7c2.7,6.5,6.7,12.5,11.7,17.6
		c5,5,11,9,17.6,11.7c6.5,2.7,13.6,4.1,20.7,4.1c7.1,0,14.2-1.4,20.7-4.1c6.5-2.7,12.5-6.7,17.6-11.7c5-5,9-11,11.7-17.6
		c2.7-6.5,4.1-13.6,4.1-20.7c0-7.1-1.4-14.2-4.1-20.7C146.6,71.7,142.5,65.7,137.5,60.6z M145.9,118.2c-2.5,6.1-6.3,11.7-11,16.4
		c-4.7,4.7-10.3,8.4-16.4,11c-6.1,2.5-12.6,3.8-19.3,3.8c-6.7,0-13.2-1.3-19.3-3.8c-6.1-2.5-11.7-6.3-16.4-11
		c-4.7-4.7-8.4-10.3-11-16.4c-2.5-6.1-3.8-12.6-3.8-19.3c0-6.7,1.3-13.2,3.8-19.3c2.5-6.1,6.3-11.7,11-16.4
		c4.7-4.7,10.3-8.4,16.4-11c6.1-2.5,12.6-3.8,19.3-3.8c6.7,0,13.2,1.3,19.3,3.8c6.1,2.5,11.7,6.3,16.4,11c4.7,4.7,8.4,10.3,11,16.4
		c2.5,6.1,3.8,12.6,3.8,19.3C149.7,105.6,148.4,112.2,145.9,118.2z"/>
</g>
</svg>
