<?xml version="1.0" encoding="utf-8"?>
<!-- Generator: Adobe Illustrator 22.0.1, SVG Export Plug-In . SVG Version: 6.00 Build 0)  -->
<svg version="1.1" id="Слой_1" xmlns="http://www.w3.org/2000/svg" xmlns:xlink="http://www.w3.org/1999/xlink" x="0px" y="0px"
	 viewBox="0 0 5059.5 1085.8" style="enable-background:new 0 0 5059.5 1085.8;" xml:space="preserve">
<style type="text/css">
	.st0{fill:#FFFFFF;}
	.st1{fill:#FCFCFC;}
	.st2{fill:#9773AF;}
	.st3{fill:#6AAAE1;}
</style>
<g id="g14">
	<path id="path20" class="st0" d="M1484.6,720.4h-85.8V221h260.5v57.2h-174.8v164.1h146.2v57.2h-146.2v220.9H1484.6z"/>
	<path id="path22" class="st0" d="M1923.3,363.6v60.7h-78.4c-9,0-16.9,1.4-23.5,4.3c-6.7,2.8-11.9,6.2-15.7,10v281.9h-85.8V363.6
		h60.8l10.7,28.5h3.6c7.6-7.1,17.9-13.7,30.7-19.6c12.8-5.9,29.9-8.9,51.3-8.9H1923.3L1923.3,363.6z"/>
	<path id="path24" class="st0" d="M2137.1,549.3H2098c-6.2,0-12.4,1-18.8,2.9c-6.4,1.9-12.1,5.3-17.1,10.3s-9.1,11.7-12.4,20
		c-3.3,8.3-5,18.7-5,31.1c0,12.4,1.7,22.7,5,31.1c3.3,8.3,7.5,15,12.4,20c5,5,10.7,8.5,17.1,10.3c6.4,1.9,12.7,2.9,18.8,2.9
		c9,0,16.8-1.4,23.4-4.3c6.6-2.8,11.8-6.2,15.6-10V549.3H2137.1z M2069.5,727.5c-15.2,0-29.5-1.6-42.8-4.6c-13.3-3.1-25-8.9-35-17.4
		c-10-8.6-18-20.2-23.9-34.9s-8.9-33.7-8.9-57s3-42.3,8.9-57s14.1-26.4,24.6-34.9c10.4-8.5,22.8-14.4,37.1-17.4
		c14.2-3.1,29.9-4.6,47.1-4.6c10.9,0,21.5,0.7,31.7,2.1s19.8,3.1,28.9,5V478c0-28.7-6.6-47.8-20-57.4c-13.3-9.6-31.6-14.4-54.9-14.4
		H1991v-35.5c10.9-3.8,24.4-7.1,40.3-9.9c15.9-2.9,31-4.3,45.3-4.3c24.2,0,45.4,1.7,63.5,5s33.3,9.4,45.7,18.2
		c12.4,8.8,21.7,21.2,27.9,37.1s9.3,36.3,9.3,61v242.6h-60.6l-10.7-21.4h-3.6c-7.6,7.1-17.6,13.7-30,19.6
		C2105.7,724.5,2089.5,727.5,2069.5,727.5"/>
	<path id="path26" class="st0" d="M2472.5,356.5c15.2,0,29.5,1.5,42.9,4.7c13.3,3.1,25,8.9,35,17.5s18,20.2,23.9,35
		c6,14.8,8.9,33.8,8.9,57.1v249.7h-85.8v-250c0-12.4-1.7-22.7-5-31.1c-3.3-8.3-7.6-15-12.9-20c-5.2-5-11.3-8.5-18.2-10.4
		s-13.9-2.9-21.1-2.9c-9,0-16.9,1.4-23.5,4.3c-6.7,2.9-11.9,6.2-15.7,10v299.9h-85.8V363.6h60.7l10.7,21.4h3.6
		c7.6-7.1,17.9-13.7,30.7-19.6C2433.9,359.5,2451,356.5,2472.5,356.5"/>
	<path id="path28" class="st0" d="M2814.9,406.3c-10.9,0-20.7,2-29.2,6.1c-8.6,4-16,11.2-22.5,21.4c-6.4,10.2-11.3,24.2-14.6,41.8
		c-3.3,17.6-5,39.8-5,66.4c0,26.7,1.8,48.8,5.3,66.4c3.6,17.6,8.7,31.6,15.3,41.8c6.7,10.3,14.9,17.4,24.6,21.4
		c9.8,4,20.8,6.1,33.2,6.1h78.5v35.5c-10.9,3.8-24.6,7.1-41,9.9c-16.4,2.8-33.6,4.3-51.7,4.3c-25.2,0-47.1-3.3-65.6-10
		c-18.6-6.7-34.2-17.4-46.8-32.1c-12.6-14.7-22-33.9-28.2-57.4s-9.3-52.2-9.3-86s3.1-62.4,9.3-85.9s15.4-42.7,27.5-57.4
		c12.2-14.7,27-25.4,44.7-32.1s38.1-10,61.4-10c18.1,0,35.3,1.4,51.7,4.3s30.1,6.1,41,9.9v35.5L2814.9,406.3L2814.9,406.3z"/>
	<path id="path30" class="st0" d="M3046.4,720.4h-85.8V221h85.8v156.9c9.1-7.1,19.7-12.5,31.8-16.1s25.4-5.3,39.7-5.3
		c15.2,0,29.5,1.5,42.8,4.7c13.4,3.1,25,8.9,35,17.5s18,20.2,23.9,35c6,14.8,8.9,33.8,8.9,57.1v249.7h-85.8v-250
		c0-12.4-1.7-22.7-5-31.1c-3.3-8.3-7.6-15-12.9-20c-5.2-5-11.3-8.5-18.2-10.4s-13.9-2.9-21-2.9c-9.1,0-16.9,1.4-23.6,4.3
		c-6.7,2.9-11.9,6.2-15.7,10v300H3046.4z"/>
	<path id="path32" class="st0" d="M3410.1,720.4h-85.8V221h260.5v57.2h-174.7v164.1h146.2v57.2h-146.2V720.4L3410.1,720.4z"/>
	<path id="path34" class="st0" d="M3848.8,363.6v60.7h-78.5c-9,0-16.9,1.4-23.5,4.3c-6.7,2.8-11.9,6.2-15.7,10v281.9h-85.8V363.6
		h60.8l10.7,28.5h3.6c7.6-7.1,17.8-13.7,30.7-19.6c12.8-5.9,30-8.9,51.3-8.9H3848.8L3848.8,363.6z"/>
	<path id="path36" class="st0" d="M3991.4,720.4h-85.8V363.6h85.8V720.4z M3991.4,320.9h-85.8v-85.8h85.8V320.9z"/>
	<path id="path38" class="st0" d="M4255.1,517.1c0-23.4-1.3-42.4-3.9-57.2c-2.6-14.8-6-26.5-10.3-35c-4.3-8.6-9.5-14.4-15.6-17.5
		c-6.2-3.1-12.8-4.7-19.9-4.7s-13.7,1.6-19.9,4.7c-6.2,3.1-11.4,8.9-15.6,17.5c-4.3,8.6-7.7,20.3-10.3,35
		c-2.6,14.8-3.9,33.8-3.9,57.2H4255.1z M4340.9,566.9h-185.3c0,41,7.2,69.8,21.8,86.2c14.5,16.5,37,24.7,67.4,24.7h78.5v35.5
		c-10.9,3.8-24.6,7.1-41,9.9c-16.4,2.8-33.6,4.3-51.7,4.3c-27.6,0-51.5-3.3-71.7-10s-36.9-17.4-50-32.1
		c-13.1-14.7-22.9-33.9-29.3-57.4c-6.4-23.5-9.6-52.2-9.6-86s3.1-62.4,9.3-85.9s15-42.7,26.4-57.4c11.4-14.7,25.6-25.4,42.4-32.1
		c16.9-6.7,36-10,57.4-10s40.5,3.3,57.4,10s31,17.4,42.4,32.1s20.2,33.9,26.4,57.4s9.3,52.2,9.3,85.9L4340.9,566.9L4340.9,566.9z"/>
	<path id="path40" class="st0" d="M4572.7,356.5c15.3,0,29.6,1.5,42.9,4.7c13.3,3.1,25,8.9,35,17.5s18,20.2,23.9,35
		c6,14.8,8.9,33.8,8.9,57.1v249.7h-85.8v-250c0-12.4-1.7-22.7-5-31.1c-3.3-8.3-7.6-15-12.9-20c-5.2-5-11.3-8.5-18.2-10.4
		c-6.9-1.9-13.9-2.9-21.1-2.9c-9,0-16.9,1.4-23.6,4.3s-11.9,6.2-15.7,10v299.9h-85.8V363.6h60.7l11,21.4h3.6
		c7.6-7.1,17.9-13.7,30.7-19.6C4534.1,359.5,4551.3,356.5,4572.7,356.5"/>
	<path id="path42" class="st0" d="M4946.8,420.5c-3.8-3.8-9-7.1-15.6-10s-14.4-4.3-23.4-4.3s-17.4,2-25.2,6.1
		c-7.8,4-14.6,11.2-20.2,21.4c-5.7,10.2-10.2,24.2-13.5,41.8c-3.3,17.6-5,39.8-5,66.4c0,26.7,1.7,48.8,5,66.4
		c3.3,17.6,7.8,31.6,13.5,41.8c5.7,10.3,12.4,17.4,20.2,21.4c7.8,4,16.2,6.1,25.2,6.1s16.4-1.4,22.4-4.3c5.9-2.9,11.5-6.2,16.7-10
		V420.5H4946.8z M4879.3,727.5c-18.1,0-34.5-3.3-49.2-10s-27.4-17.4-38.2-32.1c-10.7-14.7-19-33.9-25-57.4
		c-5.9-23.5-8.9-52.2-8.9-86s3-62.4,8.9-85.9s14.5-42.7,25.6-57.4c11.2-14.7,24.7-25.4,40.6-32.1s33.6-10,53.1-10
		c12.3,0,23.6,1.7,33.8,5c10.2,3.3,19.1,7.6,26.7,12.8V221h85.8v499.4H4972l-10.7-21.4h-3.6c-7.6,7.1-17.6,13.7-30,19.6
		C4915.4,724.5,4899.2,727.5,4879.3,727.5"/>
	<path id="path44" class="st0" d="M1471,977.3V811.8h-37l-5.1,106.8c-0.4,10.2-1.4,19-3,26.3s-3.3,13.4-5.1,18.2
		c-2.2,5.6-4.5,10.3-6.9,14.1h57.1V977.3z M1397.3,1001.3c-0.8,9-2.3,17.3-4.4,24.8s-4.7,14.3-7.7,20.3h-22.5v-69.1h15
		c2.4-3.8,4.7-8.5,6.9-14.1c1.8-4.8,3.5-10.9,5.1-18.2s2.6-16.1,3-26.3l6-127.9H1507v186.6h19.6v69.1H1504c-3-6-5.6-12.8-7.7-20.3
		s-3.5-15.8-4.4-24.8L1397.3,1001.3L1397.3,1001.3z"/>
	<path id="path46" class="st0" d="M1589.7,977.2c1.6,1.6,3.8,3,6.6,4.2c2.8,1.2,6.1,1.8,9.9,1.8s7.3-0.9,10.7-2.6
		c3.3-1.7,6.1-4.7,8.6-9c2.4-4.3,4.3-10.2,5.7-17.6c1.4-7.4,2.1-16.7,2.1-27.9s-0.7-20.5-2.1-28c-1.4-7.4-3.3-13.3-5.7-17.6
		c-2.4-4.3-5.3-7.3-8.6-9c-3.3-1.7-6.9-2.6-10.7-2.6c-3.8,0-7,0.6-9.5,1.8s-4.9,2.6-7.1,4.2L1589.7,977.2z M1618.3,847.9
		c7.4,0,14.3,1.4,20.6,4.2c6.3,2.8,11.7,7.3,16.2,13.5s8,14.3,10.5,24.2s3.8,22,3.8,36.3c0,14.2-1.3,26.3-3.8,36.2
		s-6.1,18-10.8,24.2c-4.7,6.2-10.4,10.7-17.1,13.5s-14.2,4.2-22.4,4.2c-5.2,0-10-0.7-14.3-2.1c-4.3-1.4-8.1-3.2-11.3-5.4v64.5h-36.1
		V850.8h25.5l4.5,9h1.5c3.2-3,7.4-5.7,12.6-8.2C1603.1,849.1,1609.9,847.9,1618.3,847.9"/>
	<path id="path48" class="st0" d="M1780.7,850.8h34.6l-28.6,153.6c-4,21.2-10.4,36.5-19.3,45.9c-8.8,9.4-20.4,14.1-34.9,14.1
		c-6,0-11.6-0.6-16.7-1.8c-5.1-1.2-9.6-2.6-13.4-4.2v-15.1h19.6c3.8,0,7.2-0.5,10.2-1.6s5.7-3.1,8.1-6s4.6-6.9,6.5-12
		s3.7-11.5,5.3-19.3c-9,0-16.9-3.4-23.8-10.1c-6.8-6.7-11.4-15.4-13.8-26.1l-27.1-117.4h34.6l27.1,117.3c0.6,2.6,1.3,4.6,2.1,6
		c0.8,1.4,1.6,2.4,2.4,3c0.8,0.8,1.8,1.3,3,1.5L1780.7,850.8z"/>
	<path id="path50" class="st0" d="M1943,850.8V911h1.5c2.2,0,4.3-1.1,6.3-3.2c2-2.1,4.4-6.6,7.2-13.4l9-22.6c3-7.6,7-13.5,12-17.7
		s12-6.2,21.1-6.2c2.6,0,5.1,0.1,7.5,0.4c2.4,0.3,4.5,0.6,6.3,1c2.2,0.6,4.1,1.1,5.7,1.4v15c-5.2,0-9,1-11.4,2.9s-4.1,4-5.1,6.2
		l-7.5,19.6c-3.2,8.4-6.7,14.7-10.4,18.7c-3.7,4-7.9,6.6-12.5,7.8v1.2c5.4,1.2,10.5,3.9,15.3,8.1c4.8,4.2,8.3,10.8,10.5,19.9l6,24.1
		c0.8,3,2.7,5.8,5.7,8.3s7.1,3.8,12.3,3.8v15c-1.6,0.6-3.5,1.1-5.7,1.5c-4,1-8.6,1.5-13.8,1.5c-9.8,0-17.5-2.4-23.2-7.1
		c-5.6-4.7-9.4-10.9-11.4-18.5l-7.5-28.6c-1.4-5.2-3.6-9.3-6.5-12.2s-6.3-4.4-10.1-4.4h-1.5v67.7h-36.1v-67.7h-1.5
		c-3.8,0-7.2,1.5-10.1,4.4s-5,7-6.5,12.2l-7.5,28.6c-2,7.6-5.8,13.8-11.4,18.5s-13.3,7.1-23.2,7.1c-5.2,0-9.8-0.5-13.8-1.5
		c-2.2-0.4-4.1-0.9-5.7-1.5v-15c5.2,0,9.3-1.2,12.3-3.8c3-2.5,4.9-5.3,5.7-8.3l6-24.1c2.2-9,5.7-15.7,10.5-19.9s9.9-6.9,15.3-8.1
		v-1.2c-4.6-1.2-8.8-3.8-12.5-7.8s-7.2-10.3-10.4-18.7l-7.5-19.6c-1-2.2-2.7-4.3-5.1-6.2s-6.2-2.9-11.4-2.9v-15
		c1.6-0.4,3.5-0.9,5.7-1.4c1.8-0.4,3.9-0.7,6.1-1c2.3-0.3,4.9-0.4,7.7-0.4c9,0,16,2.1,21.1,6.2c5,4.2,9,10.1,12,17.7l9,22.6
		c2.8,6.8,5.2,11.3,7.2,13.4c2,2.1,4.1,3.2,6.3,3.2h1.5v-60.2H1943z"/>
	<path id="path52" class="st0" d="M2115.9,915.5c0-9.8-0.6-17.8-1.7-24c-1.1-6.2-2.5-11.1-4.4-14.7c-1.8-3.6-4-6-6.6-7.3
		s-5.4-2-8.4-2s-5.8,0.7-8.4,2c-2.6,1.3-4.8,3.7-6.6,7.3s-3.2,8.5-4.3,14.7s-1.7,14.2-1.7,24H2115.9z M2152,936.6h-78.1
		c0,17.3,3.1,29.3,9.2,36.3c6.1,6.9,15.6,10.4,28.4,10.4h33.1v15.1c-4.6,1.6-10.4,3-17.3,4.2c-6.9,1.2-14.2,1.8-21.8,1.8
		c-11.6,0-21.7-1.4-30.2-4.2s-15.5-7.3-21.1-13.5c-5.5-6.2-9.6-14.3-12.3-24.2c-2.7-9.9-4.1-22-4.1-36.2s1.3-26.3,3.9-36.3
		c2.6-9.9,6.3-18,11.1-24.2s10.8-10.7,17.9-13.5c7.1-2.8,15.2-4.2,24.2-4.2s17.1,1.4,24.2,4.2c7.1,2.8,13.1,7.3,17.9,13.5
		c4.8,6.2,8.5,14.3,11.1,24.2s3.9,22,3.9,36.2L2152,936.6L2152,936.6z"/>
	<path id="path54" class="st0" d="M2242.2,869c-4.6,0-8.7,0.9-12.3,2.6c-3.6,1.7-6.8,4.7-9.5,9s-4.8,10.2-6.2,17.6
		c-1.4,7.4-2.1,16.7-2.1,28s0.7,20.5,2.2,27.9s3.6,13.3,6.5,17.6c2.8,4.3,6.3,7.3,10.4,9c4.1,1.7,8.8,2.6,14,2.6h33.1v15.1
		c-4.6,1.6-10.4,3-17.3,4.2c-6.9,1.2-14.2,1.8-21.8,1.8c-10.6,0-19.9-1.4-27.7-4.2s-14.4-7.3-19.7-13.5s-9.3-14.3-11.9-24.2
		c-2.6-9.9-3.9-22-3.9-36.2s1.3-26.3,3.9-36.3c2.6-9.9,6.5-18,11.6-24.2s11.4-10.7,18.8-13.5c7.4-2.8,16-4.2,25.9-4.2
		c7.6,0,14.9,0.6,21.8,1.8c6.9,1.2,12.7,2.6,17.3,4.2V869H2242.2L2242.2,869z"/>
	<path id="path56" class="st0" d="M2397.1,850.8v22.7h-37.6v127.8h-36.1V873.4h-37.6v-22.7L2397.1,850.8L2397.1,850.8z"/>
	<path id="path58" class="st0" d="M2473.7,983.2c3.4,0,6.7-0.4,9.8-1.2s5.8-2.2,8.1-4.2s4.1-4.6,5.5-8c1.4-3.3,2.1-7.3,2.1-12.1
		c0-9-2.6-15.2-7.7-18.7c-5.1-3.5-11.1-5.3-17.9-5.3h-18v49.5H2473.7L2473.7,983.2z M2455.7,869v43.6h15.1c2.8,0,5.6-0.4,8.3-1.2
		s5.1-2.1,7.2-3.8c2.1-1.7,3.8-3.9,5.1-6.5s2-5.8,2-9.6c0-4.2-0.7-7.7-2.1-10.5c-1.4-2.8-3.2-5.1-5.3-6.9c-2.1-1.8-4.5-3.1-7.2-3.9
		c-2.7-0.8-5.4-1.2-8-1.2L2455.7,869L2455.7,869z M2419.6,853.9c7.6-2.2,15.4-3.8,23.3-4.7c7.9-0.9,17.2-1.4,27.8-1.4
		c9.8,0,18.4,0.7,25.9,1.9c7.4,1.3,13.7,3.6,18.8,6.8s9,7.5,11.6,12.9s3.9,12.2,3.9,20.5c0,4.8-0.8,9-2.3,12.5s-3.5,6.5-5.9,8.9
		s-5,4.4-7.8,5.9s-5.5,2.8-8.1,3.8v1.2c3.4,1,6.9,2.4,10.4,4.2s6.7,4.2,9.6,7.2c2.9,3,5.3,6.6,7.2,10.8s2.8,9.1,2.8,14.7
		c0,9-1.3,16.5-3.9,22.3c-2.6,5.8-6.6,10.4-11.9,13.8c-5.3,3.4-11.9,5.8-19.9,7.1c-7.9,1.3-17.1,2-27.5,2c-12,0-22.2-0.5-30.4-1.4
		s-16.1-2.5-23.8-4.7L2419.6,853.9L2419.6,853.9z"/>
	<path id="path60" class="st0" d="M2637.5,915.5c0-9.8-0.5-17.8-1.6-24s-2.6-11.1-4.4-14.7c-1.8-3.6-4-6-6.6-7.3s-5.4-2-8.4-2
		s-5.8,0.7-8.4,2c-2.6,1.3-4.8,3.7-6.6,7.3s-3.2,8.5-4.3,14.7s-1.6,14.2-1.6,24H2637.5L2637.5,915.5z M2673.6,936.6h-78.1
		c0,17.3,3,29.3,9.2,36.3c6.1,6.9,15.6,10.4,28.4,10.4h33.1v15.1c-4.6,1.6-10.4,3-17.3,4.2c-6.9,1.2-14.2,1.8-21.8,1.8
		c-11.6,0-21.7-1.4-30.2-4.2s-15.5-7.3-21.1-13.5c-5.5-6.2-9.6-14.3-12.3-24.2s-4-22-4-36.2s1.3-26.3,3.9-36.3
		c2.6-9.9,6.3-18,11.1-24.2s10.8-10.7,17.9-13.5c7.1-2.8,15.2-4.2,24.2-4.2s17.1,1.4,24.2,4.2c7.1,2.8,13.1,7.3,17.9,13.5
		c4.8,6.2,8.5,14.3,11.1,24.2s3.9,22,3.9,36.2L2673.6,936.6L2673.6,936.6z"/>
	<path id="path62" class="st1" d="M2741.3,1001.3h-36.1V850.8h36.1V914h40.5v-63.2h36.1v150.5h-36.1v-64.7h-40.5V1001.3z"/>
	<path id="path64" class="st0" d="M2893.1,1001.3H2857V850.8h36.1V914h40.5v-63.2h36.1v150.5h-36.1v-64.7h-40.5V1001.3z"/>
	<path id="path66" class="st0" d="M3172.8,1001.3h-36.1V850.8h36.1V1001.3z M3061.5,983.2c2.6,0,5.3-0.5,8-1.3
		c2.7-0.9,5.1-2.4,7.2-4.5c2.1-2.1,3.9-5,5.3-8.7c1.4-3.7,2.1-8.4,2.1-14c0-5.2-0.7-9.6-2.1-13.1c-1.4-3.5-3.2-6.3-5.3-8.4
		c-2.1-2.1-4.5-3.5-7.2-4.3s-5.4-1.2-8-1.2H3045v55.7h16.5V983.2z M3045,907.9c3.8-0.8,8.1-1.5,12.8-2.1s9-0.9,12.8-0.9
		c7.2,0,13.8,0.7,19.9,2.1c6,1.4,11.2,3.9,15.6,7.5c4.4,3.6,7.9,8.6,10.4,15.1c2.5,6.4,3.7,14.8,3.7,25c0,10.3-1.3,18.6-3.9,25
		c-2.6,6.4-6.4,11.4-11.3,15.1c-4.9,3.6-11,6.1-18.3,7.5s-15.7,2.1-25.1,2.1c-11.4,0-21.2-0.5-29.2-1.4s-15.8-2.5-23.5-4.7V850.8
		h36.1V907.9L3045,907.9z"/>
	<path id="path68" class="st0" d="M3267.4,808.8c6,0,11.3-1.3,15.8-3.8s8.3-5.3,11.3-8.3l15,15.1c-4.6,6.8-10.3,12.3-17.1,16.4
		c-6.8,4.1-15.1,6.2-25,6.2c-9.8,0-18.2-2.1-25-6.2c-6.8-4.1-12.5-9.6-17.1-16.4l15-15.1c3,3,6.8,5.8,11.3,8.3
		C3256.1,807.5,3261.4,808.8,3267.4,808.8 M3291.5,906.5h-1.5l-42.1,94.7h-36.1V850.8h34.5v91.8h1.5l39.1-91.8h39.1v150.5h-34.5
		V906.5z"/>
	<path id="path70" class="st0" d="M3532.1,981.7c4.2-0.8,8-2.2,11.4-4.3s6.4-5.3,9-9.5s4.6-9.7,6-16.4s2.1-15.2,2.1-25.4
		s-0.7-18.7-2.1-25.4c-1.4-6.7-3.4-12.2-6-16.4s-5.6-7.4-9-9.5s-7.2-3.6-11.4-4.3V981.7z M3496,870.4c-4.2,0.8-8,2.2-11.4,4.3
		s-6.4,5.3-9,9.5s-4.6,9.7-6,16.4s-2.1,15.2-2.1,25.4s0.7,18.7,2.1,25.4c1.4,6.7,3.4,12.2,6,16.4s5.6,7.4,9,9.5s7.2,3.6,11.4,4.3
		V870.4z M3532.1,790.7v58.6c20.2,2.2,36.1,9.5,47.5,22c11.4,12.4,17.1,30.7,17.1,54.7c0,24.1-5.7,42.3-17.1,54.7
		c-11.5,12.4-27.3,19.8-47.5,21.9v58.6H3496v-58.6c-20.3-2.2-36.1-9.5-47.6-21.9c-11.4-12.4-17.1-30.7-17.1-54.7s5.7-42.3,17.1-54.7
		c11.4-12.4,27.3-19.7,47.6-22v-58.6L3532.1,790.7L3532.1,790.7z"/>
	<path id="path72" class="st0" d="M3662.8,977.2c1.6,1.6,3.8,3,6.6,4.2s6.1,1.8,9.9,1.8c3.8,0,7.4-0.9,10.7-2.6
		c3.3-1.7,6.2-4.7,8.6-9c2.4-4.3,4.3-10.2,5.7-17.6c1.4-7.4,2.1-16.7,2.1-27.9s-0.7-20.5-2.1-28c-1.4-7.4-3.3-13.3-5.7-17.6
		s-5.3-7.3-8.6-9s-6.9-2.6-10.7-2.6s-7,0.6-9.5,1.8s-4.9,2.6-7.1,4.2v102.3H3662.8z M3691.4,847.9c7.4,0,14.3,1.4,20.6,4.2
		s11.7,7.3,16.3,13.5c4.5,6.2,8,14.3,10.5,24.2s3.7,22,3.7,36.3c0,14.2-1.3,26.3-3.7,36.2c-2.5,9.9-6.1,18-10.8,24.2
		s-10.4,10.7-17.1,13.5c-6.7,2.8-14.2,4.2-22.4,4.2c-5.2,0-10-0.7-14.3-2.1c-4.3-1.4-8.1-3.2-11.3-5.4v64.5h-36.1V850.8h25.5l4.5,9
		h1.5c3.2-3,7.4-5.7,12.6-8.2S3682.9,847.9,3691.4,847.9"/>
	<path id="path74" class="st0" d="M3841.6,929.1h-16.5c-2.6,0-5.2,0.4-7.9,1.2s-5.1,2.3-7.2,4.4c-2.1,2.1-3.8,4.9-5.2,8.4
		s-2.1,7.9-2.1,13.1c0,5.2,0.7,9.6,2.1,13.1c1.4,3.5,3.2,6.3,5.2,8.4c2.1,2.1,4.5,3.6,7.2,4.4c2.7,0.8,5.3,1.2,7.9,1.2
		c3.8,0,7.1-0.6,9.9-1.8c2.8-1.2,5-2.6,6.6-4.2V929.1L3841.6,929.1z M3813.1,1004.3c-6.4,0-12.4-0.7-18-2s-10.5-3.8-14.7-7.4
		c-4.2-3.6-7.6-8.5-10.1-14.8c-2.5-6.2-3.8-14.3-3.8-24.1s1.2-17.9,3.7-24.1c2.5-6.2,6-11.1,10.3-14.8c4.4-3.6,9.6-6.1,15.6-7.4
		c6-1.3,12.6-2,19.8-2c4.6,0,9,0.3,13.3,0.9c4.3,0.6,8.3,1.3,12.1,2.1v-12c0-12-2.8-20-8.4-24c-5.6-4-13.4-6-23.2-6H3780v-15.1
		c4.6-1.6,10.3-3,17-4.2s13.1-1.8,19.1-1.8c10.2,0,19.2,0.7,26.8,2.1c7.6,1.4,14,4,19.2,7.7s9.1,8.9,11.7,15.6
		c2.6,6.7,3.9,15.3,3.9,25.7v102.2h-25.5l-4.5-9h-1.5c-3.2,3-7.4,5.8-12.6,8.3C3828.4,1003.1,3821.6,1004.3,3813.1,1004.3"/>
	<path id="path76" class="st0" d="M3953,1001.3h-36.1V850.8h36.1V914h40.5v-63.2h36.1v150.5h-36.1v-64.7H3953V1001.3z"/>
	<path id="path78" class="st0" d="M4061.3,850.8h36.1v52.7c0,4.8,0.7,8.9,2.1,12.2s3.3,6,5.6,8c2.3,2,5,3.4,8.1,4.2s6.3,1.2,9.7,1.2
		h15v-78.3h36.1v150.5h-36.1v-54.1c-3.8,0.8-8.4,1.5-13.9,2.1s-10.9,0.9-16.1,0.9c-6.4,0-12.4-0.7-18-2s-10.5-3.7-14.7-7.2
		s-7.6-8.3-10.1-14.3s-3.7-13.7-3.7-23.2v-52.7H4061.3z"/>
	<path id="path80" class="st0" d="M4280.6,929.1h-16.5c-2.6,0-5.2,0.4-8,1.2c-2.7,0.8-5.1,2.3-7.2,4.4c-2.1,2.1-3.9,4.9-5.3,8.4
		s-2.1,7.9-2.1,13.1c0,5.2,0.7,9.6,2.1,13.1s3.1,6.3,5.3,8.4c2.1,2.1,4.5,3.6,7.2,4.4c2.7,0.8,5.3,1.2,8,1.2c3.8,0,7.1-0.6,9.9-1.8
		s5-2.6,6.6-4.2V929.1L4280.6,929.1z M4252.1,1004.3c-6.4,0-12.4-0.7-18-2s-10.5-3.8-14.7-7.4c-4.2-3.6-7.5-8.5-10-14.8
		c-2.5-6.2-3.7-14.3-3.7-24.1s1.2-17.9,3.7-24.1c2.5-6.2,6-11.1,10.4-14.8c4.4-3.6,9.6-6.1,15.6-7.4c6-1.3,12.6-2,19.8-2
		c4.6,0,9,0.3,13.3,0.9c4.3,0.6,8.4,1.3,12.2,2.1v-12c0-12-2.8-20-8.4-24s-13.3-6-23.2-6H4219v-15.1c4.6-1.6,10.3-3,17-4.2
		s13.1-1.8,19.1-1.8c10.2,0,19.1,0.7,26.7,2.1c7.6,1.4,14,4,19.3,7.7c5.2,3.7,9.1,8.9,11.7,15.6c2.6,6.7,3.9,15.3,3.9,25.7v102.2
		h-25.5l-4.5-9h-1.5c-3.2,3-7.4,5.8-12.6,8.3C4267.3,1003.1,4260.5,1004.3,4252.1,1004.3"/>
	<path id="path82" class="st0" d="M4411.5,808.8c6,0,11.3-1.3,15.8-3.8s8.3-5.3,11.3-8.3l15,15.1c-4.6,6.8-10.3,12.3-17.1,16.4
		c-6.8,4.1-15.1,6.2-25,6.2c-9.8,0-18.2-2.1-25-6.2c-6.8-4.1-12.5-9.6-17.1-16.4l15-15.1c3,3,6.8,5.8,11.3,8.3
		C4400.2,807.5,4405.5,808.8,4411.5,808.8 M4435.5,906.5h-1.5l-42.1,94.7h-36.1V850.8h34.5v91.8h1.5l39.1-91.8h39v150.5h-34.5v-94.8
		H4435.5z"/>
	<path id="path84" class="st0" d="M4600.9,959.2c0,9-1.3,16.5-4.1,22.3c-2.7,5.8-6.8,10.4-12.3,13.8c-5.5,3.4-12.6,5.8-21.1,7.1
		s-18.6,2-30.2,2c-7.6,0-14.9-0.6-21.8-1.8s-12.7-2.6-17.3-4.2v-15.1h39.1c9,0,16.3-1.8,21.8-5.4c5.5-3.6,8.3-10.3,8.3-20.1
		c0-9-2.5-15.2-7.5-18.7s-10.5-5.3-16.5-5.3h-25.6v-21.1h22.6c6,0,11.5-1.7,16.5-5.1c5-3.4,7.5-9.2,7.5-17.4c0-7.6-2.8-13-8.3-16.2
		s-12.8-4.8-21.8-4.8h-33.1v-15.1c4.6-1.6,10.4-3,17.3-4.2s14.2-1.8,21.8-1.8c10.2,0,19.1,0.7,26.8,1.9c7.6,1.3,14,3.5,19.2,6.6
		s9.1,7.3,11.8,12.5c2.6,5.2,3.9,11.7,3.9,19.6c0,5.2-0.7,9.7-2.3,13.4c-1.5,3.7-3.6,6.8-6.2,9.3s-5.5,4.5-8.7,6s-6.5,2.8-9.9,3.8
		v1.2c3.4,1,6.9,2.4,10.4,4.2s6.7,4.2,9.6,7.2s5.3,6.6,7.2,10.8C4599.9,948.7,4600.9,953.6,4600.9,959.2"/>
	<path id="path86" class="st0" d="M4710.6,906.5h-1.5l-42.1,94.7h-36V850.8h34.6v91.8h1.5l39.1-91.8h39.1v150.5h-34.5L4710.6,906.5
		L4710.6,906.5z"/>
	<path id="path88" class="st0" d="M4820.4,1001.3h-36.1V850.8h36.1V914h40.5v-63.2h36.1v150.5h-36.1v-64.7h-40.5V1001.3z"/>
	<path id="path90" class="st0" d="M5030.9,850.8v22.7h-58.6v127.8h-36.1V850.8H5030.9z"/>
	<path id="path92" class="st2" d="M812.8,25.9V416h-195v195.1h195.1v195.1H422.7v195.1h390.1c107.5-0.6,194.5-87.6,195.1-195.1V25.9
		H812.8z"/>
	<path id="path94" class="st3" d="M617.8,221V26H227.7C120.2,26.5,33.2,113.5,32.6,221v780.2h195.1V611.1h195.1v-195H227.7V221
		H617.8z"/>
</g>
</svg>
