<?xml version="1.0" encoding="utf-8"?>
<!-- Generator: Adobe Illustrator 22.0.1, SVG Export Plug-In . SVG Version: 6.00 Build 0)  -->
<svg version="1.1" id="Слой_1" xmlns="http://www.w3.org/2000/svg" xmlns:xlink="http://www.w3.org/1999/xlink" x="0px" y="0px"
	 viewBox="0 0 13.9 16.8" style="enable-background:new 0 0 13.9 16.8;" xml:space="preserve">
<style type="text/css">
	.st0{fill-rule:evenodd;clip-rule:evenodd;fill:#5896D2;}
</style>
<path class="st0" d="M5.9,0c-0.2,0-0.3,0-0.5,0c-0.3,0-0.5,0.3-0.5,0.6c0,0.3,0.3,0.5,0.6,0.5c2.3-0.1,4.3,0.7,5.6,2.4
	c1.6,1.9,2.1,4.7,1.4,7.4c-0.8,3.2-3.4,5.1-6.6,4.7c-1.6-0.2-3-0.9-3.8-2c-0.8-1-1.1-2.2-0.9-3.6c0.2-1.8,1.3-3,2.9-3.4
	C5.6,6.4,7,7,7.7,8.2c0.5,0.8,0.5,1.9-0.4,2.4c-0.8,0.5-1.6-0.1-1.9-0.7C5.2,9.6,4.8,9.5,4.5,9.7c-0.3,0.2-0.4,0.5-0.2,0.8
	c0.9,1.6,2.4,1.7,3.4,1.1c1.1-0.7,1.8-2.3,0.9-4C7.7,6,5.8,5.2,3.9,5.6C2.3,5.9,0.4,7.2,0.1,9.9c-0.2,1.7,0.2,3.3,1.1,4.5
	c1,1.3,2.7,2.2,4.6,2.4c1.7,0.2,3.4-0.2,4.8-1.1c1.5-1,2.5-2.5,3-4.4C14.4,8.1,13.8,5,12,2.8C10.5,1,8.3,0,5.9,0"/>
</svg>
