<?xml version="1.0" encoding="iso-8859-1"?>
<!-- Generator: Adobe Illustrator 19.0.0, SVG Export Plug-In . SVG Version: 6.00 Build 0)  -->
<svg xmlns="http://www.w3.org/2000/svg" xmlns:xlink="http://www.w3.org/1999/xlink" version="1.1" id="Layer_1" x="0px" y="0px" viewBox="0 0 512 512" style="enable-background:new 0 0 512 512;" xml:space="preserve" width="512px" height="512px">
<g>
	<g>
		<path d="M496.157,324.385l-0.348-11.853l-96.57,43.453c21.335-53.262,30.444-109.506,34.312-149.15    c4.683-48.011,2.975-81.799,2.9-83.213l-0.799-15.082l-11.949,9.237c-2.549,1.971-59.303,46.195-109.839,113.823    c-18.525-74.366-49.56-130.051-50.968-132.555l-6.902-12.268l-6.9,12.269c-1.376,2.445-31.688,56.848-50.29,129.918    C148.711,162.698,93.292,119.502,90.801,117.576l-11.833-9.149l-0.913,14.93c-0.088,1.419-2.078,35.314,2.254,83.453    c6.002,66.713,20.237,116.192,33.411,149.613l-97.528-43.892l-0.348,11.854c-0.082,2.791-1.412,68.969,50.583,122.52    c41.936,43.19,105.717,65.092,189.578,65.095l-0.001-2.008l0.002-0.002V512c83.851-0.003,147.63-21.905,189.567-65.095    C497.569,393.354,496.239,327.176,496.157,324.385z M318.518,252.13c37.412-52.817,81.378-93.42,102.424-111.511    c0.027,39.025-4.101,141.508-44.229,227.614c-22.573,48.471-53.053,84.427-90.873,107.323    c19.423-27.695,32.122-59.813,37.854-95.912C329.783,341.299,328.025,298.409,318.518,252.13z M93.433,140.304    c20.633,17.72,63.56,57.298,100.65,108.959c-9.902,46.726-11.948,90.043-6.035,128.783c5.608,36.738,18.385,69.382,38.082,97.478    c-37.598-22.828-67.786-58.636-90.003-106.882C96.378,282.346,93.089,179.286,93.433,140.304z M77.971,436.06    c-34.642-35.558-43.385-78.255-45.576-98.873l90.628,40.788c25.625,54.43,61.181,93.788,105.944,117.346    C162.992,491.146,112.272,471.271,77.971,436.06z M255.995,487.382c-28.021-30.319-45.599-67.862-52.294-111.725    c-5.765-37.772-3.551-80.326,6.579-126.48c10.069-45.899,26.078-86.298,37.797-112.228v287.958h15.835V136.94    c11.962,26.459,28.392,67.99,38.42,115.06c9.729,45.685,11.655,87.796,5.722,125.16    C301.192,420.374,283.691,457.412,255.995,487.382z M434.212,435.875c-34.302,35.327-85.083,55.264-151.175,59.448    c44.931-23.617,80.757-63.098,106.745-117.715l89.854-40.435C477.493,357.714,468.837,400.214,434.212,435.875z" fill="#414b4c"/>
	</g>
</g>
<g>
	<g>
		<path d="M256.649,0c-18.919,0-34.309,15.392-34.309,34.309s15.392,34.309,34.309,34.309s34.309-15.392,34.309-34.309    S275.568,0,256.649,0z M256.649,52.784c-10.186,0-18.474-8.288-18.474-18.474s8.288-18.474,18.474-18.474    c10.186,0,18.474,8.288,18.474,18.474S266.835,52.784,256.649,52.784z" fill="#414b4c"/>
	</g>
</g>
<g>
	<g>
		<path d="M366.84,52.784c-18.918,0-34.309,15.392-34.309,34.309s15.392,34.309,34.309,34.309s34.309-15.392,34.309-34.309    S385.758,52.784,366.84,52.784z M366.84,105.567c-10.186,0-18.474-8.288-18.474-18.474s8.288-18.474,18.474-18.474    s18.474,8.288,18.474,18.474S377.026,105.567,366.84,105.567z" fill="#414b4c"/>
	</g>
</g>
<g>
	<g>
		<path d="M155.706,52.784c-18.918,0-34.309,15.392-34.309,34.309s15.392,34.309,34.309,34.309s34.309-15.392,34.309-34.309    S174.624,52.784,155.706,52.784z M155.706,105.567c-10.186,0-18.474-8.288-18.474-18.474s8.288-18.474,18.474-18.474    s18.474,8.288,18.474,18.474S165.892,105.567,155.706,105.567z" fill="#414b4c"/>
	</g>
</g>
</svg>
