<?xml version="1.0" encoding="utf-8"?>
<!-- Generator: Adobe Illustrator 22.0.1, SVG Export Plug-In . SVG Version: 6.00 Build 0)  -->
<svg version="1.1" id="Capa_1" xmlns="http://www.w3.org/2000/svg" xmlns:xlink="http://www.w3.org/1999/xlink" x="0px" y="0px"
	 viewBox="0 0 512 512" style="enable-background:new 0 0 512 512;" xml:space="preserve" width="54px" height="auto">
<style type="text/css">
	.st0{fill:#ffffff;}
</style>
<g>
	<g>
		<path class="st0" d="M458.5,228c-5.2-14.6-24.7-20.6-45-14.3c-20.2-11-29.6-13.5-33.7-24.4l-17.6-46.9
			c-5.3-14.2-17.3-24.9-32.1-28.5l-41.2-10.1V93.3c9.8-13,16-30.1,16-44.4C304.9,21.9,283,0,256,0s-48.9,21.9-48.9,48.9
			c0,14.2,6.1,31,15.7,44v11.6l-38.1,9.3c-14.8,3.6-26.8,14.2-32.1,28.5L135,189.3c-4.2,11.3-14.9,14.2-34.6,24.9
			c-19.3-6.7-41.1-2.6-46.9,13.7c-7,19.7,15.5,41.4,42.4,43.4c-1.9,4.1-3,8.7-3,13.5c0,13.1,7.7,24.3,18.8,29.5l72.9,32.3
			c-17.5,8.5-32.2,12.9-43.8,27.7c-7.5,9.6-9.6,19.5-6,28.1c8,18.7,36.6,18.4,58.4,9.1c9.5-4.1,17.8-9.7,24.1-16.1l38.6-17.1
			l38.6,17.1c6.3,6.4,14.5,12.1,24.1,16.1c24.6,10.5,51.1,8.1,58.4-9.1c12.5-29.4-33.5-47.9-49.8-55.8l72.9-32.3
			c11.1-5.2,18.8-16.4,18.8-29.5c0-4.8-1.2-9.4-3.1-13.5C444.2,269.3,465.2,246.9,458.5,228z M256,16.3c18,0,32.6,14.6,32.6,32.6
			c0,19.9-16.9,48.1-32.6,48.1s-32.6-28.3-32.6-48.1C223.4,30.9,238,16.3,256,16.3z M272.4,108.4L256,126.3l-16.9-18.1
			c5.3,3.1,10.9,5.2,16.9,5.2C261.8,113.3,267.3,111.3,272.4,108.4z M150.3,195l17.6-46.9c3.4-9.2,11.2-16,20.7-18.4l39.3-9.6
			l14.4,15.5c7.4,8,20.1,7.9,27.4-0.1l14.7-16l41.9,10.3c9.5,2.3,17.2,9.2,20.7,18.4l17.6,46.9c5.9,15.6,16.8,19.8,31.4,27.7
			c-3,2.3-5.7,4.8-7.8,7.6c-3,3.9-4.9,8-5.8,12.1c-14.8-6.2-25.2-9.9-34.1-25.5l-22.5-39.3c-2.9-5.1-10.7-3-10.7,2.8v82l34.6,4.2
			L256,312l-93.6-45.4l37.5-4.5v-81.5c0-5.9-7.8-7.9-10.7-2.8c-31.8,56-28.8,52.9-59.2,65.7c-1.2-7.2-5.8-14.2-12.7-19.9
			C132.2,215.5,144.3,211,150.3,195z M362.5,251.7l-31.3-3.7v-27.7l2.8,4.8C340.6,236.6,350.7,245.9,362.5,251.7z M153.2,251.3
			c15.4-7.8,22.7-17.6,30.4-31v27.4L153.2,251.3z M87.1,253.1c-8-2.8-21-12.1-18.2-19.7c2.7-7.6,18.6-6.6,26.6-3.7
			c12.8,4.6,20.2,14.2,18.3,19.7C111.7,255,99.9,257.7,87.1,253.1z M118.7,299.6c-5.8-2.7-9.5-8.4-9.5-14.7
			c0-11.5,12-20.8,24.8-13.9l103.3,50.1l-33.4,16.2L118.7,299.6z M186.9,396.5c-9.7,4.1-33.1,8.7-37-0.5c-3.9-9.2,15.7-22.9,25.3-27
			c9.5-4.1,33-8.8,37,0.5C216.2,378.7,196.5,392.4,186.9,396.5z M283.3,372.5l-7.2-3.2l8-3.5C283.5,367.9,283.3,370.2,283.3,372.5z
			 M336.8,369c19,8.1,27.7,21.4,25.3,27c-3.9,9.2-27.3,4.6-37,0.5c-9.7-4.1-29.2-17.8-25.3-27C303.8,360,327.3,364.9,336.8,369z
			 M393.6,299.4l-164.9,73.1c0.1-3.2-0.2-6.4-1.5-9.4c-2.4-5.7-7.2-9.8-13.6-12.4l165-80.1c11.2-6.1,24,2.2,24,14.2
			C402.7,291.2,399.1,296.8,393.6,299.4z M424.9,253.1c-8.1,2.9-23.8,3.9-26.6-3.7c-2.7-7.7,10.2-16.8,18.2-19.7
			c8.1-2.9,23.8-4,26.6,3.7C445.8,241.1,433,250.3,424.9,253.1z"/>
	</g>
</g>
</svg>
