<?xml version="1.0" encoding="utf-8"?>
<!-- Generator: Adobe Illustrator 22.0.1, SVG Export Plug-In . SVG Version: 6.00 Build 0)  -->
<svg version="1.1" id="Слой_1" xmlns="http://www.w3.org/2000/svg" xmlns:xlink="http://www.w3.org/1999/xlink" x="0px" y="0px"
	 viewBox="0 0 509.4 515.3" style="enable-background:new 0 0 509.4 515.3;" xml:space="preserve">
<style type="text/css">
	.st0{fill:#17A6E4;}
</style>
<path class="st0" d="M496.4,244.2c-1.7-1.9-3.6-3.7-5.6-5.3c-4.8-3.9-10.1-6.8-15.7-9.4c-2.2-1-5.2-1.9-7.5-2.3
	c-1.1-0.2-2.4-0.5-3-1.5c-1.5-2.7,5-9.1,6.5-11.1c3.6-4.8,7-9.7,10.1-14.8c5.9-9.8,10.8-20.4,12.6-31.8c0.1-0.9-0.9-1.5-1.5-1
	c-2.7-2.8-7.3-4.7-10.6-6.3c-4.1-2-8.3-3.8-12.7-5.2c-5-1.6-10.2-2.7-15.5-3.3c-2.6-0.3-5.6-0.1-8.1-0.7c-1.4-0.3-1.5,0.3-1.8-1.2
	c-0.3-1.4,1.2-3.2,1.8-4.4c1-2,1.9-4.2,2.6-6.3c1.4-4,2.5-8.2,2.9-12.5c2.7-26.5-21-47.6-46.1-48.8c-5.9-0.3-11.7,0.8-17.4,1.9
	c-1.2,0.2-11.1,2.2-10.8,3.9c-0.7-4-0.6-8.6-1.1-12.7c-0.6-5-1.4-9.9-2.4-14.8c-2.1-9.7-4.8-20.2-9.8-28.9c-0.4-0.6-1.1-0.6-1.6-0.3
	c-2.3,0-4.8,0.8-7,1.3c-2.5,0.6-5.1,1.2-7.6,2c-5.2,1.5-10.4,3.4-15.4,5.5c-4.5,1.9-9,4-13.3,6.3c-2.1,1.2-4.2,2.4-6.2,3.7
	c-0.9,0.6-5.4,5.1-5.9,3.2c-0.2-0.6-1.2-1.3-1.4-2c-0.4-1.1-0.2-2.3-0.4-3.4c-0.4-2.8-0.8-5.7-1.8-8.4c-1.4-3.9-3.4-7.7-5.6-11.2
	c-4.5-7-10.4-13.1-17.6-17.3c-7.6-4.5-15.3-5.3-23.9-5.5c-0.7,0-1.4,0-2.1,0.1c-0.5,0.1-1.1,0.2-1.6,0.4
	c-8.3,2.3-16.1,5.8-22.5,11.6c-6.6,6-10.9,13.6-14.6,21.5l-0.1-1c-0.1,1-1.4,1.5-2.4,1.2c-1.7-0.5-3.5-2.6-5-3.5
	c-2.1-1.3-4.3-2.3-6.3-3.7c-3-1.9-5.9-4.1-9-5.8c-4.3-2.3-8.8-4.4-13.5-6.2c-4.5-1.7-9.5-3.9-14.2-1.8c-0.2,0.1-0.3,0.2-0.3,0.3
	c-0.1,0.1-0.2,0.1-0.2,0.2c-7.8,8.1-14.1,17.5-18.4,27.8c-3.6,8.6-6.7,18.1-6.5,27.5c0.1,3.4-1.9,2.4-4.1,1.3
	c-6.6-3.1-14.4-4.8-21.6-5.5c-11.4-1.2-23.5,1.3-32.8,8c-11.3,8.1-15.7,20.9-14.2,34.4c0.5,4.2,1,8.7,2.3,12.8
	c1.1,3.5,2.8,6.2,4.8,9.2c1.2,1.8-1.6,3-2.5,2l0.4,0.5c-9.4,1.4-18.8,2.8-28,5.1c-5.7,1.4-11.3,3.1-16.8,5.3c-2.5,1-4.9,2-7.3,3.1
	c-2,0.9-4.9,1.9-6.3,3.8c-0.5,0.3-0.9,0.9-0.7,1.6c3.1,11.8,7.3,23.3,13,34.1c2.8,5.3,5.9,10.5,9.4,15.5c1.4,2,3.1,3.9,4.6,5.8
	c0.6,0.7,4.2,4.5,2,4.9c0.2,0,0.3,0,0.5,0c-3.1,1-6.3,1.6-9.4,2.6c-4.5,1.6-8.9,3.6-12.9,6.2c-6.9,4.5-12.2,10.9-15.6,18.3
	c-7.3,16.1-3.5,36.2,9.3,48.4c3.1,2.9,6.9,5.7,10.6,7.8c0.8,0.4,1.6,0.7,2.4,1.1c1.4,0.6,2.8,1.2,4.3,1.7c1.7,0.6,3.3,0.2,3.2,2
	c-0.2,2.4-4.2,5.3-5.6,7.1c-4.4,5.8-8.4,11.7-11.7,18.1c-5.5,10.5-9.4,21.9-11.3,33.5c-0.5,0.3-0.7,1.3-0.1,1.6
	c8.9,5.2,18.6,8.8,28.6,11.2c4.9,1.2,9.9,2.2,14.9,2.8c3.5,0.5,7.3,1.3,10.9,1.2c0.4,0,1,0.2,1,0.6c0,0.1-0.1,0.3-0.1,0.4
	c-3.3,7.4-5.5,14.9-5.5,23c0,3.9,0.5,7.8,1.3,11.6c2.5,11.4,8.1,21.1,17.5,28.3c8,6.1,18.1,9.5,28.1,9.8c7.8,0.2,15-1.8,22-5.2
	c0.7-0.3,1.4-0.7,2.1-1c2.9-1.5,2.1,0.9,2.2,3.2c0.1,2.6,0.3,5.2,0.6,7.8c1.2,10.4,3.7,20.9,7.5,30.7c1.4,3.6,2.9,7.1,4.5,10.6
	c0.9,1.9,1.6,3.1,3.7,2.2c2.1-0.9,4.2-0.5,6.4-0.6c2.6-0.1,5.3-0.7,7.9-1.3c5.3-1.2,10.4-2.9,15.3-5.1c5-2.2,9.7-4.9,14.2-7.9
	c2.2-1.5,4.4-3.1,6.5-4.8c1.4-1.2,6.1-6.9,6.9-3.9c2.1,7.9,3.8,16.1,8.6,22.9c13.2,18.7,42.3,22.8,59.4,6.9
	c8.8-8.2,12.8-18.7,14.7-30.3c1-6.1,6.1,1.5,8.2,3.3c4.2,3.5,9,6.5,14,8.9c11.6,5.6,24.3,8.6,36.9,11.2c1.2,0.2,2-0.9,1.8-1.8
	c0,0,0,0,0.1-0.1c6.5-6.1,10.8-15.4,14.3-23.4c1.7-3.9,3.5-8.2,4-12.6c0.2-1.7-0.5-10,2.1-10.1c0.4,0,0.8,0.2,1.2,0.3
	c1.5,0.7,3,1.5,4.5,2.2c-0.2-0.1-0.3-0.3-0.5-0.4c2.7,1.8,6.9,2.4,9.8,3.2c13.1,3.7,31.2,2.7,42-6.6c17.2-14.9,21.4-43.3,10.7-63.1
	c-0.8-1.5-1.8-2.9-2.4-4.4c9,3.3,19,3.3,28.3,1.7c5-0.9,9.8-2.3,14.5-4.3c4.2-1.8,9.9-4.1,12.9-7.6c0.5-0.6,0.5-1.2,0.2-1.6
	c1.4-4.6,0.6-9.3-0.5-14c-1.2-5-2.9-9.8-5-14.4c-1.8-4-4.1-7.8-6.5-11.5c-2.5-3.8-6.1-7.4-8.2-11.4c2.6-2.1,8.5-1.5,11.7-2.3
	c3.8-1,7.7-2.5,11-4.8c10.3-6.8,18.3-17.7,20.3-30c0.3-1.8,0.4-3.6,0.4-5.4C509.8,263.3,504.1,252.6,496.4,244.2 M504.5,286.8
	c-2.9,7.9-8.5,14.7-15.4,19.5c-7.8,5.4-16.6,8-26,7.9c-1.1,0-1.4,1-1.1,1.8c-0.4,0.5-0.6,1.2-0.2,1.7c2.7,3.7,6.1,6.9,8.8,10.7
	c2.7,3.8,5,7.8,7,12c2.1,4.3,3.7,8.9,5,13.5c1.3,4.5,2.4,9.3,2.2,14h-0.1c-2.2,0.9-4.1,2.6-6.2,3.8c-2.2,1.3-4.6,2.4-7,3.4
	c-4.2,1.7-8.6,3-13,3.8c-9.7,1.8-19.3,0.9-28.9-0.9c-0.5-0.1-0.9,0.2-1,0.5c-1.1-0.1-2.2,1-1.4,2.2c9.2,13.8,11,31.2,5.1,46.8
	c-3,7.8-8,15.4-15.1,20c-7.1,4.7-15.8,6.4-24.2,6c-10.6-0.5-20.2-4.8-29.7-9.2c-0.3-0.1-0.5-0.1-0.7-0.1c-0.8-0.1-1.6,0.4-1.7,1.3
	c-0.2,4.6,0.1,9-0.8,13.6c-0.9,4.5-2.4,8.8-4.3,13c-3.6,7.6-7.5,14.9-12.6,21.7c-0.1,0.1-0.1,0.2-0.1,0.2
	c-11.7-2.7-23.6-5.1-34.5-10.2c-4.7-2.2-9.3-4.8-13.4-8c-2.1-1.6-4.1-3.3-5.9-5.2c-1.2-1.3-2.4-3-3.8-4.2c0-1.7-2.9-1.6-3.1,0.2
	c-1.2,8.8-3,17.9-7.4,25.7c-4.1,7.3-10.7,13.1-18.5,16.2c-2.3,0.9-4.7,1.9-7.2,2.3c-2.8,0.5-6.5,0.3-9.3,0.2
	c-1.4-0.1-2.9-0.3-4.3-0.6c-2.8-0.6-5.6-1.5-8.2-2.7c-5.2-2.4-9.9-6-13.5-10.5c-6.6-8.1-8.2-18.3-10.3-28.2
	c-0.1-0.5-0.5-0.7-0.9-0.7c-0.5-0.5-1.4-0.7-2.1,0c-7.3,7.7-16,14-25.6,18.6c-9.9,4.7-20.3,7-31.1,8.4c-0.1,0-0.2,0-0.3,0.1
	c-0.5-1.5-1.4-2.9-2.1-4.4c-1.1-2.4-2.1-4.7-3-7.1c-1.7-4.6-3.2-9.3-4.4-14.1c-2.4-9.6-3.6-19.4-4.2-29.3c0-0.5-0.4-0.9-0.7-1
	c-0.4-0.7-1.1-1.1-2-0.5c-13.5,9-30.8,10-45.3,2.6C67.1,434,58.5,418.5,57.9,402c-0.4-9.3,2-18,5.6-26.5c1.2-0.3,1.1-2.3-0.1-2.5
	c-4.9-1.1-10.4-0.7-15.4-1.4c-4.8-0.7-9.5-1.6-14.2-2.7c-8.9-2.2-17.4-5.4-25.9-8.9c2.1-11.4,5.7-22.5,11.1-32.8
	c4.8-9.1,11-17.1,17.4-25c0.6-0.3,0.9-0.7,1-1.3c0.4-0.5,0.8-1,1.2-1.5c1.3-0.3,1.1-2.6-0.5-2.8c-15.8-1.9-30-13.9-34-29.4
	c-4.2-15.8,2.3-33.5,15.7-43c4.1-2.9,8.6-5.1,13.3-6.8c4.5-1.6,9.3-2.4,13.7-4.3c0.6,0,1.1-0.8,0.5-1.2c-0.1-0.1-0.2-0.2-0.4-0.3
	c0.7-0.4,0.5-1.5-0.5-1.7c-0.5-0.1-1.1-0.2-1.6-0.2c-7.4-7.2-12.8-16.9-17.5-25.9c-5.3-10.3-9.6-21.2-12.3-32.5
	c1.6-0.5,3.1-1.5,4.5-2.2c2.8-1.2,5.6-2.4,8.5-3.5c5.4-2,10.8-3.6,16.4-5c5.4-1.3,10.9-2.4,16.4-3.3c3-0.5,6.1-0.9,9.1-1.3
	c2.1-0.3,4.8,0.3,6.9-0.8c3.8-1.9-0.5-4.6-1.8-6.7c-1.9-2.9-3-6.1-3.9-9.4c-1.4-5.3-2.4-10.8-2.3-16.4c0-9.9,4-18.9,11.7-25.2
	c7.3-5.9,16.6-8.7,25.9-8.9c5.7-0.1,11.3,0.8,16.8,2.2c2.7,0.7,5.3,1.6,7.9,2.5c2.5,0.9,5,2.3,7.7,2.9c0.8,0.2,1.4-0.3,1.6-0.9
	c0.2-0.1,0.3-0.3,0.3-0.6c1.5-10.7,3.2-21,7.5-30.9c4.3-10,10.3-19.2,17.8-27c0.3-0.3,0.4-0.6,0.4-1c4.4-0.2,9.2,2.1,13.1,3.8
	c4.5,1.9,8.8,4,13,6.3c3.9,2.2,7.7,4.6,11.3,7.3c2,1.4,3.9,2.9,5.7,4.5c1.2,1,2.2,2.3,3.5,3.2c0.6,0.4,1.5,1.2,2.3,1.1
	c1.7-0.3,0.7-1.3,0.9-2.4c0.1-1,0.7-2,1.1-2.9c0.9-2,1.9-4,3-6c2.2-3.9,4.7-7.6,7.6-10.9c6-6.8,13.6-11.9,22.5-14.1
	c17.7-4.4,33.9,5.1,43.6,19.7c5.3,8,8.3,17,9.3,26.4c0.1,0.6,0.4,1.1,0.8,1.3c0.2,0.5,0.9,0.9,1.6,0.6c4.5-2.6,8.8-5.6,13.4-8.2
	c4.7-2.6,9.6-5,14.6-7.1c4.8-2,9.8-3.7,14.8-5.2c2.5-0.7,5.1-1.4,7.6-1.9c1.9-0.4,3.9-0.6,5.8-1.3c2.8,8.9,6.1,17.4,8.1,26.5
	c1.1,5,1.9,10,2.5,15c0.3,2.4,0.5,4.8,0.7,7.3c0.2,2.4,0,4.8,0.6,7.1c0.2,0.8,1.1,1.1,1.8,0.8c0.1,0,0.2,0,0.3-0.1
	c0.9-0.4,1.8-0.7,2.8-1.1c0.4,0.1,0.9,0,1.3-0.5c14.7-5,31-6.1,45.1,1.5c13.3,7.1,22.9,21.6,22.7,36.8c0,5.6-1.6,11.1-3.7,16.3
	c-1.1,2.8-2.8,5.3-4.1,8c-0.6,1.3-1.4,2.8-1.5,4.2c-0.2,3.7,2.2,1.6,4.1,1.2c1.4-0.3,2.9,0.4,4.2,0.6c2.4,0.3,4.8,0.7,7.2,1.1
	c4.6,0.9,9.2,1.9,13.7,3.4c4.2,1.4,8.4,3.1,12.4,5c2.1,1,4.1,2.1,6.1,3.3c1.7,1,3.3,2.3,5.2,2.9c-3.2,10.2-7.5,19.8-13.1,28.9
	c-2.9,4.7-6,9.2-9.3,13.6c-1.9,2.5-3.8,4.9-5.7,7.3c-1.2,1.4-2.9,2.4-3.9,4c-0.8,1.3-1.1,5,1.6,3.4c-2.2,1.3,6,3.1,5.9,3.1
	c2.1,0.6,4.2,1.3,6.2,2.1c4.1,1.6,7.9,3.7,11.5,6.1c7.1,4.9,13.1,11.4,17.2,19c2.3,4.2,3.5,8.4,4.2,13.1c0.1,0.7,0.2,1.3,0.3,2
	C507,277.2,506.3,282.1,504.5,286.8"/>
<path class="st0" d="M249.2,16.6c-8.7,3-15.7,9.7-20.6,17.2c-5.3,8-9.3,18.4-8.9,28.3c-5.8-6.2-12.3-11.9-19.3-17
	c-9.7-7-20.3-12.9-31.7-16.5c-0.4-0.7-1.4-1.1-2.1-0.6c-0.5,0.1-0.9,0.7-0.8,1.2c-10.4,18.8-17.3,39.8-19,61.3
	c-0.1-0.1-0.2-0.2-0.4-0.3c-14.5-9.4-33.9-17.8-51-10.8c-6.9,2.8-12.7,8-15.2,15.2c-3,8.5-1.6,18.7,1.3,27c2.9,8.3,7.8,16.5,15,21.8
	c-12.1,0.4-24.2,1.9-36.2,3.8c-10.6,1.7-21.2,3.6-31.5,6.3c-0.1,0-0.2-0.1-0.2-0.1c-0.5-0.2-0.9,0.1-1.1,0.5
	c-0.5,0.2-0.7,0.5-0.7,0.9c-0.3,0.3-0.4,0.7-0.2,1.3c6.8,21.5,17.7,41.6,31.9,59.1c0,0.3,0.1,0.5,0.4,0.5c0.2,0.3,0.5,0.6,0.7,0.9
	c0.5,0.6,1,1.2,1.5,1.9c-17.7-0.5-37.5,3.5-47.5,19.6c-9.7,15.7-1.1,34.5,13.4,43.7c8.4,5.3,18.8,8.4,28.7,9
	c-8.4,9.2-15.8,19.2-22.2,29.8c-5.5,9.1-10.5,18.7-14.7,28.5c-0.1,0.4-0.1,0.7,0,1c-0.3,0.4-0.3,0.9,0.1,1.3c3.6,4,9.1,4.9,14.2,6.1
	c6.5,1.6,13.1,3,19.7,4.2c10.3,1.8,20.7,3,31.2,3.2c-6.1,3.5-10.6,10.2-13,16.4c-3.8,9.7-5.3,21.4-3.6,31.6
	c1.5,9.6,6.9,17.9,15.7,22.3c8.1,4,17.7,4.5,26.4,2c10.2-3,19-9.6,26.1-17.4c0.3,9.1,1.4,18.2,3.1,27.2c1.1,5.5,2.4,11,3.9,16.4
	c1.4,5.2,2.7,11,5.3,15.7c0.4,0.6,1,0.7,1.5,0.5c0.3,0.5,1.2,0.7,1.6,0c0-0.1,0.1-0.1,0.1-0.2c8.8,0.3,17-3.6,24.5-7.9
	c8.5-4.9,16.8-10.1,24.9-15.7c2.4-1.6,4.7-3.3,7-5.1c0,17.7,3.2,38,19.5,48.1c15.9,9.7,34.8,0.2,43.3-14.6c5.4-9.3,7.3-20.1,8-30.7
	c7.3,6.1,15.4,11.5,23.6,16.2c5.6,3.2,11.3,6.2,17.1,9.1c0.3,0.1,0.5,0.3,0.8,0.4c0.1,0.5,0.7,0.8,1.1,0.6
	c5.1,2.6,10.2,5.3,15.6,7.1c0.7,0.2,1.3-0.2,1.5-0.7c0.1,0,0.2,0,0.3-0.1c1.5-1.1,1.9-2.5,2.5-4.2c0.8-2.4,1.6-4.8,2.4-7.3
	c1.6-4.9,3.1-9.7,4.5-14.7c2.9-9.8,5.5-19.7,7.8-29.7c0.1-0.4,0.2-0.7,0.3-1.1c13,13.1,33.8,22.9,51.9,15.4
	c17.3-7.3,21.7-28.3,18.2-45c-2.1-10.1-6.9-19.4-13.8-27.1c6.8-0.3,13.5-0.8,20-1.6c13.9-1.6,27.5-4.4,40.9-8.4
	c1.4-0.4,1.1-2.5-0.2-2.6c-1.4-4.6-4.2-9.1-6.3-13.4c-2.4-4.7-4.8-9.3-7.3-13.9c-4.8-8.9-9.7-17.7-15.2-26.1
	c-0.1-0.1-0.2-0.3-0.3-0.4c8.8,2.6,18.8,1.4,27.3-1.3c9.3-3,18.9-8.4,23.5-17.4c9.8-19-3.3-39.7-20.4-48.7
	c-5.4-2.9-11.3-4.9-17.3-6.3c-3.3-0.8-6.7-1.4-10-1.8c-0.7-0.1-1.5-0.3-2.4-0.4c5.2-5.9,9.8-12.2,14.1-18.7
	c7.2-10.9,13.3-22.3,19.5-33.8c0.3-0.6,0.2-1.2-0.1-1.6c0.1-0.5-0.1-1.1-0.7-1.5c-8.1-4.9-17.1-8-26.2-10.4
	c-8.2-2.2-16.5-4-24.9-5.5c5.9-3.7,8.2-13.2,9.1-19.5c1.2-8.6,1.2-18.2-1.2-26.5c-4.8-16.2-21.7-24.1-37.7-22.9
	c-9.6,0.7-19.5,4.1-27.9,9.1c-0.1-5.6-0.4-11.2-1.1-16.8c-1.6-13.1-4.6-26.3-11.1-38c-0.4-0.7-1.3-0.5-1.5,0.2
	c-0.2-0.1-0.5-0.2-0.7-0.1c-20.2,2-38.3,12.1-54.2,24.2c-0.4-18.3-9.1-37.2-24.6-47.4c-5.2-3.4-11.2-5.5-17.2-5.5
	C255,15.2,252.1,15.6,249.2,16.6"/>
</svg>
