<?xml version="1.0" encoding="utf-8"?>
<!-- Generator: Adobe Illustrator 22.0.1, SVG Export Plug-In . SVG Version: 6.00 Build 0)  -->
<svg version="1.1" id="Layer_1" xmlns="http://www.w3.org/2000/svg" xmlns:xlink="http://www.w3.org/1999/xlink" x="0px" y="0px"
	 viewBox="0 0 159.6 83.1" style="enable-background:new 0 0 159.6 83.1;" xml:space="preserve">
<style type="text/css">
	.st0{fill:#58595B;}
	.st1{fill:#75C044;}
</style>
<g>
	<g>
		<path class="st0" d="M68.1,66.7h2.2l-0.2,1h-2.2l-0.3,1.9h-1.2l0.9-5.2h3.6l-0.2,1h-2.4L68.1,66.7z"/>
		<path class="st0" d="M74.1,64.5h1.2l-0.9,5.2h-1.2L74.1,64.5z"/>
		<path class="st0" d="M80.3,69.6h-1.2l0.7-4.1h-1.6l0.2-1.1h4.4l-0.2,1.1H81L80.3,69.6z"/>
		<path class="st0" d="M86.7,66l-0.6,3.7h-1.2l0.9-5.2h1.5l1.3,3.7l0.7-3.7h1.2l-0.9,5.2h-1.5L86.7,66z"/>
		<path class="st0" d="M93.9,64.5h3.6l-0.2,1h-2.4l-0.2,1.1h2.2l-0.2,1h-2.2l-0.2,1.2h2.4l-0.2,1H93L93.9,64.5z"/>
		<path class="st0" d="M99.8,69.4l0.3-0.9c0.4,0.1,1,0.3,1.6,0.3c0.7,0,0.8-0.1,0.9-0.5c0.1-0.5,0-0.6-0.9-0.7
			c-1.3-0.3-1.4-0.8-1.2-1.7c0.2-1.2,0.7-1.4,2.1-1.4c0.5,0,1.1,0.1,1.7,0.2l-0.2,1c-0.5-0.1-1.1-0.2-1.6-0.2
			c-0.7,0-0.8,0.1-0.9,0.5c-0.1,0.5,0,0.5,0.9,0.7c1.3,0.3,1.4,0.8,1.3,1.6c-0.2,1.2-0.5,1.6-2.2,1.6
			C101.1,69.7,100.3,69.6,99.8,69.4z"/>
		<path class="st0" d="M106.8,69.4l0.3-0.9c0.4,0.1,1,0.3,1.6,0.3c0.7,0,0.8-0.1,0.9-0.5c0.1-0.5,0-0.6-0.9-0.7
			c-1.3-0.3-1.4-0.8-1.2-1.7c0.2-1.2,0.7-1.4,2.1-1.4c0.5,0,1.1,0.1,1.7,0.2l-0.2,1c-0.5-0.1-1.1-0.2-1.6-0.2
			c-0.7,0-0.8,0.1-0.9,0.5c-0.1,0.5,0,0.5,0.9,0.7c1.3,0.3,1.4,0.8,1.3,1.6c-0.2,1.2-0.5,1.6-2.2,1.6
			C107.9,69.7,107.3,69.6,106.8,69.4z"/>
		<path class="st0" d="M117.9,68.4c0-0.1,0-0.3,0-0.4l0.4-2c0.2-1.3,0.9-1.6,2.3-1.6c0.5,0,1,0.1,1.5,0.2l-0.2,1
			c-0.5-0.1-1.1-0.2-1.4-0.2c-0.6,0-0.9,0.1-1,0.7l-0.3,1.9c0,0.1,0,0.2,0,0.2c0,0.3,0.2,0.5,0.8,0.5c0.4,0,0.9,0,1.4-0.1v1
			c-0.5,0.1-1.1,0.2-1.6,0.2C118.6,69.7,117.9,69.2,117.9,68.4z"/>
		<path class="st0" d="M125.6,64.5h1.2l-0.7,4.1h2.3l-0.2,1.1h-3.5L125.6,64.5z"/>
		<path class="st0" d="M131.3,68.3c0-0.1,0-0.3,0-0.4l0.6-3.5h1.2l-0.6,3.5c0,0.1,0,0.1,0,0.2c0,0.3,0.2,0.5,0.9,0.5
			c0.6,0,1-0.2,1.1-0.7l0.6-3.5h1.2l-0.6,3.6c-0.2,1-0.6,1.6-2.4,1.6C131.9,69.7,131.3,69.2,131.3,68.3z"/>
		<path class="st0" d="M138.9,69.6l0.9-5.2h2.5c0.9,0,1.3,0.3,1.3,0.8c0,0.1,0,0.2,0,0.3l-0.1,0.7c-0.1,0.4-0.3,0.6-0.8,0.7
			c0.4,0.1,0.7,0.4,0.7,0.8c0,0.1,0,0.1,0,0.2l-0.1,0.5c-0.1,0.8-0.5,1.1-1.7,1.1L138.9,69.6L138.9,69.6z M142.1,67.9
			c0.1-0.3-0.1-0.5-0.5-0.5h-1.2l-0.2,1.3h1.3c0.4,0,0.5-0.2,0.6-0.4L142.1,67.9z M142.4,65.7c0-0.2-0.1-0.3-0.4-0.3h-1.1l-0.2,1.2
			h1.1c0.3,0,0.5-0.1,0.5-0.4L142.4,65.7z"/>
		<path class="st0" d="M146.1,69.4l0.3-0.9c0.4,0.1,1,0.3,1.6,0.3c0.7,0,0.8-0.1,0.9-0.5c0.1-0.5,0-0.6-0.9-0.7
			c-1.3-0.3-1.4-0.8-1.2-1.7c0.2-1.2,0.7-1.4,2.1-1.4c0.5,0,1.1,0.1,1.7,0.2l-0.2,1c-0.5-0.1-1.1-0.2-1.6-0.2
			c-0.7,0-0.8,0.1-0.9,0.5c-0.1,0.5,0,0.5,0.9,0.7c1.3,0.3,1.4,0.8,1.3,1.6c-0.2,1.2-0.5,1.6-2.2,1.6
			C147.4,69.7,146.6,69.6,146.1,69.4z"/>
	</g>
	<path class="st0" d="M136.4,24.5c-0.4,2-2.4,3.7-4.5,3.7s-3.6-1.6-3.2-3.7c0.4-2,2.4-3.7,4.5-3.7S136.9,22.5,136.4,24.5z"/>
	<path class="st1" d="M6.5,26.1C7,24.1,12,4.1,27,3.9c13.3-0.2,16.2,20.8,16.2,20.8S53.4,17,60.8,12.3C67.4,8,76.7,1.8,81.9,1
		c0,0-10.7,9.3-19.7,16.9c-4.4,3.7-14.6,13.3-17.7,16.2c0,0,2.4,27.7-17,37.5c0,0,5.6-15.2,4.5-26.2c0,0-11.2,11.4-27.7,36.8
		c0,0-2.8-2.2-2.9-8.2c-0.1-7.7,5.4-20.1,29-40.5c0,0-1.7-19.6-10.6-19.5C11.8,14.2,7.5,26.7,7.5,26.7L6.5,26.1z"/>
	<g>
		<path class="st0" d="M156.4,52c1,0,1.7,0.7,1.7,1.7c0,0.9-0.6,1.7-1.7,1.7c-1,0-1.6-0.8-1.6-1.7C154.6,52.8,155.4,52,156.4,52z
			 M156.4,54.9c0.8,0,1.2-0.6,1.2-1.2s-0.4-1.2-1.2-1.2s-1.2,0.6-1.2,1.2C155.1,54.3,155.6,54.9,156.4,54.9z M156.4,53.9h-0.2v0.5
			h-0.4v-1.5h0.6c0.3,0,0.5,0.1,0.5,0.4v0.2c0,0.2-0.1,0.3-0.2,0.4l0.4,0.6h-0.3L156.4,53.9z M156.4,53.2h-0.3v0.4h0.3
			c0.1,0,0.2-0.1,0.2-0.2v-0.1C156.6,53.2,156.6,53.2,156.4,53.2z"/>
	</g>
	<polygon class="st0" points="95.2,32.4 87.8,32.4 82.7,39 79.9,32.4 73.1,32.4 77.9,43.5 68.3,55.3 75.9,55.3 81.6,48.3 84.3,55.3 
		91.7,55.3 86.3,43.5 	"/>
	<polygon class="st0" points="130.3,55.3 124.1,55.3 128.3,32.4 134.4,32.4 	"/>
	<path class="st0" d="M118.8,26.8h6.1l1-6h-7.6c-5.2,0-8.6,4.1-9.3,8.1c-0.5,3-4.4,26.4-4.4,26.4h6.2c0,0,1.6-9.7,2.8-17h8.8l1-6
		h-8.9c0.2-0.9,0.3-1.6,0.3-1.8C115.1,28.6,116.6,26.8,118.8,26.8z"/>
	<path class="st0" d="M145.3,38.3h9.5l1-6h-9.4c1.1-5.9,2.1-11.5,2.1-11.5h-6.2c0,0-4,22-4.5,25c-1.1,6,1.9,9.5,8.7,9.5h5.5l1-6
		h-6.4c-2.3,0-3.1-1.8-2.6-3.7C144.1,45,144.6,42,145.3,38.3z"/>
	<path class="st1" d="M101.3,43.5c-0.4,2-2.1,3.5-4.2,3.5s-3.8-1.8-3.5-3.8c0.4-2,2.3-3.5,4.4-3.5C100.1,39.6,101.7,41.4,101.3,43.5
		z"/>
</g>
</svg>
